%TF.GenerationSoftware,KiCad,Pcbnew,7.0.5*%
%TF.CreationDate,2023-07-01T23:53:25+07:00*%
%TF.ProjectId,PoeSci EFarm Rev 3,506f6553-6369-4204-9546-61726d205265,rev?*%
%TF.SameCoordinates,Original*%
%TF.FileFunction,Soldermask,Bot*%
%TF.FilePolarity,Negative*%
%FSLAX46Y46*%
G04 Gerber Fmt 4.6, Leading zero omitted, Abs format (unit mm)*
G04 Created by KiCad (PCBNEW 7.0.5) date 2023-07-01 23:53:25*
%MOMM*%
%LPD*%
G01*
G04 APERTURE LIST*
G04 Aperture macros list*
%AMRoundRect*
0 Rectangle with rounded corners*
0 $1 Rounding radius*
0 $2 $3 $4 $5 $6 $7 $8 $9 X,Y pos of 4 corners*
0 Add a 4 corners polygon primitive as box body*
4,1,4,$2,$3,$4,$5,$6,$7,$8,$9,$2,$3,0*
0 Add four circle primitives for the rounded corners*
1,1,$1+$1,$2,$3*
1,1,$1+$1,$4,$5*
1,1,$1+$1,$6,$7*
1,1,$1+$1,$8,$9*
0 Add four rect primitives between the rounded corners*
20,1,$1+$1,$2,$3,$4,$5,0*
20,1,$1+$1,$4,$5,$6,$7,0*
20,1,$1+$1,$6,$7,$8,$9,0*
20,1,$1+$1,$8,$9,$2,$3,0*%
G04 Aperture macros list end*
%ADD10C,0.800000*%
%ADD11C,6.400000*%
%ADD12R,1.700000X1.700000*%
%ADD13O,1.700000X1.700000*%
%ADD14RoundRect,0.200100X-0.949900X-0.949900X0.949900X-0.949900X0.949900X0.949900X-0.949900X0.949900X0*%
%ADD15C,2.500000*%
%ADD16RoundRect,0.225000X-0.225000X-0.450000X0.225000X-0.450000X0.225000X0.450000X-0.225000X0.450000X0*%
%ADD17RoundRect,0.387500X-0.387500X-1.062500X0.387500X-1.062500X0.387500X1.062500X-0.387500X1.062500X0*%
%ADD18RoundRect,0.387500X-0.387500X-0.912500X0.387500X-0.912500X0.387500X0.912500X-0.387500X0.912500X0*%
G04 APERTURE END LIST*
D10*
%TO.C,REF\u002A\u002A*%
X133350000Y-98488800D03*
X135047056Y-102585856D03*
X135047056Y-99191744D03*
X135750000Y-100888800D03*
D11*
X133350000Y-100888800D03*
D10*
X133350000Y-103288800D03*
X131652944Y-99191744D03*
X131652944Y-102585856D03*
X130950000Y-100888800D03*
%TD*%
%TO.C,REF\u002A\u002A*%
X92659200Y-98514200D03*
X94356256Y-102611256D03*
X94356256Y-99217144D03*
X95059200Y-100914200D03*
D11*
X92659200Y-100914200D03*
D10*
X92659200Y-103314200D03*
X90962144Y-99217144D03*
X90962144Y-102611256D03*
X90259200Y-100914200D03*
%TD*%
%TO.C,REF\u002A\u002A*%
X92938600Y-47688800D03*
X94635656Y-51785856D03*
X94635656Y-48391744D03*
X95338600Y-50088800D03*
D11*
X92938600Y-50088800D03*
D10*
X92938600Y-52488800D03*
X91241544Y-48391744D03*
X91241544Y-51785856D03*
X90538600Y-50088800D03*
%TD*%
D12*
%TO.C,J3*%
X134950200Y-69320000D03*
D13*
X134950200Y-71860000D03*
X134950200Y-74400000D03*
X134950200Y-76940000D03*
X134950200Y-79480000D03*
X134950200Y-82020000D03*
X134950200Y-84560000D03*
X134950200Y-87100000D03*
%TD*%
D14*
%TO.C,J2*%
X108483400Y-50596800D03*
D15*
X105943400Y-48056800D03*
X105943400Y-53136800D03*
X111023400Y-48056800D03*
X111023400Y-53136800D03*
%TD*%
D12*
%TO.C,J4*%
X106020000Y-101975000D03*
D13*
X108560000Y-101975000D03*
X111100000Y-101975000D03*
X113640000Y-101975000D03*
X116180000Y-101975000D03*
X118720000Y-101975000D03*
X121260000Y-101975000D03*
X123800000Y-101975000D03*
%TD*%
D16*
%TO.C,J1*%
X121356000Y-63052000D03*
X123896000Y-63052000D03*
X126436000Y-63052000D03*
X120086000Y-63052000D03*
X122626000Y-63052000D03*
X125166000Y-63052000D03*
X127756000Y-63052000D03*
D17*
X118566000Y-48337000D03*
D18*
X118566000Y-60567000D03*
D17*
X134366000Y-48387000D03*
D18*
X134366000Y-60562000D03*
%TD*%
M02*
