%TF.GenerationSoftware,KiCad,Pcbnew,7.0.5*%
%TF.CreationDate,2023-07-01T23:53:25+07:00*%
%TF.ProjectId,PoeSci EFarm Rev 3,506f6553-6369-4204-9546-61726d205265,rev?*%
%TF.SameCoordinates,Original*%
%TF.FileFunction,Copper,L1,Top*%
%TF.FilePolarity,Positive*%
%FSLAX46Y46*%
G04 Gerber Fmt 4.6, Leading zero omitted, Abs format (unit mm)*
G04 Created by KiCad (PCBNEW 7.0.5) date 2023-07-01 23:53:25*
%MOMM*%
%LPD*%
G01*
G04 APERTURE LIST*
G04 Aperture macros list*
%AMRoundRect*
0 Rectangle with rounded corners*
0 $1 Rounding radius*
0 $2 $3 $4 $5 $6 $7 $8 $9 X,Y pos of 4 corners*
0 Add a 4 corners polygon primitive as box body*
4,1,4,$2,$3,$4,$5,$6,$7,$8,$9,$2,$3,0*
0 Add four circle primitives for the rounded corners*
1,1,$1+$1,$2,$3*
1,1,$1+$1,$4,$5*
1,1,$1+$1,$6,$7*
1,1,$1+$1,$8,$9*
0 Add four rect primitives between the rounded corners*
20,1,$1+$1,$2,$3,$4,$5,0*
20,1,$1+$1,$4,$5,$6,$7,0*
20,1,$1+$1,$6,$7,$8,$9,0*
20,1,$1+$1,$8,$9,$2,$3,0*%
G04 Aperture macros list end*
%TA.AperFunction,ComponentPad*%
%ADD10C,0.800000*%
%TD*%
%TA.AperFunction,ComponentPad*%
%ADD11C,6.400000*%
%TD*%
%TA.AperFunction,SMDPad,CuDef*%
%ADD12RoundRect,0.237500X0.237500X-0.287500X0.237500X0.287500X-0.237500X0.287500X-0.237500X-0.287500X0*%
%TD*%
%TA.AperFunction,SMDPad,CuDef*%
%ADD13O,0.800000X2.500000*%
%TD*%
%TA.AperFunction,SMDPad,CuDef*%
%ADD14O,2.500000X0.800000*%
%TD*%
%TA.AperFunction,SMDPad,CuDef*%
%ADD15R,3.000000X2.000000*%
%TD*%
%TA.AperFunction,ComponentPad*%
%ADD16R,1.700000X1.700000*%
%TD*%
%TA.AperFunction,ComponentPad*%
%ADD17O,1.700000X1.700000*%
%TD*%
%TA.AperFunction,SMDPad,CuDef*%
%ADD18RoundRect,0.237500X0.237500X-0.250000X0.237500X0.250000X-0.237500X0.250000X-0.237500X-0.250000X0*%
%TD*%
%TA.AperFunction,SMDPad,CuDef*%
%ADD19RoundRect,0.250000X0.550000X-1.500000X0.550000X1.500000X-0.550000X1.500000X-0.550000X-1.500000X0*%
%TD*%
%TA.AperFunction,SMDPad,CuDef*%
%ADD20RoundRect,0.250000X-0.325000X-0.450000X0.325000X-0.450000X0.325000X0.450000X-0.325000X0.450000X0*%
%TD*%
%TA.AperFunction,ComponentPad*%
%ADD21RoundRect,0.200100X-0.949900X-0.949900X0.949900X-0.949900X0.949900X0.949900X-0.949900X0.949900X0*%
%TD*%
%TA.AperFunction,ComponentPad*%
%ADD22C,2.500000*%
%TD*%
%TA.AperFunction,SMDPad,CuDef*%
%ADD23RoundRect,0.237500X0.287500X0.237500X-0.287500X0.237500X-0.287500X-0.237500X0.287500X-0.237500X0*%
%TD*%
%TA.AperFunction,SMDPad,CuDef*%
%ADD24R,0.650000X0.400000*%
%TD*%
%TA.AperFunction,SMDPad,CuDef*%
%ADD25RoundRect,0.237500X0.237500X-0.300000X0.237500X0.300000X-0.237500X0.300000X-0.237500X-0.300000X0*%
%TD*%
%TA.AperFunction,SMDPad,CuDef*%
%ADD26RoundRect,0.237500X0.250000X0.237500X-0.250000X0.237500X-0.250000X-0.237500X0.250000X-0.237500X0*%
%TD*%
%TA.AperFunction,SMDPad,CuDef*%
%ADD27RoundRect,0.237500X-0.237500X0.250000X-0.237500X-0.250000X0.237500X-0.250000X0.237500X0.250000X0*%
%TD*%
%TA.AperFunction,SMDPad,CuDef*%
%ADD28RoundRect,0.150000X0.587500X0.150000X-0.587500X0.150000X-0.587500X-0.150000X0.587500X-0.150000X0*%
%TD*%
%TA.AperFunction,ViaPad*%
%ADD29C,0.800000*%
%TD*%
%TA.AperFunction,Conductor*%
%ADD30C,0.508000*%
%TD*%
%TA.AperFunction,Conductor*%
%ADD31C,0.250000*%
%TD*%
%TA.AperFunction,Conductor*%
%ADD32C,0.254000*%
%TD*%
G04 APERTURE END LIST*
D10*
%TO.P,REF\u002A\u002A,1*%
%TO.N,N/C*%
X133350000Y-98488800D03*
X135047056Y-102585856D03*
X135047056Y-99191744D03*
X135750000Y-100888800D03*
D11*
X133350000Y-100888800D03*
D10*
X133350000Y-103288800D03*
X131652944Y-99191744D03*
X131652944Y-102585856D03*
X130950000Y-100888800D03*
%TD*%
%TO.P,REF\u002A\u002A,1*%
%TO.N,N/C*%
X92659200Y-98514200D03*
X94356256Y-102611256D03*
X94356256Y-99217144D03*
X95059200Y-100914200D03*
D11*
X92659200Y-100914200D03*
D10*
X92659200Y-103314200D03*
X90962144Y-99217144D03*
X90962144Y-102611256D03*
X90259200Y-100914200D03*
%TD*%
%TO.P,REF\u002A\u002A,1*%
%TO.N,N/C*%
X92938600Y-47688800D03*
X94635656Y-51785856D03*
X94635656Y-48391744D03*
X95338600Y-50088800D03*
D11*
X92938600Y-50088800D03*
D10*
X92938600Y-52488800D03*
X91241544Y-48391744D03*
X91241544Y-51785856D03*
X90538600Y-50088800D03*
%TD*%
D12*
%TO.P,D2,1,K*%
%TO.N,Net-(D2-K)*%
X110298400Y-96200000D03*
%TO.P,D2,2,A*%
%TO.N,Net-(D2-A)*%
X110298400Y-94450000D03*
%TD*%
D13*
%TO.P,U1,1,WAKEUP_IN*%
%TO.N,unconnected-(U1A-WAKEUP_IN-Pad1)*%
X102000000Y-89900000D03*
%TO.P,U1,2,AP_READY*%
%TO.N,unconnected-(U1A-AP_READY-Pad2)*%
X103300000Y-89900000D03*
%TO.P,U1,3,RESERVED*%
%TO.N,unconnected-(U1A-RESERVED-Pad3)*%
X104600000Y-89900000D03*
%TO.P,U1,4,W_DISABLE#*%
%TO.N,unconnected-(U1A-W_DISABLE#-Pad4)*%
X105900000Y-89900000D03*
%TO.P,U1,5,NET_MODE*%
%TO.N,NET_MODE*%
X107200000Y-89900000D03*
%TO.P,U1,6,NET_STATUS*%
%TO.N,NET_STATUS*%
X108500000Y-89900000D03*
%TO.P,U1,7,VDD_EXT*%
%TO.N,VDD_EXT*%
X109800000Y-89900000D03*
%TO.P,U1,8,GND*%
%TO.N,GND*%
X114200000Y-89900000D03*
%TO.P,U1,9,GND*%
X115500000Y-89900000D03*
%TO.P,U1,10,USIM_GND*%
%TO.N,/USIM_GND*%
X116800000Y-89900000D03*
%TO.P,U1,11,DBG_RXD*%
%TO.N,unconnected-(U1A-DBG_RXD-Pad11)*%
X118100000Y-89900000D03*
%TO.P,U1,12,DBG_TXD*%
%TO.N,unconnected-(U1A-DBG_TXD-Pad12)*%
X119400000Y-89900000D03*
%TO.P,U1,13,USIM_DET*%
%TO.N,unconnected-(U1A-USIM_DET-Pad13)*%
X120700000Y-89900000D03*
%TO.P,U1,14,USIM_VDD*%
%TO.N,/USIM_VDD*%
X122000000Y-89900000D03*
%TO.P,U1,15,USIM_DATA*%
%TO.N,/USIM_DATA*%
X123300000Y-89900000D03*
%TO.P,U1,16,USIM_CLK*%
%TO.N,/USIM_CLK*%
X124600000Y-89900000D03*
%TO.P,U1,17,USIM_RST*%
%TO.N,/USIM_RST*%
X125900000Y-89900000D03*
%TO.P,U1,18,RESERVED*%
%TO.N,unconnected-(U1A-RESERVED-Pad18)*%
X127200000Y-89900000D03*
D14*
%TO.P,U1,19,GND*%
%TO.N,GND*%
X128850000Y-83700000D03*
%TO.P,U1,20,RESET_N*%
%TO.N,Net-(Q1B-C2)*%
X128850000Y-82400000D03*
%TO.P,U1,21,PWRKEY*%
%TO.N,Net-(Q1A-C1)*%
X128850000Y-81100000D03*
%TO.P,U1,22,GND*%
%TO.N,GND*%
X128850000Y-79800000D03*
%TO.P,U1,23,SD_DET*%
%TO.N,unconnected-(U1A-SD_DET-Pad23)*%
X128850000Y-78500000D03*
%TO.P,U1,24,PCM_DIN*%
%TO.N,unconnected-(U1A-PCM_DIN-Pad24)*%
X128850000Y-77200000D03*
%TO.P,U1,25,PCM_DOUT*%
%TO.N,unconnected-(U1A-PCM_DOUT-Pad25)*%
X128850000Y-75900000D03*
%TO.P,U1,26,PCM_SYNC*%
%TO.N,unconnected-(U1A-PCM_SYNC-Pad26)*%
X128850000Y-74600000D03*
%TO.P,U1,27,PCM_CLK*%
%TO.N,unconnected-(U1A-PCM_CLK-Pad27)*%
X128850000Y-73300000D03*
%TO.P,U1,28,SD_SDIO_DATA3*%
%TO.N,unconnected-(U1A-SD_SDIO_DATA3-Pad28)*%
X128850000Y-72000000D03*
%TO.P,U1,29,SD_SDIO_DATA2*%
%TO.N,unconnected-(U1A-SD_SDIO_DATA2-Pad29)*%
X128850000Y-70700000D03*
%TO.P,U1,30,SD_SDIO_DATA1*%
%TO.N,unconnected-(U1A-SD_SDIO_DATA1-Pad30)*%
X128850000Y-69400000D03*
%TO.P,U1,31,SD_SDIO_DATA0*%
%TO.N,unconnected-(U1A-SD_SDIO_DATA0-Pad31)*%
X128850000Y-68100000D03*
%TO.P,U1,32,SD_SDIO_CLK*%
%TO.N,unconnected-(U1A-SD_SDIO_CLK-Pad32)*%
X128850000Y-66800000D03*
%TO.P,U1,33,SD_SDIO_CMD*%
%TO.N,unconnected-(U1A-SD_SDIO_CMD-Pad33)*%
X128850000Y-65500000D03*
%TO.P,U1,34,SD_SDIO_VDD*%
%TO.N,unconnected-(U1A-SD_SDIO_VDD-Pad34)*%
X128850000Y-64200000D03*
%TO.P,U1,35,RESERVED*%
%TO.N,unconnected-(U1A-RESERVED-Pad35)*%
X128850000Y-62900000D03*
%TO.P,U1,36,GND*%
%TO.N,GND*%
X128850000Y-61600000D03*
D13*
%TO.P,U1,37,RESERVED*%
%TO.N,unconnected-(U1A-RESERVED-Pad37)*%
X127200000Y-58400000D03*
%TO.P,U1,38,RESERVED*%
%TO.N,unconnected-(U1A-RESERVED-Pad38)*%
X125900000Y-58400000D03*
%TO.P,U1,39,RESERVED*%
%TO.N,unconnected-(U1A-RESERVED-Pad39)*%
X124600000Y-58400000D03*
%TO.P,U1,40,RESERVED*%
%TO.N,unconnected-(U1A-RESERVED-Pad40)*%
X123300000Y-58400000D03*
%TO.P,U1,41,I2C_SCL*%
%TO.N,unconnected-(U1A-I2C_SCL-Pad41)*%
X122000000Y-58400000D03*
%TO.P,U1,42,I2C_SDA*%
%TO.N,unconnected-(U1A-I2C_SDA-Pad42)*%
X120700000Y-58400000D03*
%TO.P,U1,43,RESERVED*%
%TO.N,unconnected-(U1A-RESERVED-Pad43)*%
X119400000Y-58400000D03*
%TO.P,U1,44,ADC1*%
%TO.N,unconnected-(U1A-ADC1-Pad44)*%
X118100000Y-58400000D03*
%TO.P,U1,45,ADC0*%
%TO.N,unconnected-(U1A-ADC0-Pad45)*%
X116800000Y-58400000D03*
%TO.P,U1,46,GND*%
%TO.N,GND*%
X115500000Y-58400000D03*
%TO.P,U1,47,RESERVED*%
%TO.N,unconnected-(U1A-RESERVED-Pad47)*%
X114200000Y-58400000D03*
%TO.P,U1,48,GND*%
%TO.N,GND*%
X109800000Y-58400000D03*
%TO.P,U1,49,ANT_MAIN*%
%TO.N,Net-(J2-In)*%
X108500000Y-58400000D03*
%TO.P,U1,50,GND*%
%TO.N,GND*%
X107200000Y-58400000D03*
%TO.P,U1,51,GND*%
X105900000Y-58400000D03*
%TO.P,U1,52,GND*%
X104600000Y-58400000D03*
%TO.P,U1,53,GND*%
X103300000Y-58400000D03*
%TO.P,U1,54,GND*%
X102000000Y-58400000D03*
D14*
%TO.P,U1,55,RESERVED*%
%TO.N,unconnected-(U1A-RESERVED-Pad55)*%
X100350000Y-61600000D03*
%TO.P,U1,56,GND*%
%TO.N,GND*%
X100350000Y-62900000D03*
%TO.P,U1,57,VBAT_RF*%
%TO.N,VBATT_RF*%
X100350000Y-64200000D03*
%TO.P,U1,58,VBAT_RF*%
X100350000Y-65500000D03*
%TO.P,U1,59,VBAT_BB*%
%TO.N,VBATT_BB*%
X100350000Y-66800000D03*
%TO.P,U1,60,VBAT_BB*%
X100350000Y-68100000D03*
%TO.P,U1,61,STATUS*%
%TO.N,Net-(D1-K)*%
X100350000Y-69400000D03*
%TO.P,U1,62,MAIN_RI*%
%TO.N,unconnected-(U1A-MAIN_RI-Pad62)*%
X100350000Y-70700000D03*
%TO.P,U1,63,MAIN_DCD*%
%TO.N,unconnected-(U1A-MAIN_DCD-Pad63)*%
X100350000Y-72000000D03*
%TO.P,U1,64,MAIN_CTS*%
%TO.N,unconnected-(U1A-MAIN_CTS-Pad64)*%
X100350000Y-73300000D03*
%TO.P,U1,65,MAIN_RTS*%
%TO.N,unconnected-(U1A-MAIN_RTS-Pad65)*%
X100350000Y-74600000D03*
%TO.P,U1,66,MAIN_DTR*%
%TO.N,unconnected-(U1A-MAIN_DTR-Pad66)*%
X100350000Y-75900000D03*
%TO.P,U1,67,MAIN_TXD*%
%TO.N,UC200_TX*%
X100350000Y-77200000D03*
%TO.P,U1,68,MAIN_RXD*%
%TO.N,UC200_RX*%
X100350000Y-78500000D03*
%TO.P,U1,69,USB_DP*%
%TO.N,unconnected-(U1A-USB_DP-Pad69)*%
X100350000Y-79800000D03*
%TO.P,U1,70,USB_DM*%
%TO.N,unconnected-(U1A-USB_DM-Pad70)*%
X100350000Y-81100000D03*
%TO.P,U1,71,USB_VBUS*%
%TO.N,unconnected-(U1A-USB_VBUS-Pad71)*%
X100350000Y-82400000D03*
%TO.P,U1,72,GND*%
%TO.N,GND*%
X100350000Y-83700000D03*
D15*
%TO.P,U1,85,GND*%
X105000000Y-65950000D03*
%TO.P,U1,86,GND*%
X109800000Y-65950000D03*
%TO.P,U1,87,GND*%
X114600000Y-65950000D03*
%TO.P,U1,88,GND*%
X119400000Y-65950000D03*
%TO.P,U1,89,GND*%
X124200000Y-65950000D03*
%TO.P,U1,90,GND*%
X105000000Y-69150000D03*
%TO.P,U1,91,GND*%
X109800000Y-69150000D03*
%TO.P,U1,92,GND*%
X114600000Y-69150000D03*
%TO.P,U1,93,GND*%
X119400000Y-69150000D03*
%TO.P,U1,94,GND*%
X124200000Y-69150000D03*
%TO.P,U1,95,GND*%
X105000000Y-72550000D03*
%TO.P,U1,96,GND*%
X109800000Y-72550000D03*
%TO.P,U1,97,GND*%
X119400000Y-72550000D03*
%TO.P,U1,98,GND*%
X124200000Y-72550000D03*
%TO.P,U1,99,GND*%
X105000000Y-75750000D03*
%TO.P,U1,100,GND*%
X109800000Y-75750000D03*
%TO.P,U1,101,GND*%
X119400000Y-75750000D03*
%TO.P,U1,102,GND*%
X124200000Y-75750000D03*
%TO.P,U1,103,GND*%
X105000000Y-79150000D03*
%TO.P,U1,104,GND*%
X109800000Y-79150000D03*
%TO.P,U1,105,GND*%
X114600000Y-79150000D03*
%TO.P,U1,106,GND*%
X119400000Y-79150000D03*
%TO.P,U1,107,GND*%
X124200000Y-79150000D03*
%TO.P,U1,108,GND*%
X105000000Y-82350000D03*
%TO.P,U1,109,GND*%
X109800000Y-82350000D03*
%TO.P,U1,110,GND*%
X114600000Y-82350000D03*
%TO.P,U1,111,GND*%
X119400000Y-82350000D03*
%TO.P,U1,112,GND*%
X124200000Y-82350000D03*
%TD*%
D16*
%TO.P,J3,1,Pin_1*%
%TO.N,unconnected-(J3-Pin_1-Pad1)*%
X134950200Y-69320000D03*
D17*
%TO.P,J3,2,Pin_2*%
%TO.N,unconnected-(J3-Pin_2-Pad2)*%
X134950200Y-71860000D03*
%TO.P,J3,3,Pin_3*%
%TO.N,unconnected-(J3-Pin_3-Pad3)*%
X134950200Y-74400000D03*
%TO.P,J3,4,Pin_4*%
%TO.N,unconnected-(J3-Pin_4-Pad4)*%
X134950200Y-76940000D03*
%TO.P,J3,5,Pin_5*%
%TO.N,unconnected-(J3-Pin_5-Pad5)*%
X134950200Y-79480000D03*
%TO.P,J3,6,Pin_6*%
%TO.N,unconnected-(J3-Pin_6-Pad6)*%
X134950200Y-82020000D03*
%TO.P,J3,7,Pin_7*%
%TO.N,unconnected-(J3-Pin_7-Pad7)*%
X134950200Y-84560000D03*
%TO.P,J3,8,Pin_8*%
%TO.N,unconnected-(J3-Pin_8-Pad8)*%
X134950200Y-87100000D03*
%TD*%
D18*
%TO.P,R7,1*%
%TO.N,VBATT_BB*%
X103598400Y-96225000D03*
%TO.P,R7,2*%
%TO.N,Net-(D3-A)*%
X103598400Y-94400000D03*
%TD*%
D19*
%TO.P,C1,1*%
%TO.N,VBATT_RF*%
X94000000Y-61700000D03*
%TO.P,C1,2*%
%TO.N,GND*%
X94000000Y-56100000D03*
%TD*%
D18*
%TO.P,R5,1*%
%TO.N,+3.3V*%
X91075000Y-79362500D03*
%TO.P,R5,2*%
%TO.N,EXTERNAL_RXD*%
X91075000Y-77537500D03*
%TD*%
D20*
%TO.P,FB1,1*%
%TO.N,VBATT_BB*%
X93150000Y-65400000D03*
%TO.P,FB1,2*%
%TO.N,VBATT_RF*%
X95200000Y-65400000D03*
%TD*%
D21*
%TO.P,J2,1,In*%
%TO.N,Net-(J2-In)*%
X108483400Y-50596800D03*
D22*
%TO.P,J2,2,Ext*%
%TO.N,GND*%
X105943400Y-48056800D03*
X105943400Y-53136800D03*
X111023400Y-48056800D03*
X111023400Y-53136800D03*
%TD*%
D23*
%TO.P,D1,1,K*%
%TO.N,Net-(D1-K)*%
X95575000Y-71300000D03*
%TO.P,D1,2,A*%
%TO.N,Net-(D1-A)*%
X93825000Y-71300000D03*
%TD*%
D16*
%TO.P,J4,1,Pin_1*%
%TO.N,+3.3V*%
X106020000Y-101975000D03*
D17*
%TO.P,J4,2,Pin_2*%
%TO.N,unconnected-(J4-Pin_2-Pad2)*%
X108560000Y-101975000D03*
%TO.P,J4,3,Pin_3*%
%TO.N,VBATT_BB*%
X111100000Y-101975000D03*
%TO.P,J4,4,Pin_4*%
%TO.N,EXTERNAL_TXD*%
X113640000Y-101975000D03*
%TO.P,J4,5,Pin_5*%
%TO.N,EXTERNAL_RXD*%
X116180000Y-101975000D03*
%TO.P,J4,6,Pin_6*%
%TO.N,GND*%
X118720000Y-101975000D03*
%TO.P,J4,7,Pin_7*%
%TO.N,RESET*%
X121260000Y-101975000D03*
%TO.P,J4,8,Pin_8*%
%TO.N,PWRKEY*%
X123800000Y-101975000D03*
%TD*%
D24*
%TO.P,Q1,1,E1*%
%TO.N,GND*%
X130550000Y-88350000D03*
%TO.P,Q1,2,B1*%
%TO.N,PWRKEY*%
X130550000Y-89000000D03*
%TO.P,Q1,3,C2*%
%TO.N,Net-(Q1B-C2)*%
X130550000Y-89650000D03*
%TO.P,Q1,4,E2*%
%TO.N,GND*%
X132450000Y-89650000D03*
%TO.P,Q1,5,B2*%
%TO.N,RESET*%
X132450000Y-89000000D03*
%TO.P,Q1,6,C1*%
%TO.N,Net-(Q1A-C1)*%
X132450000Y-88350000D03*
%TD*%
%TO.P,Q4,1,E1*%
%TO.N,GND*%
X106898400Y-94400000D03*
%TO.P,Q4,2,B1*%
%TO.N,NET_MODE*%
X106898400Y-95050000D03*
%TO.P,Q4,3,C2*%
%TO.N,Net-(D3-K)*%
X106898400Y-95700000D03*
%TO.P,Q4,4,E2*%
%TO.N,GND*%
X108798400Y-95700000D03*
%TO.P,Q4,5,B2*%
%TO.N,NET_STATUS*%
X108798400Y-95050000D03*
%TO.P,Q4,6,C1*%
%TO.N,Net-(D2-K)*%
X108798400Y-94400000D03*
%TD*%
D12*
%TO.P,D3,1,K*%
%TO.N,Net-(D3-K)*%
X105298400Y-96187500D03*
%TO.P,D3,2,A*%
%TO.N,Net-(D3-A)*%
X105298400Y-94437500D03*
%TD*%
D25*
%TO.P,C2,1*%
%TO.N,VBATT_RF*%
X97100000Y-65562500D03*
%TO.P,C2,2*%
%TO.N,GND*%
X97100000Y-63837500D03*
%TD*%
D18*
%TO.P,R3,1*%
%TO.N,VDD_EXT*%
X96575000Y-79362500D03*
%TO.P,R3,2*%
%TO.N,UC200_TX*%
X96575000Y-77537500D03*
%TD*%
D26*
%TO.P,R1,1*%
%TO.N,VBATT_BB*%
X95612500Y-69700000D03*
%TO.P,R1,2*%
%TO.N,Net-(D1-A)*%
X93787500Y-69700000D03*
%TD*%
D18*
%TO.P,R6,1*%
%TO.N,VBATT_BB*%
X111898400Y-96212500D03*
%TO.P,R6,2*%
%TO.N,Net-(D2-A)*%
X111898400Y-94387500D03*
%TD*%
%TO.P,R2,1*%
%TO.N,VDD_EXT*%
X96637500Y-82862500D03*
%TO.P,R2,2*%
%TO.N,UC200_RX*%
X96637500Y-81037500D03*
%TD*%
D27*
%TO.P,R4,1*%
%TO.N,+3.3V*%
X91137500Y-81037500D03*
%TO.P,R4,2*%
%TO.N,EXTERNAL_TXD*%
X91137500Y-82862500D03*
%TD*%
D28*
%TO.P,Q2,1,G*%
%TO.N,VDD_EXT*%
X94812500Y-82900000D03*
%TO.P,Q2,2,S*%
%TO.N,UC200_RX*%
X94812500Y-81000000D03*
%TO.P,Q2,3,D*%
%TO.N,EXTERNAL_TXD*%
X92937500Y-81950000D03*
%TD*%
%TO.P,Q3,1,G*%
%TO.N,VDD_EXT*%
X94775000Y-79350000D03*
%TO.P,Q3,2,S*%
%TO.N,UC200_TX*%
X94775000Y-77450000D03*
%TO.P,Q3,3,D*%
%TO.N,EXTERNAL_RXD*%
X92900000Y-78400000D03*
%TD*%
D29*
%TO.N,/USIM_RST*%
X125907800Y-88061800D03*
%TO.N,/USIM_CLK*%
X126390400Y-84531200D03*
%TO.N,/USIM_DATA*%
X125196600Y-85394800D03*
%TO.N,/USIM_VDD*%
X121462800Y-86487000D03*
%TO.N,/USIM_GND*%
X120091200Y-85699600D03*
%TO.N,VBATT_BB*%
X96096666Y-68046600D03*
X93929200Y-67106800D03*
X95012933Y-68072000D03*
X97180400Y-67106800D03*
X112951100Y-96212500D03*
X96096666Y-67106800D03*
X97180400Y-67995800D03*
X102657000Y-96225000D03*
X93929200Y-68046600D03*
X95012933Y-67106800D03*
%TO.N,RESET*%
X133604000Y-89230200D03*
%TO.N,VDD_EXT*%
X94812500Y-82149300D03*
X94812500Y-80100500D03*
%TO.N,EXTERNAL_RXD*%
X92900000Y-80250800D03*
X94335600Y-94538800D03*
%TD*%
D30*
%TO.N,Net-(J2-In)*%
X108500000Y-50634758D02*
X108471541Y-50606299D01*
X108500000Y-58400000D02*
X108500000Y-50634758D01*
X108471541Y-50606299D02*
X108500000Y-50577840D01*
D31*
%TO.N,Net-(D2-A)*%
X111835900Y-94450000D02*
X111898400Y-94387500D01*
X110298400Y-94450000D02*
X111835900Y-94450000D01*
%TO.N,+3.3V*%
X90337500Y-93258500D02*
X90337500Y-81837500D01*
X90337500Y-81837500D02*
X91137500Y-81037500D01*
X99054000Y-101975000D02*
X90337500Y-93258500D01*
X106020000Y-101975000D02*
X99054000Y-101975000D01*
%TO.N,EXTERNAL_TXD*%
X91137500Y-93093300D02*
X91137500Y-82862500D01*
X98044000Y-99999800D02*
X91137500Y-93093300D01*
X111664800Y-99999800D02*
X98044000Y-99999800D01*
X113640000Y-101975000D02*
X111664800Y-99999800D01*
%TO.N,EXTERNAL_RXD*%
X116180000Y-100051000D02*
X116180000Y-101975000D01*
X115062000Y-98933000D02*
X116180000Y-100051000D01*
X98729800Y-98933000D02*
X115062000Y-98933000D01*
X94335600Y-94538800D02*
X98729800Y-98933000D01*
%TO.N,/USIM_CLK*%
X126390400Y-86182200D02*
X126390400Y-84531200D01*
X124600000Y-87972600D02*
X126390400Y-86182200D01*
X124600000Y-89900000D02*
X124600000Y-87972600D01*
%TO.N,/USIM_RST*%
X125907800Y-88061800D02*
X125907800Y-89892200D01*
X125907800Y-89892200D02*
X125900000Y-89900000D01*
%TO.N,/USIM_DATA*%
X123300000Y-87748600D02*
X123300000Y-89900000D01*
X125196600Y-85852000D02*
X123300000Y-87748600D01*
X125196600Y-85394800D02*
X125196600Y-85852000D01*
%TO.N,/USIM_VDD*%
X121488200Y-86487000D02*
X121462800Y-86487000D01*
X122000000Y-86998800D02*
X121488200Y-86487000D01*
X122000000Y-89900000D02*
X122000000Y-86998800D01*
%TO.N,/USIM_GND*%
X117500400Y-86791800D02*
X116800000Y-87492200D01*
X119126000Y-86791800D02*
X117500400Y-86791800D01*
X120091200Y-85826600D02*
X119126000Y-86791800D01*
X120091200Y-85699600D02*
X120091200Y-85826600D01*
X116800000Y-87492200D02*
X116800000Y-89900000D01*
D32*
%TO.N,Net-(D1-K)*%
X95575000Y-71300000D02*
X97475000Y-69400000D01*
X97475000Y-69400000D02*
X100350000Y-69400000D01*
%TO.N,Net-(D1-A)*%
X93787500Y-71262500D02*
X93825000Y-71300000D01*
X93787500Y-69700000D02*
X93787500Y-71262500D01*
D31*
%TO.N,Net-(D2-K)*%
X109448400Y-94640200D02*
X109208200Y-94400000D01*
X109814400Y-96200000D02*
X109448400Y-95834000D01*
X109448400Y-95834000D02*
X109448400Y-94640200D01*
X110298400Y-96200000D02*
X109814400Y-96200000D01*
X109208200Y-94400000D02*
X108798400Y-94400000D01*
%TO.N,Net-(D2-A)*%
X110248400Y-94400000D02*
X110298400Y-94450000D01*
X110360900Y-94387500D02*
X110298400Y-94450000D01*
%TO.N,Net-(D3-K)*%
X105849000Y-95700000D02*
X106898400Y-95700000D01*
X105361500Y-96187500D02*
X105849000Y-95700000D01*
X105298400Y-96187500D02*
X105361500Y-96187500D01*
%TO.N,Net-(D3-A)*%
X103598400Y-94400000D02*
X105260900Y-94400000D01*
X105260900Y-94400000D02*
X105298400Y-94437500D01*
D32*
%TO.N,VBATT_BB*%
X103598400Y-96225000D02*
X102657000Y-96225000D01*
X111898400Y-96212500D02*
X112951100Y-96212500D01*
%TO.N,RESET*%
X133373800Y-89000000D02*
X132450000Y-89000000D01*
X133604000Y-89230200D02*
X133373800Y-89000000D01*
D31*
%TO.N,Net-(Q1B-C2)*%
X131470400Y-89304600D02*
X131125000Y-89650000D01*
X130939400Y-82400000D02*
X131470400Y-82931000D01*
X128850000Y-82400000D02*
X130939400Y-82400000D01*
X131470400Y-82931000D02*
X131470400Y-89304600D01*
X131125000Y-89650000D02*
X130550000Y-89650000D01*
D32*
%TO.N,PWRKEY*%
X127437800Y-101975000D02*
X129006600Y-100406200D01*
X129006600Y-100406200D02*
X129006600Y-89964400D01*
X123800000Y-101975000D02*
X127437800Y-101975000D01*
X129971000Y-89000000D02*
X130550000Y-89000000D01*
X129006600Y-89964400D02*
X129971000Y-89000000D01*
D31*
%TO.N,Net-(Q1A-C1)*%
X131671400Y-81100000D02*
X128850000Y-81100000D01*
X132450000Y-88350000D02*
X132450000Y-81878600D01*
X132450000Y-81878600D02*
X131671400Y-81100000D01*
%TO.N,VDD_EXT*%
X96562500Y-79350000D02*
X96575000Y-79362500D01*
X94812500Y-82900000D02*
X96600000Y-82900000D01*
X94812500Y-82900000D02*
X94812500Y-82149300D01*
X94775000Y-79350000D02*
X96562500Y-79350000D01*
X94775000Y-79350000D02*
X94775000Y-80063000D01*
D30*
X94812500Y-85643100D02*
X94812500Y-82900000D01*
D31*
X94775000Y-80063000D02*
X94812500Y-80100500D01*
D30*
X109800000Y-87854400D02*
X109118400Y-87172800D01*
D31*
X96600000Y-82900000D02*
X96637500Y-82862500D01*
D30*
X109800000Y-89900000D02*
X109800000Y-87854400D01*
X96342200Y-87172800D02*
X94812500Y-85643100D01*
X109118400Y-87172800D02*
X96342200Y-87172800D01*
D31*
%TO.N,UC200_RX*%
X94812500Y-81000000D02*
X96600000Y-81000000D01*
X97448300Y-81037500D02*
X97866200Y-80619600D01*
X96637500Y-81037500D02*
X97448300Y-81037500D01*
X96600000Y-81000000D02*
X96637500Y-81037500D01*
X97866200Y-78968600D02*
X98334800Y-78500000D01*
X97866200Y-80619600D02*
X97866200Y-78968600D01*
X98334800Y-78500000D02*
X100350000Y-78500000D01*
%TO.N,EXTERNAL_TXD*%
X92025000Y-82862500D02*
X92937500Y-81950000D01*
X91137500Y-82862500D02*
X92025000Y-82862500D01*
%TO.N,UC200_TX*%
X94775000Y-77450000D02*
X96487500Y-77450000D01*
X96487500Y-77450000D02*
X96575000Y-77537500D01*
X96912500Y-77200000D02*
X100350000Y-77200000D01*
X96575000Y-77537500D02*
X96912500Y-77200000D01*
%TO.N,EXTERNAL_RXD*%
X92037500Y-77537500D02*
X92900000Y-78400000D01*
X92900000Y-78400000D02*
X92900000Y-80250800D01*
X91075000Y-77537500D02*
X92037500Y-77537500D01*
%TO.N,NET_MODE*%
X107311800Y-95050000D02*
X106898400Y-95050000D01*
X107548400Y-94813400D02*
X107311800Y-95050000D01*
X107548400Y-90248400D02*
X107548400Y-94813400D01*
X107200000Y-89900000D02*
X107548400Y-90248400D01*
%TO.N,NET_STATUS*%
X108410400Y-95050000D02*
X108798400Y-95050000D01*
X108148400Y-94788000D02*
X108410400Y-95050000D01*
X108500000Y-89900000D02*
X108148400Y-90251600D01*
X108148400Y-90251600D02*
X108148400Y-94788000D01*
%TO.N,+3.3V*%
X91075000Y-79362500D02*
X91075000Y-80975000D01*
X91075000Y-80975000D02*
X91137500Y-81037500D01*
%TD*%
%TA.AperFunction,Conductor*%
%TO.N,VBATT_BB*%
G36*
X93910293Y-64461805D02*
G01*
X93976750Y-64483370D01*
X94021000Y-64537441D01*
X94030800Y-64585755D01*
X94030800Y-66370200D01*
X94250712Y-66370928D01*
X94317683Y-66390833D01*
X94323679Y-66395576D01*
X94323818Y-66395383D01*
X94331024Y-66400540D01*
X94331029Y-66400545D01*
X94420912Y-66447162D01*
X94488020Y-66466612D01*
X94561165Y-66476867D01*
X99212385Y-66460603D01*
X99260548Y-66455923D01*
X99305758Y-66447217D01*
X99352212Y-66433678D01*
X99386416Y-66420136D01*
X99416514Y-66412407D01*
X99471274Y-66405488D01*
X99479050Y-66405000D01*
X101234238Y-66405000D01*
X101265075Y-66408896D01*
X101278750Y-66412407D01*
X101359221Y-66433068D01*
X101360969Y-66434109D01*
X101367739Y-66435388D01*
X101371634Y-66436255D01*
X101385874Y-66439912D01*
X101385929Y-66439926D01*
X101390030Y-66440150D01*
X101398154Y-66441136D01*
X101402630Y-66441981D01*
X101402630Y-66441982D01*
X101409293Y-66443241D01*
X101435264Y-66448149D01*
X101435269Y-66448149D01*
X101435272Y-66448150D01*
X101484362Y-66452660D01*
X101484366Y-66452659D01*
X101484367Y-66452660D01*
X101489967Y-66452640D01*
X101578942Y-66452329D01*
X101578944Y-66452328D01*
X101581432Y-66452320D01*
X101648540Y-66471769D01*
X101694480Y-66524412D01*
X101705832Y-66573367D01*
X101749405Y-68403428D01*
X101731322Y-68470917D01*
X101679622Y-68517916D01*
X101626599Y-68530375D01*
X99034599Y-68554600D01*
X99034599Y-68891139D01*
X99014914Y-68958179D01*
X99006149Y-68970172D01*
X99003369Y-68973533D01*
X98945472Y-69012645D01*
X98907819Y-69018500D01*
X97527428Y-69018500D01*
X97501983Y-69015861D01*
X97490985Y-69013555D01*
X97490981Y-69013555D01*
X97455134Y-69018023D01*
X97447458Y-69018500D01*
X97443386Y-69018500D01*
X97421259Y-69022192D01*
X97418725Y-69022561D01*
X97364641Y-69029303D01*
X97357002Y-69031576D01*
X97349410Y-69034183D01*
X97301501Y-69060109D01*
X97299225Y-69061281D01*
X97250254Y-69085222D01*
X97243753Y-69089863D01*
X97237438Y-69094778D01*
X97200527Y-69134873D01*
X97198754Y-69136722D01*
X96013795Y-70321681D01*
X95952472Y-70355166D01*
X95926114Y-70358000D01*
X95069200Y-70358000D01*
X95002161Y-70338315D01*
X94956406Y-70285511D01*
X94945200Y-70234000D01*
X94945200Y-68859400D01*
X94716600Y-68630800D01*
X92351400Y-68630800D01*
X92284361Y-68611115D01*
X92238606Y-68558311D01*
X92227400Y-68506800D01*
X92227400Y-66524412D01*
X92227400Y-64541938D01*
X92247084Y-64474903D01*
X92299888Y-64429148D01*
X92354889Y-64417991D01*
X93910293Y-64461805D01*
G37*
%TD.AperFunction*%
%TD*%
%TA.AperFunction,Conductor*%
%TO.N,VBATT_RF*%
G36*
X95853439Y-59633485D02*
G01*
X95899194Y-59686289D01*
X95910400Y-59737800D01*
X95910400Y-65024000D01*
X98475800Y-65024000D01*
X98475800Y-65023999D01*
X98452765Y-63803155D01*
X98471181Y-63735756D01*
X98523113Y-63689013D01*
X98575771Y-63676820D01*
X101576632Y-63653376D01*
X101643822Y-63672536D01*
X101689989Y-63724981D01*
X101701600Y-63777372D01*
X101701600Y-66068832D01*
X101681915Y-66135871D01*
X101629111Y-66181626D01*
X101578034Y-66192831D01*
X101483454Y-66193162D01*
X101450812Y-66186994D01*
X101450409Y-66188565D01*
X101282684Y-66145500D01*
X101282683Y-66145500D01*
X99458822Y-66145500D01*
X99458812Y-66145500D01*
X99335944Y-66161023D01*
X99335941Y-66161023D01*
X99335939Y-66161024D01*
X99335936Y-66161025D01*
X99335929Y-66161027D01*
X99256688Y-66192399D01*
X99211478Y-66201105D01*
X94560258Y-66217369D01*
X94493150Y-66197919D01*
X94447210Y-66145276D01*
X94435832Y-66094751D01*
X94411800Y-63931800D01*
X93037200Y-63931800D01*
X92970161Y-63912115D01*
X92924406Y-63859311D01*
X92913200Y-63807800D01*
X92913200Y-59737800D01*
X92932885Y-59670761D01*
X92985689Y-59625006D01*
X93037200Y-59613800D01*
X95786400Y-59613800D01*
X95853439Y-59633485D01*
G37*
%TD.AperFunction*%
%TD*%
%TA.AperFunction,Conductor*%
%TO.N,GND*%
G36*
X105835931Y-46333185D02*
G01*
X105881686Y-46385989D01*
X105891630Y-46455147D01*
X105862605Y-46518703D01*
X105803827Y-46556477D01*
X105778621Y-46561118D01*
X105707391Y-46566723D01*
X105477200Y-46621987D01*
X105258486Y-46712581D01*
X105068908Y-46828755D01*
X105544791Y-47304637D01*
X105425969Y-47376131D01*
X105291742Y-47503277D01*
X105188538Y-47655491D01*
X104715355Y-47182308D01*
X104599181Y-47371886D01*
X104508587Y-47590600D01*
X104453323Y-47820791D01*
X104434749Y-48056800D01*
X104453323Y-48292808D01*
X104508587Y-48522999D01*
X104599181Y-48741713D01*
X104715355Y-48931290D01*
X105192166Y-48454478D01*
X105235716Y-48536622D01*
X105355409Y-48677535D01*
X105502595Y-48789423D01*
X105544801Y-48808950D01*
X105068908Y-49284843D01*
X105258486Y-49401018D01*
X105477200Y-49491612D01*
X105707391Y-49546876D01*
X105943400Y-49565450D01*
X106179406Y-49546876D01*
X106351257Y-49505618D01*
X106421040Y-49509109D01*
X106477858Y-49549772D01*
X106503671Y-49614699D01*
X106490304Y-49683239D01*
X106463873Y-49734249D01*
X106363831Y-50015740D01*
X106363827Y-50015754D01*
X106303046Y-50308246D01*
X106282660Y-50606298D01*
X106303046Y-50904351D01*
X106363827Y-51196843D01*
X106363831Y-51196857D01*
X106463874Y-51478350D01*
X106479061Y-51507660D01*
X106492426Y-51576239D01*
X106466592Y-51641158D01*
X106409762Y-51681804D01*
X106340016Y-51685282D01*
X106179408Y-51646723D01*
X105943400Y-51628149D01*
X105707391Y-51646723D01*
X105477200Y-51701987D01*
X105258486Y-51792581D01*
X105068908Y-51908755D01*
X105544790Y-52384637D01*
X105425969Y-52456131D01*
X105291742Y-52583277D01*
X105188538Y-52735491D01*
X104715355Y-52262308D01*
X104599181Y-52451886D01*
X104508587Y-52670600D01*
X104453323Y-52900791D01*
X104434749Y-53136800D01*
X104453323Y-53372808D01*
X104508587Y-53602999D01*
X104599181Y-53821713D01*
X104715355Y-54011290D01*
X105192166Y-53534478D01*
X105235716Y-53616622D01*
X105355409Y-53757535D01*
X105502595Y-53869423D01*
X105544801Y-53888950D01*
X105068908Y-54364843D01*
X105258486Y-54481018D01*
X105477200Y-54571612D01*
X105707391Y-54626876D01*
X105943400Y-54645450D01*
X106179408Y-54626876D01*
X106409599Y-54571612D01*
X106628313Y-54481018D01*
X106817890Y-54364844D01*
X106817890Y-54364843D01*
X106342009Y-53888961D01*
X106460831Y-53817469D01*
X106595058Y-53690323D01*
X106698261Y-53538108D01*
X107171443Y-54011290D01*
X107171444Y-54011290D01*
X107287618Y-53821713D01*
X107378212Y-53602999D01*
X107433476Y-53372808D01*
X107452050Y-53136800D01*
X107433476Y-52900792D01*
X107393811Y-52735576D01*
X107397302Y-52665794D01*
X107437965Y-52608976D01*
X107502892Y-52583163D01*
X107563787Y-52592895D01*
X107711321Y-52656978D01*
X107738529Y-52668796D01*
X107900954Y-52714305D01*
X107960197Y-52751347D01*
X107990009Y-52814537D01*
X107991500Y-52833707D01*
X107991500Y-57087247D01*
X107971815Y-57154286D01*
X107967821Y-57160128D01*
X107966290Y-57162234D01*
X107886626Y-57307143D01*
X107886623Y-57307151D01*
X107845500Y-57467315D01*
X107845500Y-59291187D01*
X107861024Y-59414060D01*
X107861024Y-59414063D01*
X107921898Y-59567812D01*
X107921903Y-59567821D01*
X108019095Y-59701594D01*
X108019097Y-59701595D01*
X108019098Y-59701597D01*
X108146514Y-59807005D01*
X108296141Y-59877414D01*
X108458577Y-59908400D01*
X108623616Y-59898017D01*
X108780887Y-59846916D01*
X108920510Y-59758309D01*
X109033710Y-59637763D01*
X109049759Y-59608571D01*
X109113373Y-59492856D01*
X109113375Y-59492853D01*
X109154500Y-59332683D01*
X109154500Y-59291187D01*
X113545500Y-59291187D01*
X113561024Y-59414060D01*
X113561024Y-59414063D01*
X113621898Y-59567812D01*
X113621903Y-59567821D01*
X113719095Y-59701594D01*
X113719097Y-59701595D01*
X113719098Y-59701597D01*
X113846514Y-59807005D01*
X113996141Y-59877414D01*
X114158577Y-59908400D01*
X114323616Y-59898017D01*
X114480887Y-59846916D01*
X114620510Y-59758309D01*
X114733710Y-59637763D01*
X114749759Y-59608571D01*
X114813373Y-59492856D01*
X114813375Y-59492853D01*
X114854500Y-59332683D01*
X114854500Y-59291187D01*
X116145500Y-59291187D01*
X116161024Y-59414060D01*
X116161024Y-59414063D01*
X116221898Y-59567812D01*
X116221903Y-59567821D01*
X116319095Y-59701594D01*
X116319097Y-59701595D01*
X116319098Y-59701597D01*
X116446514Y-59807005D01*
X116596141Y-59877414D01*
X116758577Y-59908400D01*
X116923616Y-59898017D01*
X117080887Y-59846916D01*
X117220510Y-59758309D01*
X117333710Y-59637763D01*
X117342529Y-59621720D01*
X117392073Y-59572456D01*
X117460387Y-59557797D01*
X117525783Y-59582399D01*
X117551510Y-59608571D01*
X117619095Y-59701594D01*
X117619097Y-59701595D01*
X117619098Y-59701597D01*
X117746514Y-59807005D01*
X117896141Y-59877414D01*
X118058577Y-59908400D01*
X118223616Y-59898017D01*
X118380887Y-59846916D01*
X118520510Y-59758309D01*
X118633710Y-59637763D01*
X118642529Y-59621720D01*
X118692073Y-59572456D01*
X118760387Y-59557797D01*
X118825783Y-59582399D01*
X118851510Y-59608571D01*
X118919095Y-59701594D01*
X118919097Y-59701595D01*
X118919098Y-59701597D01*
X119046514Y-59807005D01*
X119196141Y-59877414D01*
X119358577Y-59908400D01*
X119523616Y-59898017D01*
X119680887Y-59846916D01*
X119820510Y-59758309D01*
X119933710Y-59637763D01*
X119942529Y-59621720D01*
X119992073Y-59572456D01*
X120060387Y-59557797D01*
X120125783Y-59582399D01*
X120151510Y-59608571D01*
X120219095Y-59701594D01*
X120219097Y-59701595D01*
X120219098Y-59701597D01*
X120346514Y-59807005D01*
X120496141Y-59877414D01*
X120658577Y-59908400D01*
X120823616Y-59898017D01*
X120980887Y-59846916D01*
X121120510Y-59758309D01*
X121233710Y-59637763D01*
X121242529Y-59621720D01*
X121292073Y-59572456D01*
X121360387Y-59557797D01*
X121425783Y-59582399D01*
X121451510Y-59608571D01*
X121519095Y-59701594D01*
X121519097Y-59701595D01*
X121519098Y-59701597D01*
X121646514Y-59807005D01*
X121796141Y-59877414D01*
X121958577Y-59908400D01*
X122123616Y-59898017D01*
X122280887Y-59846916D01*
X122420510Y-59758309D01*
X122533710Y-59637763D01*
X122542529Y-59621720D01*
X122592073Y-59572456D01*
X122660387Y-59557797D01*
X122725783Y-59582399D01*
X122751510Y-59608571D01*
X122819095Y-59701594D01*
X122819097Y-59701595D01*
X122819098Y-59701597D01*
X122946514Y-59807005D01*
X123096141Y-59877414D01*
X123258577Y-59908400D01*
X123423616Y-59898017D01*
X123580887Y-59846916D01*
X123720510Y-59758309D01*
X123833710Y-59637763D01*
X123842529Y-59621720D01*
X123892073Y-59572456D01*
X123960387Y-59557797D01*
X124025783Y-59582399D01*
X124051510Y-59608571D01*
X124119095Y-59701594D01*
X124119097Y-59701595D01*
X124119098Y-59701597D01*
X124246514Y-59807005D01*
X124396141Y-59877414D01*
X124558577Y-59908400D01*
X124723616Y-59898017D01*
X124880887Y-59846916D01*
X125020510Y-59758309D01*
X125133710Y-59637763D01*
X125142529Y-59621720D01*
X125192073Y-59572456D01*
X125260387Y-59557797D01*
X125325783Y-59582399D01*
X125351510Y-59608571D01*
X125419095Y-59701594D01*
X125419097Y-59701595D01*
X125419098Y-59701597D01*
X125546514Y-59807005D01*
X125696141Y-59877414D01*
X125858577Y-59908400D01*
X126023616Y-59898017D01*
X126180887Y-59846916D01*
X126320510Y-59758309D01*
X126433710Y-59637763D01*
X126442529Y-59621720D01*
X126492073Y-59572456D01*
X126560387Y-59557797D01*
X126625783Y-59582399D01*
X126651510Y-59608571D01*
X126719095Y-59701594D01*
X126719097Y-59701595D01*
X126719098Y-59701597D01*
X126846514Y-59807005D01*
X126996141Y-59877414D01*
X127158577Y-59908400D01*
X127323616Y-59898017D01*
X127480887Y-59846916D01*
X127620510Y-59758309D01*
X127733710Y-59637763D01*
X127749759Y-59608571D01*
X127813373Y-59492856D01*
X127813375Y-59492853D01*
X127854500Y-59332683D01*
X127854500Y-57508822D01*
X127838976Y-57385939D01*
X127778101Y-57232186D01*
X127778098Y-57232182D01*
X127778096Y-57232178D01*
X127680904Y-57098405D01*
X127680902Y-57098403D01*
X127553486Y-56992995D01*
X127553484Y-56992994D01*
X127553483Y-56992993D01*
X127403859Y-56922586D01*
X127241423Y-56891600D01*
X127241419Y-56891600D01*
X127076384Y-56901983D01*
X127076381Y-56901983D01*
X126919112Y-56953084D01*
X126779489Y-57041690D01*
X126779489Y-57041691D01*
X126666292Y-57162233D01*
X126666288Y-57162238D01*
X126657468Y-57178283D01*
X126607921Y-57227546D01*
X126539605Y-57242201D01*
X126474211Y-57217596D01*
X126448489Y-57191428D01*
X126380904Y-57098405D01*
X126380902Y-57098403D01*
X126253486Y-56992995D01*
X126253484Y-56992994D01*
X126253483Y-56992993D01*
X126103859Y-56922586D01*
X125941423Y-56891600D01*
X125941419Y-56891600D01*
X125776384Y-56901983D01*
X125776381Y-56901983D01*
X125619112Y-56953084D01*
X125479489Y-57041690D01*
X125479489Y-57041691D01*
X125366292Y-57162233D01*
X125366288Y-57162238D01*
X125357468Y-57178283D01*
X125307921Y-57227546D01*
X125239605Y-57242201D01*
X125174211Y-57217596D01*
X125148489Y-57191428D01*
X125080904Y-57098405D01*
X125080902Y-57098403D01*
X124953486Y-56992995D01*
X124953484Y-56992994D01*
X124953483Y-56992993D01*
X124803859Y-56922586D01*
X124641423Y-56891600D01*
X124641419Y-56891600D01*
X124476384Y-56901983D01*
X124476381Y-56901983D01*
X124319112Y-56953084D01*
X124179489Y-57041690D01*
X124179489Y-57041691D01*
X124066292Y-57162233D01*
X124066288Y-57162238D01*
X124057468Y-57178283D01*
X124007921Y-57227546D01*
X123939605Y-57242201D01*
X123874211Y-57217596D01*
X123848489Y-57191428D01*
X123780904Y-57098405D01*
X123780902Y-57098403D01*
X123653486Y-56992995D01*
X123653484Y-56992994D01*
X123653483Y-56992993D01*
X123503859Y-56922586D01*
X123341423Y-56891600D01*
X123341419Y-56891600D01*
X123176384Y-56901983D01*
X123176381Y-56901983D01*
X123019112Y-56953084D01*
X122879489Y-57041690D01*
X122879489Y-57041691D01*
X122766292Y-57162233D01*
X122766288Y-57162238D01*
X122757468Y-57178283D01*
X122707921Y-57227546D01*
X122639605Y-57242201D01*
X122574211Y-57217596D01*
X122548489Y-57191428D01*
X122480904Y-57098405D01*
X122480902Y-57098403D01*
X122353486Y-56992995D01*
X122353484Y-56992994D01*
X122353483Y-56992993D01*
X122203859Y-56922586D01*
X122041423Y-56891600D01*
X122041419Y-56891600D01*
X121876384Y-56901983D01*
X121876381Y-56901983D01*
X121719112Y-56953084D01*
X121579489Y-57041690D01*
X121579489Y-57041691D01*
X121466292Y-57162233D01*
X121466288Y-57162238D01*
X121457468Y-57178283D01*
X121407921Y-57227546D01*
X121339605Y-57242201D01*
X121274211Y-57217596D01*
X121248489Y-57191428D01*
X121180904Y-57098405D01*
X121180902Y-57098403D01*
X121053486Y-56992995D01*
X121053484Y-56992994D01*
X121053483Y-56992993D01*
X120903859Y-56922586D01*
X120741423Y-56891600D01*
X120741419Y-56891600D01*
X120576384Y-56901983D01*
X120576381Y-56901983D01*
X120419112Y-56953084D01*
X120279489Y-57041690D01*
X120279489Y-57041691D01*
X120166292Y-57162233D01*
X120166288Y-57162238D01*
X120157468Y-57178283D01*
X120107921Y-57227546D01*
X120039605Y-57242201D01*
X119974211Y-57217596D01*
X119948489Y-57191428D01*
X119880904Y-57098405D01*
X119880902Y-57098403D01*
X119753486Y-56992995D01*
X119753484Y-56992994D01*
X119753483Y-56992993D01*
X119603859Y-56922586D01*
X119441423Y-56891600D01*
X119441419Y-56891600D01*
X119276384Y-56901983D01*
X119276381Y-56901983D01*
X119119112Y-56953084D01*
X118979489Y-57041690D01*
X118979489Y-57041691D01*
X118866292Y-57162233D01*
X118866288Y-57162238D01*
X118857468Y-57178283D01*
X118807921Y-57227546D01*
X118739605Y-57242201D01*
X118674211Y-57217596D01*
X118648489Y-57191428D01*
X118580904Y-57098405D01*
X118580902Y-57098403D01*
X118453486Y-56992995D01*
X118453484Y-56992994D01*
X118453483Y-56992993D01*
X118303859Y-56922586D01*
X118141423Y-56891600D01*
X118141419Y-56891600D01*
X117976384Y-56901983D01*
X117976381Y-56901983D01*
X117819112Y-56953084D01*
X117679489Y-57041690D01*
X117679489Y-57041691D01*
X117566292Y-57162233D01*
X117566288Y-57162238D01*
X117557468Y-57178283D01*
X117507921Y-57227546D01*
X117439605Y-57242201D01*
X117374211Y-57217596D01*
X117348489Y-57191428D01*
X117280904Y-57098405D01*
X117280902Y-57098403D01*
X117153486Y-56992995D01*
X117153484Y-56992994D01*
X117153483Y-56992993D01*
X117003859Y-56922586D01*
X116841423Y-56891600D01*
X116841419Y-56891600D01*
X116676384Y-56901983D01*
X116676381Y-56901983D01*
X116519112Y-56953084D01*
X116379489Y-57041690D01*
X116379489Y-57041691D01*
X116266292Y-57162233D01*
X116266286Y-57162241D01*
X116186626Y-57307143D01*
X116186623Y-57307151D01*
X116145500Y-57467315D01*
X116145500Y-59291187D01*
X114854500Y-59291187D01*
X114854500Y-57508822D01*
X114838976Y-57385939D01*
X114778101Y-57232186D01*
X114778098Y-57232182D01*
X114778096Y-57232178D01*
X114680904Y-57098405D01*
X114680902Y-57098403D01*
X114553486Y-56992995D01*
X114553484Y-56992994D01*
X114553483Y-56992993D01*
X114403859Y-56922586D01*
X114241423Y-56891600D01*
X114241419Y-56891600D01*
X114076384Y-56901983D01*
X114076381Y-56901983D01*
X113919112Y-56953084D01*
X113779489Y-57041690D01*
X113779489Y-57041691D01*
X113666292Y-57162233D01*
X113666286Y-57162241D01*
X113586626Y-57307143D01*
X113586623Y-57307151D01*
X113545500Y-57467315D01*
X113545500Y-59291187D01*
X109154500Y-59291187D01*
X109154500Y-57508822D01*
X109138976Y-57385939D01*
X109078101Y-57232186D01*
X109078098Y-57232182D01*
X109078096Y-57232178D01*
X109032182Y-57168983D01*
X109008702Y-57103177D01*
X109008500Y-57096098D01*
X109008500Y-52817759D01*
X109028185Y-52750720D01*
X109080989Y-52704965D01*
X109099041Y-52698358D01*
X109204553Y-52668796D01*
X109405775Y-52581392D01*
X109475105Y-52572739D01*
X109538109Y-52602942D01*
X109574782Y-52662414D01*
X109575749Y-52724073D01*
X109533324Y-52900790D01*
X109514749Y-53136800D01*
X109533323Y-53372808D01*
X109588587Y-53602999D01*
X109679181Y-53821713D01*
X109795355Y-54011290D01*
X110272166Y-53534479D01*
X110315716Y-53616622D01*
X110435409Y-53757535D01*
X110582595Y-53869423D01*
X110624801Y-53888950D01*
X110148908Y-54364843D01*
X110338486Y-54481018D01*
X110557200Y-54571612D01*
X110787391Y-54626876D01*
X111023400Y-54645450D01*
X111259408Y-54626876D01*
X111489599Y-54571612D01*
X111708313Y-54481018D01*
X111897890Y-54364844D01*
X111897890Y-54364843D01*
X111422009Y-53888961D01*
X111540831Y-53817469D01*
X111675058Y-53690323D01*
X111778261Y-53538108D01*
X112251443Y-54011290D01*
X112251444Y-54011290D01*
X112367618Y-53821713D01*
X112458212Y-53602999D01*
X112513476Y-53372808D01*
X112532050Y-53136800D01*
X112513476Y-52900791D01*
X112458212Y-52670600D01*
X112367618Y-52451886D01*
X112251443Y-52262308D01*
X111774632Y-52739119D01*
X111731084Y-52656978D01*
X111611391Y-52516065D01*
X111464205Y-52404177D01*
X111421996Y-52384649D01*
X111897890Y-51908755D01*
X111708313Y-51792581D01*
X111489599Y-51701987D01*
X111259408Y-51646723D01*
X111023399Y-51628149D01*
X110787391Y-51646723D01*
X110599696Y-51691785D01*
X110529913Y-51688294D01*
X110473096Y-51647630D01*
X110447283Y-51582704D01*
X110460652Y-51514162D01*
X110479206Y-51478354D01*
X110479207Y-51478352D01*
X110579250Y-51196857D01*
X110579252Y-51196852D01*
X110579961Y-51193443D01*
X110640035Y-50904351D01*
X110660422Y-50606299D01*
X110640035Y-50308246D01*
X110640034Y-50308245D01*
X110579254Y-50015754D01*
X110579250Y-50015740D01*
X110479207Y-49734245D01*
X110479206Y-49734243D01*
X110449409Y-49676738D01*
X110436043Y-49608158D01*
X110461877Y-49543240D01*
X110518706Y-49502593D01*
X110588453Y-49499115D01*
X110787392Y-49546876D01*
X111023399Y-49565450D01*
X111259408Y-49546876D01*
X111489599Y-49491612D01*
X111708313Y-49401018D01*
X111897890Y-49284844D01*
X111897890Y-49284843D01*
X111422009Y-48808962D01*
X111540831Y-48737469D01*
X111675058Y-48610323D01*
X111778261Y-48458108D01*
X112251443Y-48931290D01*
X112251444Y-48931290D01*
X112367618Y-48741713D01*
X112458212Y-48522999D01*
X112513476Y-48292808D01*
X112532050Y-48056799D01*
X112513476Y-47820791D01*
X112458212Y-47590600D01*
X112367618Y-47371886D01*
X112251443Y-47182308D01*
X111774632Y-47659118D01*
X111731084Y-47576978D01*
X111611391Y-47436065D01*
X111464205Y-47324177D01*
X111421996Y-47304649D01*
X111897890Y-46828755D01*
X111708313Y-46712581D01*
X111489599Y-46621987D01*
X111259408Y-46566723D01*
X111188179Y-46561118D01*
X111122891Y-46536234D01*
X111081420Y-46480003D01*
X111076933Y-46410277D01*
X111110855Y-46349195D01*
X111172416Y-46316149D01*
X111197908Y-46313500D01*
X136686300Y-46313500D01*
X136753339Y-46333185D01*
X136799094Y-46385989D01*
X136810300Y-46437500D01*
X136810300Y-99594270D01*
X136790615Y-99661309D01*
X136737811Y-99707064D01*
X136668653Y-99717008D01*
X136605097Y-99687983D01*
X136571107Y-99640167D01*
X136489828Y-99436172D01*
X136489826Y-99436169D01*
X136489824Y-99436163D01*
X136314361Y-99105203D01*
X136314356Y-99105195D01*
X136314352Y-99105188D01*
X136104143Y-98795155D01*
X135861635Y-98509653D01*
X135616495Y-98277444D01*
X135589681Y-98252044D01*
X135589674Y-98252038D01*
X135589671Y-98252036D01*
X135518933Y-98198263D01*
X135291468Y-98025349D01*
X135078229Y-97897047D01*
X134970498Y-97832227D01*
X134970485Y-97832220D01*
X134630530Y-97674940D01*
X134630525Y-97674938D01*
X134630520Y-97674936D01*
X134457485Y-97616633D01*
X134275533Y-97555326D01*
X133909696Y-97474800D01*
X133537299Y-97434300D01*
X133537298Y-97434300D01*
X133162702Y-97434300D01*
X133162700Y-97434300D01*
X132790303Y-97474800D01*
X132424466Y-97555326D01*
X132150052Y-97647787D01*
X132069480Y-97674936D01*
X132069477Y-97674937D01*
X132069469Y-97674940D01*
X131729514Y-97832220D01*
X131729501Y-97832227D01*
X131462399Y-97992937D01*
X131408532Y-98025349D01*
X131375119Y-98050749D01*
X131110328Y-98252036D01*
X131110319Y-98252044D01*
X130838364Y-98509653D01*
X130595856Y-98795155D01*
X130385647Y-99105188D01*
X130385639Y-99105202D01*
X130385639Y-99105203D01*
X130265302Y-99332185D01*
X130210173Y-99436169D01*
X130210171Y-99436172D01*
X130071522Y-99784156D01*
X130071521Y-99784158D01*
X129971311Y-100145085D01*
X129971306Y-100145106D01*
X129910707Y-100514739D01*
X129910706Y-100514752D01*
X129910706Y-100514754D01*
X129909898Y-100529658D01*
X129890426Y-100888797D01*
X129890426Y-100888802D01*
X129892424Y-100925644D01*
X129908819Y-101228050D01*
X129910706Y-101262843D01*
X129910707Y-101262860D01*
X129971306Y-101632493D01*
X129971311Y-101632514D01*
X130071521Y-101993441D01*
X130071522Y-101993443D01*
X130210171Y-102341427D01*
X130210173Y-102341430D01*
X130210176Y-102341437D01*
X130385639Y-102672397D01*
X130385641Y-102672400D01*
X130385647Y-102672411D01*
X130595856Y-102982444D01*
X130678296Y-103079499D01*
X130838365Y-103267947D01*
X131110319Y-103525556D01*
X131408532Y-103752251D01*
X131729506Y-103945375D01*
X131729510Y-103945376D01*
X131729514Y-103945379D01*
X132069469Y-104102659D01*
X132069480Y-104102664D01*
X132233685Y-104157991D01*
X132290929Y-104198051D01*
X132317429Y-104262701D01*
X132304769Y-104331414D01*
X132256970Y-104382375D01*
X132194091Y-104399500D01*
X93890493Y-104399500D01*
X93823454Y-104379815D01*
X93777699Y-104327011D01*
X93767755Y-104257853D01*
X93796780Y-104194297D01*
X93850897Y-104157991D01*
X93939720Y-104128064D01*
X94279694Y-103970775D01*
X94600668Y-103777651D01*
X94898881Y-103550956D01*
X95170835Y-103293347D01*
X95413343Y-103007845D01*
X95535132Y-102828219D01*
X95623552Y-102697811D01*
X95623553Y-102697807D01*
X95623561Y-102697797D01*
X95799024Y-102366837D01*
X95937676Y-102018847D01*
X95944729Y-101993447D01*
X95969810Y-101903111D01*
X96037891Y-101657906D01*
X96062363Y-101508632D01*
X96098492Y-101288260D01*
X96098492Y-101288257D01*
X96098494Y-101288246D01*
X96118774Y-100914200D01*
X96098494Y-100540154D01*
X96096773Y-100529658D01*
X96037893Y-100170506D01*
X96037892Y-100170505D01*
X96037891Y-100170494D01*
X95956483Y-99877289D01*
X95937678Y-99809558D01*
X95937677Y-99809556D01*
X95917646Y-99759283D01*
X95886192Y-99680338D01*
X95879665Y-99610774D01*
X95911783Y-99548724D01*
X95972349Y-99513889D01*
X96042134Y-99517328D01*
X96089066Y-99546760D01*
X98748728Y-102206422D01*
X98764852Y-102226277D01*
X98770932Y-102235582D01*
X98799285Y-102257650D01*
X98805036Y-102262730D01*
X98807887Y-102265581D01*
X98807890Y-102265584D01*
X98826047Y-102278548D01*
X98828100Y-102280079D01*
X98840560Y-102289776D01*
X98870881Y-102313375D01*
X98870885Y-102313376D01*
X98877877Y-102317160D01*
X98885018Y-102320651D01*
X98885021Y-102320653D01*
X98936980Y-102336121D01*
X98939381Y-102336891D01*
X98957156Y-102342993D01*
X98990673Y-102354500D01*
X98990675Y-102354500D01*
X98998482Y-102355803D01*
X99006407Y-102356791D01*
X99006410Y-102356792D01*
X99006412Y-102356791D01*
X99006413Y-102356792D01*
X99036861Y-102355532D01*
X99060556Y-102354552D01*
X99063115Y-102354500D01*
X104791501Y-102354500D01*
X104858540Y-102374185D01*
X104904295Y-102426989D01*
X104915501Y-102478499D01*
X104915501Y-102850066D01*
X104930265Y-102924296D01*
X104930266Y-102924301D01*
X104986515Y-103008484D01*
X105020234Y-103031014D01*
X105070699Y-103064734D01*
X105070702Y-103064734D01*
X105070703Y-103064735D01*
X105095666Y-103069700D01*
X105144933Y-103079500D01*
X106895066Y-103079499D01*
X106969301Y-103064734D01*
X107053484Y-103008484D01*
X107109734Y-102924301D01*
X107124500Y-102850067D01*
X107124499Y-101975000D01*
X107450768Y-101975000D01*
X107469654Y-102178816D01*
X107469654Y-102178818D01*
X107469655Y-102178821D01*
X107525241Y-102374185D01*
X107525673Y-102375704D01*
X107616912Y-102558935D01*
X107740269Y-102722287D01*
X107891537Y-102860185D01*
X107891539Y-102860187D01*
X108065569Y-102967942D01*
X108065575Y-102967945D01*
X108103002Y-102982444D01*
X108256444Y-103041888D01*
X108457653Y-103079500D01*
X108457656Y-103079500D01*
X108662344Y-103079500D01*
X108662347Y-103079500D01*
X108863556Y-103041888D01*
X109054427Y-102967944D01*
X109228462Y-102860186D01*
X109379732Y-102722285D01*
X109503088Y-102558935D01*
X109594328Y-102375701D01*
X109650345Y-102178821D01*
X109669232Y-101975000D01*
X109990768Y-101975000D01*
X110009654Y-102178816D01*
X110009654Y-102178818D01*
X110009655Y-102178821D01*
X110065241Y-102374185D01*
X110065673Y-102375704D01*
X110156912Y-102558935D01*
X110280269Y-102722287D01*
X110431537Y-102860185D01*
X110431539Y-102860187D01*
X110605569Y-102967942D01*
X110605575Y-102967945D01*
X110643002Y-102982444D01*
X110796444Y-103041888D01*
X110997653Y-103079500D01*
X110997656Y-103079500D01*
X111202344Y-103079500D01*
X111202347Y-103079500D01*
X111403556Y-103041888D01*
X111594427Y-102967944D01*
X111768462Y-102860186D01*
X111919732Y-102722285D01*
X112043088Y-102558935D01*
X112134328Y-102375701D01*
X112190345Y-102178821D01*
X112209232Y-101975000D01*
X112190345Y-101771179D01*
X112134328Y-101574299D01*
X112043088Y-101391065D01*
X111946262Y-101262846D01*
X111919730Y-101227712D01*
X111768462Y-101089814D01*
X111768460Y-101089812D01*
X111594430Y-100982057D01*
X111594424Y-100982054D01*
X111419263Y-100914197D01*
X111403556Y-100908112D01*
X111202347Y-100870500D01*
X110997653Y-100870500D01*
X110796444Y-100908112D01*
X110796441Y-100908112D01*
X110796441Y-100908113D01*
X110605575Y-100982054D01*
X110605569Y-100982057D01*
X110431539Y-101089812D01*
X110431537Y-101089814D01*
X110280269Y-101227712D01*
X110156912Y-101391064D01*
X110065673Y-101574295D01*
X110009654Y-101771183D01*
X109990768Y-101974999D01*
X109990768Y-101975000D01*
X109669232Y-101975000D01*
X109650345Y-101771179D01*
X109594328Y-101574299D01*
X109503088Y-101391065D01*
X109406262Y-101262846D01*
X109379730Y-101227712D01*
X109228462Y-101089814D01*
X109228460Y-101089812D01*
X109054430Y-100982057D01*
X109054424Y-100982054D01*
X108879263Y-100914197D01*
X108863556Y-100908112D01*
X108662347Y-100870500D01*
X108457653Y-100870500D01*
X108256444Y-100908112D01*
X108256441Y-100908112D01*
X108256441Y-100908113D01*
X108065575Y-100982054D01*
X108065569Y-100982057D01*
X107891539Y-101089812D01*
X107891537Y-101089814D01*
X107740269Y-101227712D01*
X107616912Y-101391064D01*
X107525673Y-101574295D01*
X107469654Y-101771183D01*
X107450768Y-101974999D01*
X107450768Y-101975000D01*
X107124499Y-101975000D01*
X107124499Y-101099934D01*
X107109734Y-101025699D01*
X107073449Y-100971395D01*
X107053484Y-100941515D01*
X106989268Y-100898608D01*
X106969301Y-100885266D01*
X106969299Y-100885265D01*
X106969296Y-100885264D01*
X106895069Y-100870500D01*
X105144936Y-100870500D01*
X105070698Y-100885266D01*
X104986515Y-100941515D01*
X104930266Y-101025699D01*
X104930264Y-101025703D01*
X104915500Y-101099928D01*
X104915500Y-101471500D01*
X104895815Y-101538539D01*
X104843011Y-101584294D01*
X104791500Y-101595500D01*
X99262556Y-101595500D01*
X99195517Y-101575815D01*
X99174875Y-101559181D01*
X98206675Y-100590981D01*
X98173190Y-100529658D01*
X98178174Y-100459966D01*
X98220046Y-100404033D01*
X98285510Y-100379616D01*
X98294356Y-100379300D01*
X111456244Y-100379300D01*
X111523283Y-100398985D01*
X111543925Y-100415619D01*
X112575615Y-101447309D01*
X112609100Y-101508632D01*
X112607201Y-101568923D01*
X112549654Y-101771181D01*
X112530768Y-101974999D01*
X112530768Y-101975000D01*
X112549654Y-102178816D01*
X112549654Y-102178818D01*
X112549655Y-102178821D01*
X112605241Y-102374185D01*
X112605673Y-102375704D01*
X112696912Y-102558935D01*
X112820269Y-102722287D01*
X112971537Y-102860185D01*
X112971539Y-102860187D01*
X113145569Y-102967942D01*
X113145575Y-102967945D01*
X113183002Y-102982444D01*
X113336444Y-103041888D01*
X113537653Y-103079500D01*
X113537656Y-103079500D01*
X113742344Y-103079500D01*
X113742347Y-103079500D01*
X113943556Y-103041888D01*
X114134427Y-102967944D01*
X114308462Y-102860186D01*
X114459732Y-102722285D01*
X114583088Y-102558935D01*
X114674328Y-102375701D01*
X114730345Y-102178821D01*
X114749232Y-101975000D01*
X114730345Y-101771179D01*
X114674328Y-101574299D01*
X114583088Y-101391065D01*
X114486262Y-101262846D01*
X114459730Y-101227712D01*
X114308462Y-101089814D01*
X114308460Y-101089812D01*
X114134430Y-100982057D01*
X114134424Y-100982054D01*
X113959263Y-100914197D01*
X113943556Y-100908112D01*
X113742347Y-100870500D01*
X113537653Y-100870500D01*
X113387287Y-100898608D01*
X113336438Y-100908113D01*
X113248430Y-100942208D01*
X113178807Y-100948070D01*
X113117067Y-100915360D01*
X113115956Y-100914262D01*
X111970071Y-99768377D01*
X111953943Y-99748516D01*
X111947870Y-99739221D01*
X111947869Y-99739220D01*
X111947868Y-99739218D01*
X111919518Y-99717152D01*
X111913772Y-99712078D01*
X111910913Y-99709219D01*
X111892733Y-99696238D01*
X111890705Y-99694726D01*
X111862346Y-99672654D01*
X111847922Y-99661427D01*
X111847920Y-99661426D01*
X111847919Y-99661425D01*
X111847917Y-99661424D01*
X111840927Y-99657641D01*
X111833779Y-99654147D01*
X111781838Y-99638683D01*
X111779397Y-99637901D01*
X111728126Y-99620299D01*
X111720316Y-99618996D01*
X111712386Y-99618007D01*
X111661146Y-99620127D01*
X111658254Y-99620247D01*
X111655695Y-99620300D01*
X98252556Y-99620300D01*
X98185517Y-99600615D01*
X98164875Y-99583981D01*
X93908377Y-95327483D01*
X93874892Y-95266160D01*
X93879876Y-95196468D01*
X93921748Y-95140535D01*
X93987212Y-95116118D01*
X94053683Y-95130005D01*
X94101806Y-95155262D01*
X94101807Y-95155263D01*
X94101806Y-95155263D01*
X94256128Y-95193300D01*
X94402044Y-95193300D01*
X94469083Y-95212985D01*
X94489725Y-95229619D01*
X98424528Y-99164422D01*
X98440652Y-99184277D01*
X98446732Y-99193582D01*
X98475077Y-99215643D01*
X98480829Y-99220723D01*
X98483686Y-99223580D01*
X98483687Y-99223581D01*
X98501859Y-99236555D01*
X98503913Y-99238087D01*
X98546681Y-99271375D01*
X98546685Y-99271376D01*
X98553674Y-99275159D01*
X98560817Y-99278651D01*
X98560820Y-99278653D01*
X98612808Y-99294130D01*
X98615169Y-99294887D01*
X98642334Y-99304213D01*
X98666471Y-99312500D01*
X98674286Y-99313804D01*
X98682206Y-99314791D01*
X98682209Y-99314792D01*
X98682211Y-99314791D01*
X98682212Y-99314792D01*
X98717601Y-99313328D01*
X98736344Y-99312552D01*
X98738904Y-99312500D01*
X114853444Y-99312500D01*
X114920483Y-99332185D01*
X114941125Y-99348819D01*
X115764181Y-100171875D01*
X115797666Y-100233198D01*
X115800500Y-100259556D01*
X115800500Y-100852591D01*
X115780815Y-100919630D01*
X115728011Y-100965385D01*
X115721295Y-100968217D01*
X115685571Y-100982056D01*
X115511536Y-101089815D01*
X115360269Y-101227712D01*
X115236912Y-101391064D01*
X115145673Y-101574295D01*
X115089654Y-101771183D01*
X115070768Y-101974999D01*
X115070768Y-101975000D01*
X115089654Y-102178816D01*
X115089654Y-102178818D01*
X115089655Y-102178821D01*
X115145241Y-102374185D01*
X115145673Y-102375704D01*
X115236912Y-102558935D01*
X115360269Y-102722287D01*
X115511537Y-102860185D01*
X115511539Y-102860187D01*
X115685569Y-102967942D01*
X115685575Y-102967945D01*
X115723002Y-102982444D01*
X115876444Y-103041888D01*
X116077653Y-103079500D01*
X116077656Y-103079500D01*
X116282344Y-103079500D01*
X116282347Y-103079500D01*
X116483556Y-103041888D01*
X116674427Y-102967944D01*
X116848462Y-102860186D01*
X116999732Y-102722285D01*
X117123088Y-102558935D01*
X117214328Y-102375701D01*
X117270345Y-102178821D01*
X117289232Y-101975000D01*
X117270345Y-101771179D01*
X117257206Y-101724999D01*
X117643312Y-101724999D01*
X117643313Y-101725000D01*
X118286314Y-101725000D01*
X118260507Y-101765156D01*
X118220000Y-101903111D01*
X118220000Y-102046889D01*
X118260507Y-102184844D01*
X118286314Y-102225000D01*
X117643313Y-102225000D01*
X117686140Y-102375522D01*
X117777339Y-102558671D01*
X117900640Y-102721949D01*
X118051836Y-102859782D01*
X118051842Y-102859786D01*
X118225793Y-102967492D01*
X118225808Y-102967499D01*
X118416573Y-103041402D01*
X118470000Y-103051389D01*
X118470000Y-102410501D01*
X118577685Y-102459680D01*
X118684237Y-102475000D01*
X118755763Y-102475000D01*
X118862315Y-102459680D01*
X118970000Y-102410501D01*
X118970000Y-103051389D01*
X119023426Y-103041402D01*
X119214191Y-102967499D01*
X119214206Y-102967492D01*
X119388157Y-102859786D01*
X119388163Y-102859782D01*
X119539359Y-102721949D01*
X119662660Y-102558671D01*
X119753859Y-102375522D01*
X119796687Y-102225000D01*
X119153686Y-102225000D01*
X119179493Y-102184844D01*
X119220000Y-102046889D01*
X119220000Y-101975000D01*
X120150768Y-101975000D01*
X120169654Y-102178816D01*
X120169654Y-102178818D01*
X120169655Y-102178821D01*
X120225241Y-102374185D01*
X120225673Y-102375704D01*
X120316912Y-102558935D01*
X120440269Y-102722287D01*
X120591537Y-102860185D01*
X120591539Y-102860187D01*
X120765569Y-102967942D01*
X120765575Y-102967945D01*
X120803002Y-102982444D01*
X120956444Y-103041888D01*
X121157653Y-103079500D01*
X121157656Y-103079500D01*
X121362344Y-103079500D01*
X121362347Y-103079500D01*
X121563556Y-103041888D01*
X121754427Y-102967944D01*
X121928462Y-102860186D01*
X122079732Y-102722285D01*
X122203088Y-102558935D01*
X122294328Y-102375701D01*
X122350345Y-102178821D01*
X122369232Y-101975000D01*
X122690768Y-101975000D01*
X122709654Y-102178816D01*
X122709654Y-102178818D01*
X122709655Y-102178821D01*
X122765241Y-102374185D01*
X122765673Y-102375704D01*
X122856912Y-102558935D01*
X122980269Y-102722287D01*
X123131537Y-102860185D01*
X123131539Y-102860187D01*
X123305569Y-102967942D01*
X123305575Y-102967945D01*
X123343002Y-102982444D01*
X123496444Y-103041888D01*
X123697653Y-103079500D01*
X123697656Y-103079500D01*
X123902344Y-103079500D01*
X123902347Y-103079500D01*
X124103556Y-103041888D01*
X124294427Y-102967944D01*
X124468462Y-102860186D01*
X124619732Y-102722285D01*
X124743088Y-102558935D01*
X124808790Y-102426989D01*
X124809667Y-102425228D01*
X124857170Y-102373991D01*
X124920667Y-102356500D01*
X127385373Y-102356500D01*
X127410818Y-102359139D01*
X127414761Y-102359965D01*
X127421817Y-102361445D01*
X127440376Y-102359131D01*
X127457666Y-102356977D01*
X127465342Y-102356500D01*
X127469408Y-102356500D01*
X127469411Y-102356500D01*
X127491586Y-102352799D01*
X127494045Y-102352441D01*
X127548160Y-102345696D01*
X127548161Y-102345695D01*
X127555813Y-102343416D01*
X127563378Y-102340819D01*
X127563386Y-102340818D01*
X127611347Y-102314861D01*
X127613582Y-102313711D01*
X127662546Y-102289776D01*
X127662548Y-102289773D01*
X127662550Y-102289773D01*
X127669063Y-102285122D01*
X127675357Y-102280223D01*
X127675357Y-102280222D01*
X127675362Y-102280220D01*
X127712308Y-102240084D01*
X127714009Y-102238311D01*
X129239289Y-100713031D01*
X129259139Y-100696911D01*
X129268556Y-100690760D01*
X129290759Y-100662231D01*
X129295830Y-100656491D01*
X129298713Y-100653609D01*
X129311761Y-100635331D01*
X129313244Y-100633342D01*
X129346758Y-100590285D01*
X129350556Y-100583266D01*
X129354070Y-100576076D01*
X129354075Y-100576070D01*
X129369643Y-100523775D01*
X129370385Y-100521458D01*
X129388100Y-100469861D01*
X129388100Y-100469856D01*
X129389415Y-100461977D01*
X129390405Y-100454042D01*
X129390405Y-100454041D01*
X129388150Y-100399547D01*
X129388100Y-100397083D01*
X129388100Y-90173780D01*
X129407784Y-90106745D01*
X129424413Y-90086108D01*
X129758821Y-89751700D01*
X129820142Y-89718217D01*
X129889834Y-89723201D01*
X129945767Y-89765073D01*
X129970184Y-89830537D01*
X129970500Y-89839380D01*
X129970500Y-89875063D01*
X129985266Y-89949301D01*
X130041515Y-90033484D01*
X130073501Y-90054856D01*
X130125699Y-90089734D01*
X130125702Y-90089734D01*
X130125703Y-90089735D01*
X130150666Y-90094700D01*
X130199933Y-90104500D01*
X130900066Y-90104499D01*
X130974301Y-90089734D01*
X131026499Y-90054855D01*
X131093175Y-90033977D01*
X131100523Y-90034063D01*
X131109092Y-90034417D01*
X131109100Y-90034419D01*
X131121639Y-90032855D01*
X131144740Y-90029977D01*
X131152416Y-90029500D01*
X131156440Y-90029500D01*
X131156443Y-90029500D01*
X131178497Y-90025819D01*
X131180957Y-90025461D01*
X131234783Y-90018752D01*
X131242391Y-90016486D01*
X131249923Y-90013900D01*
X131249927Y-90013900D01*
X131297592Y-89988104D01*
X131299846Y-89986943D01*
X131348568Y-89963126D01*
X131348570Y-89963123D01*
X131348572Y-89963123D01*
X131355001Y-89958533D01*
X131361309Y-89953622D01*
X131361316Y-89953619D01*
X131398035Y-89913729D01*
X131399737Y-89911955D01*
X131701825Y-89609867D01*
X131721679Y-89593745D01*
X131730982Y-89587668D01*
X131753040Y-89559326D01*
X131758122Y-89553570D01*
X131760980Y-89550714D01*
X131773963Y-89532528D01*
X131775478Y-89530497D01*
X131808774Y-89487720D01*
X131812557Y-89480729D01*
X131816050Y-89473583D01*
X131816053Y-89473580D01*
X131816054Y-89473576D01*
X131817827Y-89469950D01*
X131821975Y-89465409D01*
X131822206Y-89464962D01*
X131822348Y-89464765D01*
X131822478Y-89464858D01*
X131864954Y-89418367D01*
X131932488Y-89400451D01*
X131998119Y-89421305D01*
X132025699Y-89439734D01*
X132025702Y-89439734D01*
X132025703Y-89439735D01*
X132050666Y-89444700D01*
X132099933Y-89454500D01*
X132800066Y-89454499D01*
X132872901Y-89440012D01*
X132942491Y-89446241D01*
X132997667Y-89489104D01*
X133013030Y-89517656D01*
X133020213Y-89536595D01*
X133110502Y-89667401D01*
X133110504Y-89667403D01*
X133110506Y-89667405D01*
X133229469Y-89772798D01*
X133229471Y-89772799D01*
X133370207Y-89846663D01*
X133447367Y-89865681D01*
X133524528Y-89884700D01*
X133524529Y-89884700D01*
X133683472Y-89884700D01*
X133734911Y-89872020D01*
X133837793Y-89846663D01*
X133978529Y-89772799D01*
X134097498Y-89667401D01*
X134187787Y-89536595D01*
X134244149Y-89387982D01*
X134263307Y-89230200D01*
X134244149Y-89072418D01*
X134187787Y-88923805D01*
X134097498Y-88792999D01*
X134097495Y-88792996D01*
X134097493Y-88792994D01*
X133978530Y-88687601D01*
X133837791Y-88613736D01*
X133683472Y-88575700D01*
X133683471Y-88575700D01*
X133524529Y-88575700D01*
X133524528Y-88575700D01*
X133365500Y-88614897D01*
X133335825Y-88618500D01*
X133153500Y-88618500D01*
X133086461Y-88598815D01*
X133040706Y-88546011D01*
X133029500Y-88494500D01*
X133029499Y-88124936D01*
X133029499Y-88124934D01*
X133014734Y-88050699D01*
X132958484Y-87966516D01*
X132884608Y-87917153D01*
X132839804Y-87863540D01*
X132829500Y-87814051D01*
X132829500Y-87100000D01*
X133840968Y-87100000D01*
X133859854Y-87303816D01*
X133859854Y-87303818D01*
X133859855Y-87303821D01*
X133906042Y-87466151D01*
X133915873Y-87500704D01*
X134007112Y-87683935D01*
X134130469Y-87847287D01*
X134281737Y-87985185D01*
X134281739Y-87985187D01*
X134455769Y-88092942D01*
X134455775Y-88092945D01*
X134496210Y-88108609D01*
X134646644Y-88166888D01*
X134847853Y-88204500D01*
X134847856Y-88204500D01*
X135052544Y-88204500D01*
X135052547Y-88204500D01*
X135253756Y-88166888D01*
X135444627Y-88092944D01*
X135618662Y-87985186D01*
X135752101Y-87863540D01*
X135769930Y-87847287D01*
X135778274Y-87836238D01*
X135893288Y-87683935D01*
X135984528Y-87500701D01*
X136040545Y-87303821D01*
X136059432Y-87100000D01*
X136040545Y-86896179D01*
X135984528Y-86699299D01*
X135893288Y-86516065D01*
X135826709Y-86427900D01*
X135769930Y-86352712D01*
X135618662Y-86214814D01*
X135618660Y-86214812D01*
X135444630Y-86107057D01*
X135444624Y-86107054D01*
X135258939Y-86035120D01*
X135253756Y-86033112D01*
X135052547Y-85995500D01*
X134847853Y-85995500D01*
X134646644Y-86033112D01*
X134646641Y-86033112D01*
X134646641Y-86033113D01*
X134455775Y-86107054D01*
X134455769Y-86107057D01*
X134281739Y-86214812D01*
X134281737Y-86214814D01*
X134130469Y-86352712D01*
X134007112Y-86516064D01*
X133915873Y-86699295D01*
X133908335Y-86725789D01*
X133861893Y-86889018D01*
X133859854Y-86896183D01*
X133840968Y-87099999D01*
X133840968Y-87100000D01*
X132829500Y-87100000D01*
X132829500Y-84560000D01*
X133840968Y-84560000D01*
X133859854Y-84763816D01*
X133859854Y-84763818D01*
X133859855Y-84763821D01*
X133914990Y-84957601D01*
X133915873Y-84960704D01*
X134007112Y-85143935D01*
X134130469Y-85307287D01*
X134281737Y-85445185D01*
X134281739Y-85445187D01*
X134455769Y-85552942D01*
X134455775Y-85552945D01*
X134496210Y-85568609D01*
X134646644Y-85626888D01*
X134847853Y-85664500D01*
X134847856Y-85664500D01*
X135052544Y-85664500D01*
X135052547Y-85664500D01*
X135253756Y-85626888D01*
X135444627Y-85552944D01*
X135618662Y-85445186D01*
X135769932Y-85307285D01*
X135893288Y-85143935D01*
X135984528Y-84960701D01*
X136040545Y-84763821D01*
X136059432Y-84560000D01*
X136040545Y-84356179D01*
X135984528Y-84159299D01*
X135893288Y-83976065D01*
X135769932Y-83812715D01*
X135769930Y-83812712D01*
X135618662Y-83674814D01*
X135618660Y-83674812D01*
X135444630Y-83567057D01*
X135444624Y-83567054D01*
X135294193Y-83508777D01*
X135253756Y-83493112D01*
X135052547Y-83455500D01*
X134847853Y-83455500D01*
X134646644Y-83493112D01*
X134646641Y-83493112D01*
X134646641Y-83493113D01*
X134455775Y-83567054D01*
X134455769Y-83567057D01*
X134281739Y-83674812D01*
X134281737Y-83674814D01*
X134130469Y-83812712D01*
X134007112Y-83976064D01*
X133915873Y-84159295D01*
X133859854Y-84356183D01*
X133840968Y-84559999D01*
X133840968Y-84560000D01*
X132829500Y-84560000D01*
X132829500Y-82020000D01*
X133840968Y-82020000D01*
X133859854Y-82223816D01*
X133859854Y-82223818D01*
X133859855Y-82223821D01*
X133915872Y-82420701D01*
X133915873Y-82420704D01*
X134007112Y-82603935D01*
X134130469Y-82767287D01*
X134281737Y-82905185D01*
X134281739Y-82905187D01*
X134455769Y-83012942D01*
X134455775Y-83012945D01*
X134456888Y-83013376D01*
X134646644Y-83086888D01*
X134847853Y-83124500D01*
X134847856Y-83124500D01*
X135052544Y-83124500D01*
X135052547Y-83124500D01*
X135253756Y-83086888D01*
X135444627Y-83012944D01*
X135618662Y-82905186D01*
X135769932Y-82767285D01*
X135893288Y-82603935D01*
X135984528Y-82420701D01*
X136040545Y-82223821D01*
X136059432Y-82020000D01*
X136059357Y-82019196D01*
X136048810Y-81905375D01*
X136040545Y-81816179D01*
X135984528Y-81619299D01*
X135893288Y-81436065D01*
X135769932Y-81272715D01*
X135769930Y-81272712D01*
X135618662Y-81134814D01*
X135618660Y-81134812D01*
X135444630Y-81027057D01*
X135444624Y-81027054D01*
X135294193Y-80968777D01*
X135253756Y-80953112D01*
X135052547Y-80915500D01*
X134847853Y-80915500D01*
X134646644Y-80953112D01*
X134646641Y-80953112D01*
X134646641Y-80953113D01*
X134455775Y-81027054D01*
X134455769Y-81027057D01*
X134281739Y-81134812D01*
X134281737Y-81134814D01*
X134130469Y-81272712D01*
X134007112Y-81436064D01*
X133915873Y-81619295D01*
X133894007Y-81696147D01*
X133869584Y-81781987D01*
X133859854Y-81816183D01*
X133840968Y-82019999D01*
X133840968Y-82020000D01*
X132829500Y-82020000D01*
X132829500Y-81930820D01*
X132832139Y-81905375D01*
X132832801Y-81902211D01*
X132834419Y-81894500D01*
X132830903Y-81866292D01*
X132829977Y-81858860D01*
X132829500Y-81851184D01*
X132829500Y-81847159D01*
X132829500Y-81847157D01*
X132825824Y-81825128D01*
X132825458Y-81822613D01*
X132823627Y-81807923D01*
X132818752Y-81768818D01*
X132818751Y-81768816D01*
X132818751Y-81768814D01*
X132816489Y-81761218D01*
X132813900Y-81753673D01*
X132799874Y-81727756D01*
X132788098Y-81705996D01*
X132786938Y-81703742D01*
X132783225Y-81696147D01*
X132763126Y-81655032D01*
X132763124Y-81655030D01*
X132763124Y-81655029D01*
X132758541Y-81648609D01*
X132753620Y-81642286D01*
X132753619Y-81642284D01*
X132750023Y-81638974D01*
X132713758Y-81605589D01*
X132711932Y-81603838D01*
X131976671Y-80868577D01*
X131960543Y-80848716D01*
X131954470Y-80839421D01*
X131954469Y-80839420D01*
X131954468Y-80839418D01*
X131926118Y-80817352D01*
X131920372Y-80812278D01*
X131917513Y-80809419D01*
X131899333Y-80796438D01*
X131897305Y-80794926D01*
X131854519Y-80761625D01*
X131854517Y-80761624D01*
X131847527Y-80757841D01*
X131840379Y-80754347D01*
X131788438Y-80738883D01*
X131785997Y-80738101D01*
X131734726Y-80720499D01*
X131726916Y-80719196D01*
X131718986Y-80718207D01*
X131667746Y-80720327D01*
X131664854Y-80720447D01*
X131662295Y-80720500D01*
X130300586Y-80720500D01*
X130233547Y-80700815D01*
X130214687Y-80684093D01*
X130213996Y-80684830D01*
X130087766Y-80566292D01*
X130087758Y-80566286D01*
X129942856Y-80486626D01*
X129942848Y-80486623D01*
X129782684Y-80445500D01*
X129782683Y-80445500D01*
X127958822Y-80445500D01*
X127958812Y-80445500D01*
X127835939Y-80461024D01*
X127835936Y-80461024D01*
X127682187Y-80521898D01*
X127682178Y-80521903D01*
X127548405Y-80619095D01*
X127442993Y-80746516D01*
X127382849Y-80874330D01*
X127372586Y-80896141D01*
X127341600Y-81058577D01*
X127341600Y-81058579D01*
X127341600Y-81058580D01*
X127351983Y-81223615D01*
X127351983Y-81223618D01*
X127403084Y-81380887D01*
X127491691Y-81520510D01*
X127612233Y-81633707D01*
X127612235Y-81633708D01*
X127612237Y-81633710D01*
X127621816Y-81638976D01*
X127628279Y-81642529D01*
X127677544Y-81692075D01*
X127692201Y-81760390D01*
X127667598Y-81825784D01*
X127641429Y-81851510D01*
X127548404Y-81919096D01*
X127442993Y-82046516D01*
X127372586Y-82196140D01*
X127372586Y-82196141D01*
X127341600Y-82358577D01*
X127341600Y-82358579D01*
X127341600Y-82358580D01*
X127351983Y-82523615D01*
X127351983Y-82523618D01*
X127403084Y-82680887D01*
X127491691Y-82820510D01*
X127612233Y-82933707D01*
X127612241Y-82933713D01*
X127757143Y-83013373D01*
X127757147Y-83013375D01*
X127917317Y-83054500D01*
X127917321Y-83054500D01*
X129741176Y-83054500D01*
X129741178Y-83054500D01*
X129741183Y-83054499D01*
X129741187Y-83054499D01*
X129754510Y-83052815D01*
X129864061Y-83038976D01*
X130017814Y-82978101D01*
X130151597Y-82880902D01*
X130179991Y-82846580D01*
X130198292Y-82824459D01*
X130256192Y-82785352D01*
X130293835Y-82779500D01*
X130730844Y-82779500D01*
X130797883Y-82799185D01*
X130818525Y-82815819D01*
X131054581Y-83051874D01*
X131088066Y-83113197D01*
X131090900Y-83139555D01*
X131090900Y-88432364D01*
X131071215Y-88499403D01*
X131018411Y-88545158D01*
X130949253Y-88555102D01*
X130942710Y-88553982D01*
X130929162Y-88551287D01*
X130900067Y-88545500D01*
X130900065Y-88545500D01*
X130199936Y-88545500D01*
X130125698Y-88560266D01*
X130125696Y-88560267D01*
X130075193Y-88594012D01*
X130008516Y-88614889D01*
X129997252Y-88613823D01*
X129997246Y-88613980D01*
X129986984Y-88613555D01*
X129986983Y-88613555D01*
X129986981Y-88613555D01*
X129951134Y-88618023D01*
X129943458Y-88618500D01*
X129939386Y-88618500D01*
X129917259Y-88622192D01*
X129914725Y-88622561D01*
X129860641Y-88629303D01*
X129853002Y-88631576D01*
X129845410Y-88634183D01*
X129797501Y-88660109D01*
X129795225Y-88661281D01*
X129746254Y-88685222D01*
X129739753Y-88689863D01*
X129733439Y-88694778D01*
X129696527Y-88734874D01*
X129694754Y-88736722D01*
X128773909Y-89657566D01*
X128754054Y-89673691D01*
X128744645Y-89679838D01*
X128744641Y-89679842D01*
X128722456Y-89708344D01*
X128717378Y-89714096D01*
X128714498Y-89716977D01*
X128714483Y-89716994D01*
X128701440Y-89735260D01*
X128699912Y-89737310D01*
X128666442Y-89780313D01*
X128662635Y-89787347D01*
X128659124Y-89794531D01*
X128643569Y-89846779D01*
X128642787Y-89849219D01*
X128625099Y-89900738D01*
X128623785Y-89908614D01*
X128622794Y-89916562D01*
X128625047Y-89971001D01*
X128625100Y-89973564D01*
X128625100Y-100196814D01*
X128605415Y-100263853D01*
X128588781Y-100284495D01*
X127316096Y-101557181D01*
X127254773Y-101590666D01*
X127228415Y-101593500D01*
X124920667Y-101593500D01*
X124853628Y-101573815D01*
X124809667Y-101524772D01*
X124771094Y-101447309D01*
X124743088Y-101391065D01*
X124646262Y-101262846D01*
X124619730Y-101227712D01*
X124468462Y-101089814D01*
X124468460Y-101089812D01*
X124294430Y-100982057D01*
X124294424Y-100982054D01*
X124119263Y-100914197D01*
X124103556Y-100908112D01*
X123902347Y-100870500D01*
X123697653Y-100870500D01*
X123496444Y-100908112D01*
X123496441Y-100908112D01*
X123496441Y-100908113D01*
X123305575Y-100982054D01*
X123305569Y-100982057D01*
X123131539Y-101089812D01*
X123131537Y-101089814D01*
X122980269Y-101227712D01*
X122856912Y-101391064D01*
X122765673Y-101574295D01*
X122709654Y-101771183D01*
X122690768Y-101974999D01*
X122690768Y-101975000D01*
X122369232Y-101975000D01*
X122350345Y-101771179D01*
X122294328Y-101574299D01*
X122203088Y-101391065D01*
X122106262Y-101262846D01*
X122079730Y-101227712D01*
X121928462Y-101089814D01*
X121928460Y-101089812D01*
X121754430Y-100982057D01*
X121754424Y-100982054D01*
X121579263Y-100914197D01*
X121563556Y-100908112D01*
X121362347Y-100870500D01*
X121157653Y-100870500D01*
X120956444Y-100908112D01*
X120956441Y-100908112D01*
X120956441Y-100908113D01*
X120765575Y-100982054D01*
X120765569Y-100982057D01*
X120591539Y-101089812D01*
X120591537Y-101089814D01*
X120440269Y-101227712D01*
X120316912Y-101391064D01*
X120225673Y-101574295D01*
X120169654Y-101771183D01*
X120150768Y-101974999D01*
X120150768Y-101975000D01*
X119220000Y-101975000D01*
X119220000Y-101903111D01*
X119179493Y-101765156D01*
X119153686Y-101725000D01*
X119796687Y-101725000D01*
X119796687Y-101724999D01*
X119753859Y-101574477D01*
X119662660Y-101391328D01*
X119539359Y-101228050D01*
X119388163Y-101090217D01*
X119388157Y-101090213D01*
X119214206Y-100982507D01*
X119214200Y-100982504D01*
X119023417Y-100908595D01*
X119023407Y-100908592D01*
X118970001Y-100898608D01*
X118970000Y-100898609D01*
X118970000Y-101539498D01*
X118862315Y-101490320D01*
X118755763Y-101475000D01*
X118684237Y-101475000D01*
X118577685Y-101490320D01*
X118469999Y-101539498D01*
X118469999Y-100898609D01*
X118469998Y-100898608D01*
X118416592Y-100908592D01*
X118416582Y-100908595D01*
X118225799Y-100982504D01*
X118225793Y-100982507D01*
X118051842Y-101090213D01*
X118051836Y-101090217D01*
X117900640Y-101228050D01*
X117777339Y-101391328D01*
X117686140Y-101574477D01*
X117643312Y-101724999D01*
X117257206Y-101724999D01*
X117214328Y-101574299D01*
X117123088Y-101391065D01*
X117026262Y-101262846D01*
X116999730Y-101227712D01*
X116848463Y-101089815D01*
X116848462Y-101089814D01*
X116782185Y-101048777D01*
X116674428Y-100982056D01*
X116638705Y-100968217D01*
X116583304Y-100925644D01*
X116559714Y-100859877D01*
X116559500Y-100852591D01*
X116559500Y-100103220D01*
X116562139Y-100077775D01*
X116562801Y-100074611D01*
X116564419Y-100066900D01*
X116562312Y-100049999D01*
X116559977Y-100031260D01*
X116559500Y-100023584D01*
X116559500Y-100019559D01*
X116555827Y-99997549D01*
X116555458Y-99995013D01*
X116553635Y-99980391D01*
X116548752Y-99941218D01*
X116548751Y-99941216D01*
X116548751Y-99941214D01*
X116546489Y-99933618D01*
X116543900Y-99926073D01*
X116543899Y-99926072D01*
X116518098Y-99878396D01*
X116516938Y-99876142D01*
X116493126Y-99827432D01*
X116493124Y-99827430D01*
X116493124Y-99827429D01*
X116488541Y-99821009D01*
X116483620Y-99814686D01*
X116483619Y-99814684D01*
X116478045Y-99809553D01*
X116443758Y-99777989D01*
X116441932Y-99776238D01*
X115367271Y-98701577D01*
X115351143Y-98681716D01*
X115345070Y-98672421D01*
X115345069Y-98672420D01*
X115345068Y-98672418D01*
X115316718Y-98650352D01*
X115310972Y-98645278D01*
X115308113Y-98642419D01*
X115289933Y-98629438D01*
X115287905Y-98627926D01*
X115245119Y-98594625D01*
X115245117Y-98594624D01*
X115238127Y-98590841D01*
X115230979Y-98587347D01*
X115179038Y-98571883D01*
X115176597Y-98571101D01*
X115125326Y-98553499D01*
X115117516Y-98552196D01*
X115109586Y-98551207D01*
X115058346Y-98553327D01*
X115055454Y-98553447D01*
X115052895Y-98553500D01*
X98938356Y-98553500D01*
X98871317Y-98533815D01*
X98850675Y-98517181D01*
X95024323Y-94690829D01*
X94990838Y-94629506D01*
X94988908Y-94588204D01*
X94994907Y-94538800D01*
X94975749Y-94381018D01*
X94919387Y-94232405D01*
X94829098Y-94101599D01*
X94829095Y-94101596D01*
X94829093Y-94101594D01*
X94710130Y-93996201D01*
X94569391Y-93922336D01*
X94415072Y-93884300D01*
X94415071Y-93884300D01*
X94256129Y-93884300D01*
X94256128Y-93884300D01*
X94101808Y-93922336D01*
X93961069Y-93996201D01*
X93842106Y-94101594D01*
X93842100Y-94101601D01*
X93751814Y-94232402D01*
X93695450Y-94381018D01*
X93676293Y-94538799D01*
X93676293Y-94538800D01*
X93695450Y-94696581D01*
X93717855Y-94755657D01*
X93745978Y-94829809D01*
X93751345Y-94899471D01*
X93718198Y-94960978D01*
X93657060Y-94994799D01*
X93587342Y-94990198D01*
X93542355Y-94961461D01*
X91553319Y-92972424D01*
X91519834Y-92911101D01*
X91517000Y-92884743D01*
X91517000Y-83670739D01*
X91536685Y-83603700D01*
X91589489Y-83557945D01*
X91597661Y-83554559D01*
X91613215Y-83548758D01*
X91726474Y-83463974D01*
X91811258Y-83350715D01*
X91821720Y-83322663D01*
X91863591Y-83266733D01*
X91929055Y-83242316D01*
X91937901Y-83242000D01*
X91972780Y-83242000D01*
X91998225Y-83244639D01*
X92002120Y-83245455D01*
X92009100Y-83246919D01*
X92027616Y-83244610D01*
X92044740Y-83242477D01*
X92052416Y-83242000D01*
X92056440Y-83242000D01*
X92056443Y-83242000D01*
X92078497Y-83238319D01*
X92080957Y-83237961D01*
X92134783Y-83231252D01*
X92142391Y-83228986D01*
X92149923Y-83226400D01*
X92149927Y-83226400D01*
X92197592Y-83200604D01*
X92199846Y-83199443D01*
X92248568Y-83175626D01*
X92248570Y-83175623D01*
X92248572Y-83175623D01*
X92255001Y-83171033D01*
X92261309Y-83166122D01*
X92261316Y-83166119D01*
X92298035Y-83126229D01*
X92299737Y-83124455D01*
X92883374Y-82540819D01*
X92944698Y-82507334D01*
X92971056Y-82504500D01*
X93556839Y-82504500D01*
X93651552Y-82489499D01*
X93651553Y-82489498D01*
X93651555Y-82489498D01*
X93657885Y-82486272D01*
X93726552Y-82473373D01*
X93791293Y-82499647D01*
X93831553Y-82556752D01*
X93836656Y-82616152D01*
X93820499Y-82718159D01*
X93820500Y-83081839D01*
X93835500Y-83176552D01*
X93847449Y-83200002D01*
X93893674Y-83290723D01*
X93893676Y-83290725D01*
X93893678Y-83290728D01*
X93984271Y-83381321D01*
X93984273Y-83381322D01*
X93984277Y-83381326D01*
X94098445Y-83439498D01*
X94098446Y-83439498D01*
X94098448Y-83439499D01*
X94098447Y-83439499D01*
X94197978Y-83455263D01*
X94197660Y-83457267D01*
X94254965Y-83479073D01*
X94296466Y-83535282D01*
X94304000Y-83577847D01*
X94303999Y-85575101D01*
X94301167Y-85601450D01*
X94300080Y-85606445D01*
X94300080Y-85606451D01*
X94303842Y-85659049D01*
X94304000Y-85663474D01*
X94304000Y-85679469D01*
X94306274Y-85695291D01*
X94306747Y-85699688D01*
X94310511Y-85752300D01*
X94310513Y-85752310D01*
X94312299Y-85757098D01*
X94318853Y-85782774D01*
X94319581Y-85787834D01*
X94337634Y-85827367D01*
X94341486Y-85835801D01*
X94343179Y-85839888D01*
X94361611Y-85889304D01*
X94364675Y-85893397D01*
X94378202Y-85916196D01*
X94380322Y-85920840D01*
X94380327Y-85920847D01*
X94414852Y-85960690D01*
X94417629Y-85964137D01*
X94427215Y-85976943D01*
X94427218Y-85976945D01*
X94427220Y-85976948D01*
X94438539Y-85988267D01*
X94441545Y-85991496D01*
X94476075Y-86031347D01*
X94476078Y-86031349D01*
X94476079Y-86031350D01*
X94480377Y-86034112D01*
X94501018Y-86050746D01*
X95934553Y-87484281D01*
X95951188Y-87504923D01*
X95952954Y-87507672D01*
X95953950Y-87509221D01*
X95965468Y-87519201D01*
X95993803Y-87543754D01*
X95997030Y-87546758D01*
X96008352Y-87558080D01*
X96018239Y-87565481D01*
X96021163Y-87567670D01*
X96024601Y-87570441D01*
X96064457Y-87604976D01*
X96067885Y-87606541D01*
X96069114Y-87607103D01*
X96091904Y-87620625D01*
X96095996Y-87623688D01*
X96145399Y-87642114D01*
X96149487Y-87643807D01*
X96197466Y-87665719D01*
X96202524Y-87666446D01*
X96228215Y-87673003D01*
X96232999Y-87674788D01*
X96285594Y-87678549D01*
X96289973Y-87679019D01*
X96305832Y-87681300D01*
X96321838Y-87681300D01*
X96326260Y-87681457D01*
X96378848Y-87685219D01*
X96383843Y-87684132D01*
X96410193Y-87681300D01*
X108856410Y-87681300D01*
X108923449Y-87700985D01*
X108944091Y-87717619D01*
X109255181Y-88028708D01*
X109288666Y-88090031D01*
X109291500Y-88116389D01*
X109291500Y-88587247D01*
X109271815Y-88654286D01*
X109267821Y-88660128D01*
X109266292Y-88662231D01*
X109257468Y-88678283D01*
X109207921Y-88727546D01*
X109139605Y-88742201D01*
X109074211Y-88717596D01*
X109048489Y-88691428D01*
X108980904Y-88598405D01*
X108980902Y-88598403D01*
X108853486Y-88492995D01*
X108853484Y-88492994D01*
X108853483Y-88492993D01*
X108703859Y-88422586D01*
X108703859Y-88422585D01*
X108541423Y-88391600D01*
X108541419Y-88391600D01*
X108376384Y-88401983D01*
X108376381Y-88401983D01*
X108219112Y-88453084D01*
X108079489Y-88541690D01*
X108079489Y-88541691D01*
X107966292Y-88662233D01*
X107966288Y-88662238D01*
X107957468Y-88678283D01*
X107907921Y-88727546D01*
X107839605Y-88742201D01*
X107774211Y-88717596D01*
X107748489Y-88691428D01*
X107680904Y-88598405D01*
X107680902Y-88598403D01*
X107553486Y-88492995D01*
X107553484Y-88492994D01*
X107553483Y-88492993D01*
X107403859Y-88422586D01*
X107403859Y-88422585D01*
X107241423Y-88391600D01*
X107241419Y-88391600D01*
X107076384Y-88401983D01*
X107076381Y-88401983D01*
X106919112Y-88453084D01*
X106779489Y-88541690D01*
X106779489Y-88541691D01*
X106666292Y-88662233D01*
X106666288Y-88662238D01*
X106657468Y-88678283D01*
X106607921Y-88727546D01*
X106539605Y-88742201D01*
X106474211Y-88717596D01*
X106448489Y-88691428D01*
X106380904Y-88598405D01*
X106380902Y-88598403D01*
X106253486Y-88492995D01*
X106253484Y-88492994D01*
X106253483Y-88492993D01*
X106103859Y-88422586D01*
X106103859Y-88422585D01*
X105941423Y-88391600D01*
X105941419Y-88391600D01*
X105776384Y-88401983D01*
X105776381Y-88401983D01*
X105619112Y-88453084D01*
X105479489Y-88541690D01*
X105479489Y-88541691D01*
X105366292Y-88662233D01*
X105366288Y-88662238D01*
X105357468Y-88678283D01*
X105307921Y-88727546D01*
X105239605Y-88742201D01*
X105174211Y-88717596D01*
X105148489Y-88691428D01*
X105080904Y-88598405D01*
X105080902Y-88598403D01*
X104953486Y-88492995D01*
X104953484Y-88492994D01*
X104953483Y-88492993D01*
X104803859Y-88422586D01*
X104803859Y-88422585D01*
X104641423Y-88391600D01*
X104641419Y-88391600D01*
X104476384Y-88401983D01*
X104476381Y-88401983D01*
X104319112Y-88453084D01*
X104179489Y-88541690D01*
X104179489Y-88541691D01*
X104066292Y-88662233D01*
X104066288Y-88662238D01*
X104057468Y-88678283D01*
X104007921Y-88727546D01*
X103939605Y-88742201D01*
X103874211Y-88717596D01*
X103848489Y-88691428D01*
X103780904Y-88598405D01*
X103780902Y-88598403D01*
X103653486Y-88492995D01*
X103653484Y-88492994D01*
X103653483Y-88492993D01*
X103503859Y-88422586D01*
X103503859Y-88422585D01*
X103341423Y-88391600D01*
X103341419Y-88391600D01*
X103176384Y-88401983D01*
X103176381Y-88401983D01*
X103019112Y-88453084D01*
X102879489Y-88541690D01*
X102879489Y-88541691D01*
X102766292Y-88662233D01*
X102766288Y-88662238D01*
X102757468Y-88678283D01*
X102707921Y-88727546D01*
X102639605Y-88742201D01*
X102574211Y-88717596D01*
X102548489Y-88691428D01*
X102480904Y-88598405D01*
X102480902Y-88598403D01*
X102353486Y-88492995D01*
X102353484Y-88492994D01*
X102353483Y-88492993D01*
X102203859Y-88422586D01*
X102203859Y-88422585D01*
X102041423Y-88391600D01*
X102041419Y-88391600D01*
X101876384Y-88401983D01*
X101876381Y-88401983D01*
X101719112Y-88453084D01*
X101579489Y-88541690D01*
X101579489Y-88541691D01*
X101466292Y-88662233D01*
X101466286Y-88662241D01*
X101386626Y-88807143D01*
X101386623Y-88807151D01*
X101345500Y-88967315D01*
X101345500Y-90791187D01*
X101361024Y-90914060D01*
X101361024Y-90914063D01*
X101421898Y-91067812D01*
X101421903Y-91067821D01*
X101519095Y-91201594D01*
X101519097Y-91201595D01*
X101519098Y-91201597D01*
X101646514Y-91307005D01*
X101796141Y-91377414D01*
X101958577Y-91408400D01*
X102123616Y-91398017D01*
X102280887Y-91346916D01*
X102420510Y-91258309D01*
X102533710Y-91137763D01*
X102542529Y-91121720D01*
X102592073Y-91072456D01*
X102660387Y-91057797D01*
X102725783Y-91082399D01*
X102751510Y-91108571D01*
X102819095Y-91201594D01*
X102819097Y-91201595D01*
X102819098Y-91201597D01*
X102946514Y-91307005D01*
X103096141Y-91377414D01*
X103258577Y-91408400D01*
X103423616Y-91398017D01*
X103580887Y-91346916D01*
X103720510Y-91258309D01*
X103833710Y-91137763D01*
X103842529Y-91121720D01*
X103892073Y-91072456D01*
X103960387Y-91057797D01*
X104025783Y-91082399D01*
X104051510Y-91108571D01*
X104119095Y-91201594D01*
X104119097Y-91201595D01*
X104119098Y-91201597D01*
X104246514Y-91307005D01*
X104396141Y-91377414D01*
X104558577Y-91408400D01*
X104723616Y-91398017D01*
X104880887Y-91346916D01*
X105020510Y-91258309D01*
X105133710Y-91137763D01*
X105142529Y-91121720D01*
X105192073Y-91072456D01*
X105260387Y-91057797D01*
X105325783Y-91082399D01*
X105351510Y-91108571D01*
X105419095Y-91201594D01*
X105419097Y-91201595D01*
X105419098Y-91201597D01*
X105546514Y-91307005D01*
X105696141Y-91377414D01*
X105858577Y-91408400D01*
X106023616Y-91398017D01*
X106180887Y-91346916D01*
X106320510Y-91258309D01*
X106433710Y-91137763D01*
X106442529Y-91121720D01*
X106492073Y-91072456D01*
X106560387Y-91057797D01*
X106625783Y-91082399D01*
X106651510Y-91108571D01*
X106719095Y-91201594D01*
X106719097Y-91201595D01*
X106719098Y-91201597D01*
X106846514Y-91307005D01*
X106996141Y-91377414D01*
X107068136Y-91391147D01*
X107130298Y-91423045D01*
X107165349Y-91483487D01*
X107168900Y-91512951D01*
X107168900Y-94471500D01*
X107149215Y-94538539D01*
X107096411Y-94584294D01*
X107044900Y-94595500D01*
X106548336Y-94595500D01*
X106474098Y-94610266D01*
X106389915Y-94666515D01*
X106333666Y-94750699D01*
X106333664Y-94750703D01*
X106318900Y-94824929D01*
X106318900Y-94824931D01*
X106318900Y-94824933D01*
X106318900Y-95040306D01*
X106318901Y-95196500D01*
X106299217Y-95263539D01*
X106246413Y-95309294D01*
X106194901Y-95320500D01*
X105933953Y-95320500D01*
X105866914Y-95300815D01*
X105821159Y-95248011D01*
X105811215Y-95178853D01*
X105840240Y-95115297D01*
X105859643Y-95097233D01*
X105860665Y-95096468D01*
X105887374Y-95076474D01*
X105972158Y-94963215D01*
X106021600Y-94830657D01*
X106027100Y-94779500D01*
X106027899Y-94772073D01*
X106027899Y-94772066D01*
X106027900Y-94772057D01*
X106027899Y-94102944D01*
X106021600Y-94044343D01*
X105977391Y-93925815D01*
X105972160Y-93911790D01*
X105972159Y-93911788D01*
X105972158Y-93911785D01*
X105887374Y-93798526D01*
X105774115Y-93713742D01*
X105721435Y-93694093D01*
X105641559Y-93664300D01*
X105582965Y-93658000D01*
X105013846Y-93658000D01*
X105013837Y-93658001D01*
X104955240Y-93664300D01*
X104822690Y-93713739D01*
X104822681Y-93713744D01*
X104709425Y-93798526D01*
X104624644Y-93911780D01*
X104624642Y-93911784D01*
X104624642Y-93911785D01*
X104614179Y-93939836D01*
X104572309Y-93995767D01*
X104506845Y-94020184D01*
X104497999Y-94020500D01*
X104398801Y-94020500D01*
X104331762Y-94000815D01*
X104286007Y-93948011D01*
X104282627Y-93939854D01*
X104272158Y-93911785D01*
X104272155Y-93911781D01*
X104272155Y-93911780D01*
X104187374Y-93798526D01*
X104074118Y-93713744D01*
X104074117Y-93713743D01*
X104074115Y-93713742D01*
X104021435Y-93694093D01*
X103941559Y-93664300D01*
X103882965Y-93658000D01*
X103313846Y-93658000D01*
X103313837Y-93658001D01*
X103255240Y-93664300D01*
X103122690Y-93713739D01*
X103122681Y-93713744D01*
X103009426Y-93798526D01*
X102924644Y-93911781D01*
X102924641Y-93911788D01*
X102875200Y-94044339D01*
X102875200Y-94044341D01*
X102868900Y-94102926D01*
X102868900Y-94697053D01*
X102868901Y-94697062D01*
X102875200Y-94755659D01*
X102924639Y-94888209D01*
X102924641Y-94888213D01*
X102924642Y-94888215D01*
X103009426Y-95001474D01*
X103122685Y-95086258D01*
X103255243Y-95135700D01*
X103313843Y-95142000D01*
X103882956Y-95141999D01*
X103941557Y-95135700D01*
X104074115Y-95086258D01*
X104187374Y-95001474D01*
X104272158Y-94888215D01*
X104282620Y-94860163D01*
X104324491Y-94804233D01*
X104389955Y-94779816D01*
X104398801Y-94779500D01*
X104470025Y-94779500D01*
X104537064Y-94799185D01*
X104582819Y-94851989D01*
X104586200Y-94860151D01*
X104624642Y-94963215D01*
X104624643Y-94963217D01*
X104624644Y-94963218D01*
X104634213Y-94976001D01*
X104709426Y-95076474D01*
X104822685Y-95161258D01*
X104869859Y-95178853D01*
X104916685Y-95196319D01*
X104972618Y-95238190D01*
X104997034Y-95303655D01*
X104982182Y-95371928D01*
X104932776Y-95421333D01*
X104916685Y-95428681D01*
X104840373Y-95457144D01*
X104822685Y-95463742D01*
X104822684Y-95463742D01*
X104822681Y-95463744D01*
X104709426Y-95548526D01*
X104624644Y-95661781D01*
X104624641Y-95661788D01*
X104575200Y-95794339D01*
X104575200Y-95794341D01*
X104568900Y-95852926D01*
X104568900Y-95856182D01*
X104549215Y-95923221D01*
X104496411Y-95968976D01*
X104427253Y-95978920D01*
X104363697Y-95949895D01*
X104325923Y-95891117D01*
X104321610Y-95869435D01*
X104321608Y-95869421D01*
X104321600Y-95869343D01*
X104302487Y-95818100D01*
X104272160Y-95736790D01*
X104272159Y-95736789D01*
X104272158Y-95736785D01*
X104187374Y-95623526D01*
X104074115Y-95538742D01*
X104021435Y-95519093D01*
X103941559Y-95489300D01*
X103882965Y-95483000D01*
X103313846Y-95483000D01*
X103313837Y-95483001D01*
X103255240Y-95489300D01*
X103122690Y-95538739D01*
X103122681Y-95538744D01*
X103034946Y-95604421D01*
X102969482Y-95628837D01*
X102903014Y-95614951D01*
X102890791Y-95608536D01*
X102736472Y-95570500D01*
X102736471Y-95570500D01*
X102577529Y-95570500D01*
X102577528Y-95570500D01*
X102423208Y-95608536D01*
X102282469Y-95682401D01*
X102163506Y-95787794D01*
X102163500Y-95787801D01*
X102073214Y-95918602D01*
X102016850Y-96067218D01*
X101997693Y-96224999D01*
X101997693Y-96225000D01*
X102016850Y-96382781D01*
X102052494Y-96476763D01*
X102072524Y-96529579D01*
X102073214Y-96531397D01*
X102141488Y-96630308D01*
X102163502Y-96662201D01*
X102163504Y-96662203D01*
X102163506Y-96662205D01*
X102282469Y-96767598D01*
X102282471Y-96767599D01*
X102423207Y-96841463D01*
X102500368Y-96860481D01*
X102577528Y-96879500D01*
X102577529Y-96879500D01*
X102736472Y-96879500D01*
X102787911Y-96866820D01*
X102890793Y-96841463D01*
X102903010Y-96835050D01*
X102971517Y-96821324D01*
X103034945Y-96845577D01*
X103122685Y-96911258D01*
X103255243Y-96960700D01*
X103313843Y-96967000D01*
X103882956Y-96966999D01*
X103941557Y-96960700D01*
X104074115Y-96911258D01*
X104187374Y-96826474D01*
X104272158Y-96713215D01*
X104321600Y-96580657D01*
X104324208Y-96556397D01*
X104325111Y-96548002D01*
X104351849Y-96483451D01*
X104409241Y-96443603D01*
X104479067Y-96441110D01*
X104539155Y-96476763D01*
X104570430Y-96539242D01*
X104571690Y-96548005D01*
X104575200Y-96580659D01*
X104624639Y-96713209D01*
X104624644Y-96713218D01*
X104638002Y-96731062D01*
X104709426Y-96826474D01*
X104822685Y-96911258D01*
X104955243Y-96960700D01*
X105013843Y-96967000D01*
X105582956Y-96966999D01*
X105641557Y-96960700D01*
X105774115Y-96911258D01*
X105887374Y-96826474D01*
X105972158Y-96713215D01*
X106021600Y-96580657D01*
X106025111Y-96548002D01*
X106027899Y-96522073D01*
X106027899Y-96522066D01*
X106027900Y-96522057D01*
X106027899Y-96203499D01*
X106047583Y-96136461D01*
X106100387Y-96090706D01*
X106151899Y-96079500D01*
X106346338Y-96079500D01*
X106413377Y-96099185D01*
X106415229Y-96100398D01*
X106474099Y-96139734D01*
X106474102Y-96139734D01*
X106474103Y-96139735D01*
X106499066Y-96144700D01*
X106548333Y-96154500D01*
X107248466Y-96154499D01*
X107322701Y-96139734D01*
X107406884Y-96083484D01*
X107463134Y-95999301D01*
X107477900Y-95925067D01*
X107477899Y-95474934D01*
X107477899Y-95474933D01*
X107477899Y-95468843D01*
X107480574Y-95468843D01*
X107491428Y-95411565D01*
X107529768Y-95367123D01*
X107535361Y-95363129D01*
X107535368Y-95363126D01*
X107535373Y-95363120D01*
X107541821Y-95358517D01*
X107548109Y-95353622D01*
X107548116Y-95353619D01*
X107584835Y-95313729D01*
X107586537Y-95311955D01*
X107773420Y-95125072D01*
X107834741Y-95091589D01*
X107904433Y-95096573D01*
X107948780Y-95125074D01*
X108105128Y-95281422D01*
X108121252Y-95301277D01*
X108127332Y-95310582D01*
X108155685Y-95332650D01*
X108161436Y-95337730D01*
X108164287Y-95340581D01*
X108164290Y-95340584D01*
X108182447Y-95353548D01*
X108184500Y-95355079D01*
X108215968Y-95379570D01*
X108227281Y-95388375D01*
X108227285Y-95388376D01*
X108234274Y-95392158D01*
X108241415Y-95395649D01*
X108241421Y-95395653D01*
X108241427Y-95395654D01*
X108245838Y-95397811D01*
X108279180Y-95426948D01*
X108281280Y-95424849D01*
X108289914Y-95433483D01*
X108301434Y-95441180D01*
X108374099Y-95489734D01*
X108374102Y-95489734D01*
X108374103Y-95489735D01*
X108399066Y-95494700D01*
X108448333Y-95504500D01*
X108944900Y-95504499D01*
X109011939Y-95524183D01*
X109057694Y-95576987D01*
X109068900Y-95628500D01*
X109068899Y-95781780D01*
X109066261Y-95807221D01*
X109063980Y-95818098D01*
X109068423Y-95853739D01*
X109068900Y-95861416D01*
X109068900Y-95865443D01*
X109072570Y-95887438D01*
X109072939Y-95889971D01*
X109079647Y-95943782D01*
X109081905Y-95951367D01*
X109084501Y-95958930D01*
X109089938Y-95968976D01*
X109110304Y-96006610D01*
X109111461Y-96008859D01*
X109135274Y-96057569D01*
X109139872Y-96064008D01*
X109144781Y-96070316D01*
X109184668Y-96107035D01*
X109186489Y-96108783D01*
X109509128Y-96431422D01*
X109525252Y-96451277D01*
X109531332Y-96460582D01*
X109531335Y-96460584D01*
X109537172Y-96466925D01*
X109568096Y-96529579D01*
X109569234Y-96537657D01*
X109575200Y-96593159D01*
X109624639Y-96725709D01*
X109624644Y-96725718D01*
X109645598Y-96753709D01*
X109709426Y-96838974D01*
X109822685Y-96923758D01*
X109955243Y-96973200D01*
X110013843Y-96979500D01*
X110582956Y-96979499D01*
X110641557Y-96973200D01*
X110774115Y-96923758D01*
X110887374Y-96838974D01*
X110972158Y-96725715D01*
X110986881Y-96686239D01*
X111028751Y-96630308D01*
X111094216Y-96605891D01*
X111162489Y-96620743D01*
X111211894Y-96670148D01*
X111219243Y-96686240D01*
X111224640Y-96700711D01*
X111224644Y-96700718D01*
X111243352Y-96725709D01*
X111309426Y-96813974D01*
X111422685Y-96898758D01*
X111555243Y-96948200D01*
X111613843Y-96954500D01*
X112182956Y-96954499D01*
X112241557Y-96948200D01*
X112374115Y-96898758D01*
X112487374Y-96813974D01*
X112487379Y-96813966D01*
X112492164Y-96809183D01*
X112553485Y-96775695D01*
X112623177Y-96780676D01*
X112637463Y-96787057D01*
X112717307Y-96828963D01*
X112717309Y-96828963D01*
X112717310Y-96828964D01*
X112871628Y-96867000D01*
X112871629Y-96867000D01*
X113030572Y-96867000D01*
X113117483Y-96845578D01*
X113184893Y-96828963D01*
X113325629Y-96755099D01*
X113444598Y-96649701D01*
X113534887Y-96518895D01*
X113591249Y-96370282D01*
X113610407Y-96212500D01*
X113603364Y-96154499D01*
X113591249Y-96054718D01*
X113570232Y-95999301D01*
X113534887Y-95906105D01*
X113523750Y-95889971D01*
X113500884Y-95856843D01*
X113444598Y-95775299D01*
X113444595Y-95775296D01*
X113444593Y-95775294D01*
X113325630Y-95669901D01*
X113184891Y-95596036D01*
X113030572Y-95558000D01*
X113030571Y-95558000D01*
X112871629Y-95558000D01*
X112871628Y-95558000D01*
X112717308Y-95596036D01*
X112637474Y-95637936D01*
X112568965Y-95651660D01*
X112503912Y-95626168D01*
X112492168Y-95615820D01*
X112487374Y-95611026D01*
X112374118Y-95526244D01*
X112374117Y-95526243D01*
X112374115Y-95526242D01*
X112315820Y-95504499D01*
X112241559Y-95476800D01*
X112182965Y-95470500D01*
X111613846Y-95470500D01*
X111613837Y-95470501D01*
X111555240Y-95476800D01*
X111422690Y-95526239D01*
X111422681Y-95526244D01*
X111309426Y-95611026D01*
X111224644Y-95724281D01*
X111224639Y-95724290D01*
X111223902Y-95726268D01*
X111222638Y-95727955D01*
X111220393Y-95732068D01*
X111219801Y-95731744D01*
X111182026Y-95782198D01*
X111116559Y-95806609D01*
X111048288Y-95791751D01*
X110998887Y-95742341D01*
X110991547Y-95726268D01*
X110972158Y-95674285D01*
X110887374Y-95561026D01*
X110783143Y-95483000D01*
X110774118Y-95476244D01*
X110774116Y-95476243D01*
X110774115Y-95476242D01*
X110774113Y-95476241D01*
X110774111Y-95476240D01*
X110680114Y-95441180D01*
X110624181Y-95399308D01*
X110599765Y-95333843D01*
X110614618Y-95265571D01*
X110664024Y-95216166D01*
X110680102Y-95208823D01*
X110774115Y-95173758D01*
X110887374Y-95088974D01*
X110972158Y-94975715D01*
X110996607Y-94910164D01*
X111038478Y-94854233D01*
X111103943Y-94829816D01*
X111112788Y-94829500D01*
X111127976Y-94829500D01*
X111195015Y-94849185D01*
X111227243Y-94879190D01*
X111309425Y-94988973D01*
X111309426Y-94988974D01*
X111422685Y-95073758D01*
X111555243Y-95123200D01*
X111613843Y-95129500D01*
X112182956Y-95129499D01*
X112241557Y-95123200D01*
X112374115Y-95073758D01*
X112487374Y-94988974D01*
X112572158Y-94875715D01*
X112621600Y-94743157D01*
X112626556Y-94697062D01*
X112627899Y-94684573D01*
X112627899Y-94684566D01*
X112627900Y-94684557D01*
X112627899Y-94090444D01*
X112621600Y-94031843D01*
X112617369Y-94020500D01*
X112572160Y-93899290D01*
X112572158Y-93899286D01*
X112572158Y-93899285D01*
X112487374Y-93786026D01*
X112374115Y-93701242D01*
X112308584Y-93676800D01*
X112241559Y-93651800D01*
X112182965Y-93645500D01*
X111613846Y-93645500D01*
X111613837Y-93645501D01*
X111555240Y-93651800D01*
X111422690Y-93701239D01*
X111422681Y-93701244D01*
X111309426Y-93786026D01*
X111224644Y-93899281D01*
X111224641Y-93899286D01*
X111209918Y-93938760D01*
X111168045Y-93994693D01*
X111102580Y-94019108D01*
X111034308Y-94004255D01*
X110984903Y-93954848D01*
X110977555Y-93938756D01*
X110972158Y-93924285D01*
X110887374Y-93811026D01*
X110774115Y-93726242D01*
X110721435Y-93706593D01*
X110641559Y-93676800D01*
X110582965Y-93670500D01*
X110013846Y-93670500D01*
X110013837Y-93670501D01*
X109955240Y-93676800D01*
X109822690Y-93726239D01*
X109822681Y-93726244D01*
X109709426Y-93811026D01*
X109624644Y-93924281D01*
X109624640Y-93924288D01*
X109591480Y-94013192D01*
X109549608Y-94069125D01*
X109484143Y-94093541D01*
X109415870Y-94078688D01*
X109399148Y-94067719D01*
X109391319Y-94061625D01*
X109391315Y-94061623D01*
X109384327Y-94057841D01*
X109377177Y-94054346D01*
X109361044Y-94049543D01*
X109308749Y-94018380D01*
X109306885Y-94016516D01*
X109264792Y-93988391D01*
X109222701Y-93960266D01*
X109222699Y-93960265D01*
X109222696Y-93960264D01*
X109148471Y-93945500D01*
X109148467Y-93945500D01*
X108651900Y-93945500D01*
X108584861Y-93925815D01*
X108539106Y-93873011D01*
X108527900Y-93821500D01*
X108527899Y-91518857D01*
X108547584Y-91451818D01*
X108600387Y-91406063D01*
X108616371Y-91400972D01*
X108616195Y-91400428D01*
X108623614Y-91398017D01*
X108623616Y-91398017D01*
X108780887Y-91346916D01*
X108920510Y-91258309D01*
X109033710Y-91137763D01*
X109042529Y-91121720D01*
X109092073Y-91072456D01*
X109160387Y-91057797D01*
X109225783Y-91082399D01*
X109251510Y-91108571D01*
X109319095Y-91201594D01*
X109319097Y-91201595D01*
X109319098Y-91201597D01*
X109446514Y-91307005D01*
X109596141Y-91377414D01*
X109758577Y-91408400D01*
X109923616Y-91398017D01*
X110080887Y-91346916D01*
X110220510Y-91258309D01*
X110333710Y-91137763D01*
X110349759Y-91108571D01*
X110413373Y-90992856D01*
X110413375Y-90992853D01*
X110454500Y-90832683D01*
X110454500Y-90791187D01*
X116145500Y-90791187D01*
X116161024Y-90914060D01*
X116161024Y-90914063D01*
X116221898Y-91067812D01*
X116221903Y-91067821D01*
X116319095Y-91201594D01*
X116319097Y-91201595D01*
X116319098Y-91201597D01*
X116446514Y-91307005D01*
X116596141Y-91377414D01*
X116758577Y-91408400D01*
X116923616Y-91398017D01*
X117080887Y-91346916D01*
X117220510Y-91258309D01*
X117333710Y-91137763D01*
X117342529Y-91121720D01*
X117392073Y-91072456D01*
X117460387Y-91057797D01*
X117525783Y-91082399D01*
X117551510Y-91108571D01*
X117619095Y-91201594D01*
X117619097Y-91201595D01*
X117619098Y-91201597D01*
X117746514Y-91307005D01*
X117896141Y-91377414D01*
X118058577Y-91408400D01*
X118223616Y-91398017D01*
X118380887Y-91346916D01*
X118520510Y-91258309D01*
X118633710Y-91137763D01*
X118642529Y-91121720D01*
X118692073Y-91072456D01*
X118760387Y-91057797D01*
X118825783Y-91082399D01*
X118851510Y-91108571D01*
X118919095Y-91201594D01*
X118919097Y-91201595D01*
X118919098Y-91201597D01*
X119046514Y-91307005D01*
X119196141Y-91377414D01*
X119358577Y-91408400D01*
X119523616Y-91398017D01*
X119680887Y-91346916D01*
X119820510Y-91258309D01*
X119933710Y-91137763D01*
X119942529Y-91121720D01*
X119992073Y-91072456D01*
X120060387Y-91057797D01*
X120125783Y-91082399D01*
X120151510Y-91108571D01*
X120219095Y-91201594D01*
X120219097Y-91201595D01*
X120219098Y-91201597D01*
X120346514Y-91307005D01*
X120496141Y-91377414D01*
X120658577Y-91408400D01*
X120823616Y-91398017D01*
X120980887Y-91346916D01*
X121120510Y-91258309D01*
X121233710Y-91137763D01*
X121242529Y-91121720D01*
X121292073Y-91072456D01*
X121360387Y-91057797D01*
X121425783Y-91082399D01*
X121451510Y-91108571D01*
X121519095Y-91201594D01*
X121519097Y-91201595D01*
X121519098Y-91201597D01*
X121646514Y-91307005D01*
X121796141Y-91377414D01*
X121958577Y-91408400D01*
X122123616Y-91398017D01*
X122280887Y-91346916D01*
X122420510Y-91258309D01*
X122533710Y-91137763D01*
X122542529Y-91121720D01*
X122592073Y-91072456D01*
X122660387Y-91057797D01*
X122725783Y-91082399D01*
X122751510Y-91108571D01*
X122819095Y-91201594D01*
X122819097Y-91201595D01*
X122819098Y-91201597D01*
X122946514Y-91307005D01*
X123096141Y-91377414D01*
X123258577Y-91408400D01*
X123423616Y-91398017D01*
X123580887Y-91346916D01*
X123720510Y-91258309D01*
X123833710Y-91137763D01*
X123842529Y-91121720D01*
X123892073Y-91072456D01*
X123960387Y-91057797D01*
X124025783Y-91082399D01*
X124051510Y-91108571D01*
X124119095Y-91201594D01*
X124119097Y-91201595D01*
X124119098Y-91201597D01*
X124246514Y-91307005D01*
X124396141Y-91377414D01*
X124558577Y-91408400D01*
X124723616Y-91398017D01*
X124880887Y-91346916D01*
X125020510Y-91258309D01*
X125133710Y-91137763D01*
X125142529Y-91121720D01*
X125192073Y-91072456D01*
X125260387Y-91057797D01*
X125325783Y-91082399D01*
X125351510Y-91108571D01*
X125419095Y-91201594D01*
X125419097Y-91201595D01*
X125419098Y-91201597D01*
X125546514Y-91307005D01*
X125696141Y-91377414D01*
X125858577Y-91408400D01*
X126023616Y-91398017D01*
X126180887Y-91346916D01*
X126320510Y-91258309D01*
X126433710Y-91137763D01*
X126442529Y-91121720D01*
X126492073Y-91072456D01*
X126560387Y-91057797D01*
X126625783Y-91082399D01*
X126651510Y-91108571D01*
X126719095Y-91201594D01*
X126719097Y-91201595D01*
X126719098Y-91201597D01*
X126846514Y-91307005D01*
X126996141Y-91377414D01*
X127158577Y-91408400D01*
X127323616Y-91398017D01*
X127480887Y-91346916D01*
X127620510Y-91258309D01*
X127733710Y-91137763D01*
X127749759Y-91108571D01*
X127813373Y-90992856D01*
X127813375Y-90992853D01*
X127854500Y-90832683D01*
X127854500Y-89008822D01*
X127838976Y-88885939D01*
X127778101Y-88732186D01*
X127778098Y-88732182D01*
X127778096Y-88732178D01*
X127680904Y-88598405D01*
X127680902Y-88598403D01*
X127553486Y-88492995D01*
X127553484Y-88492994D01*
X127553483Y-88492993D01*
X127403859Y-88422586D01*
X127403859Y-88422585D01*
X127241423Y-88391600D01*
X127241419Y-88391600D01*
X127076384Y-88401983D01*
X127076381Y-88401983D01*
X126919112Y-88453084D01*
X126779489Y-88541690D01*
X126779489Y-88541691D01*
X126666292Y-88662233D01*
X126666288Y-88662238D01*
X126657468Y-88678283D01*
X126607921Y-88727546D01*
X126539605Y-88742201D01*
X126474211Y-88717596D01*
X126448488Y-88691427D01*
X126407796Y-88635418D01*
X126384317Y-88569612D01*
X126400143Y-88501558D01*
X126406059Y-88492102D01*
X126491587Y-88368195D01*
X126547949Y-88219582D01*
X126567107Y-88061800D01*
X126547949Y-87904018D01*
X126491587Y-87755405D01*
X126401298Y-87624599D01*
X126401295Y-87624596D01*
X126401293Y-87624594D01*
X126282330Y-87519201D01*
X126141591Y-87445336D01*
X125987266Y-87407298D01*
X125985688Y-87407107D01*
X125984615Y-87406645D01*
X125979989Y-87405505D01*
X125980178Y-87404735D01*
X125921512Y-87379482D01*
X125882459Y-87321545D01*
X125880928Y-87251692D01*
X125912959Y-87196333D01*
X126621825Y-86487467D01*
X126641679Y-86471345D01*
X126650982Y-86465268D01*
X126673040Y-86436926D01*
X126678129Y-86431163D01*
X126680981Y-86428313D01*
X126693956Y-86410140D01*
X126695489Y-86408085D01*
X126701148Y-86400813D01*
X126728775Y-86365319D01*
X126728776Y-86365313D01*
X126732559Y-86358326D01*
X126736051Y-86351182D01*
X126736051Y-86351181D01*
X126736053Y-86351179D01*
X126751519Y-86299226D01*
X126752296Y-86296802D01*
X126769900Y-86245527D01*
X126769899Y-86245520D01*
X126771205Y-86237696D01*
X126772192Y-86229789D01*
X126769953Y-86175656D01*
X126769900Y-86173094D01*
X126769900Y-85125202D01*
X126789585Y-85058163D01*
X126811673Y-85032387D01*
X126883893Y-84968405D01*
X126883898Y-84968401D01*
X126974187Y-84837595D01*
X127030549Y-84688982D01*
X127049707Y-84531200D01*
X127030549Y-84373418D01*
X126974187Y-84224805D01*
X126883898Y-84093999D01*
X126883895Y-84093996D01*
X126883893Y-84093994D01*
X126764930Y-83988601D01*
X126624191Y-83914736D01*
X126469872Y-83876700D01*
X126469871Y-83876700D01*
X126310929Y-83876700D01*
X126310928Y-83876700D01*
X126156608Y-83914736D01*
X126015869Y-83988601D01*
X125896906Y-84093994D01*
X125896900Y-84094001D01*
X125806614Y-84224802D01*
X125750250Y-84373418D01*
X125731093Y-84531199D01*
X125731093Y-84531200D01*
X125750250Y-84688980D01*
X125756512Y-84705491D01*
X125761878Y-84775155D01*
X125728729Y-84836660D01*
X125667591Y-84870481D01*
X125597873Y-84865878D01*
X125577861Y-84855514D01*
X125577771Y-84855687D01*
X125430391Y-84778336D01*
X125276072Y-84740300D01*
X125276071Y-84740300D01*
X125117129Y-84740300D01*
X125117128Y-84740300D01*
X124962808Y-84778336D01*
X124822069Y-84852201D01*
X124703106Y-84957594D01*
X124703100Y-84957601D01*
X124612814Y-85088402D01*
X124556450Y-85237018D01*
X124537293Y-85394799D01*
X124537293Y-85394800D01*
X124556450Y-85552581D01*
X124576881Y-85606451D01*
X124612813Y-85701195D01*
X124634925Y-85733230D01*
X124656807Y-85799582D01*
X124639342Y-85867234D01*
X124620555Y-85891349D01*
X123068577Y-87443327D01*
X123048727Y-87459448D01*
X123039419Y-87465529D01*
X123017359Y-87493872D01*
X123012281Y-87499624D01*
X123009424Y-87502481D01*
X123009416Y-87502491D01*
X122996443Y-87520657D01*
X122994916Y-87522706D01*
X122961625Y-87565480D01*
X122957849Y-87572457D01*
X122954345Y-87579624D01*
X122938881Y-87631567D01*
X122938099Y-87634008D01*
X122920499Y-87685271D01*
X122919195Y-87693087D01*
X122918207Y-87701013D01*
X122920447Y-87755141D01*
X122920500Y-87757704D01*
X122920500Y-88449414D01*
X122900815Y-88516453D01*
X122884093Y-88535312D01*
X122884830Y-88536004D01*
X122766292Y-88662233D01*
X122766288Y-88662238D01*
X122757468Y-88678283D01*
X122707921Y-88727546D01*
X122639605Y-88742201D01*
X122574211Y-88717596D01*
X122548489Y-88691428D01*
X122480904Y-88598404D01*
X122480900Y-88598401D01*
X122424458Y-88551707D01*
X122385351Y-88493807D01*
X122379499Y-88456164D01*
X122379499Y-87051022D01*
X122382139Y-87025569D01*
X122384419Y-87014700D01*
X122382110Y-86996183D01*
X122379977Y-86979060D01*
X122379500Y-86971384D01*
X122379500Y-86967359D01*
X122375827Y-86945349D01*
X122375458Y-86942813D01*
X122369645Y-86896183D01*
X122368752Y-86889018D01*
X122368751Y-86889016D01*
X122368751Y-86889014D01*
X122366489Y-86881418D01*
X122363900Y-86873873D01*
X122345932Y-86840672D01*
X122338098Y-86826196D01*
X122336938Y-86823942D01*
X122319133Y-86787520D01*
X122313126Y-86775232D01*
X122313124Y-86775230D01*
X122313124Y-86775229D01*
X122308541Y-86768809D01*
X122303620Y-86762486D01*
X122303619Y-86762484D01*
X122263756Y-86725787D01*
X122261932Y-86724038D01*
X122154273Y-86616379D01*
X122120788Y-86555056D01*
X122118858Y-86513754D01*
X122122107Y-86487000D01*
X122102949Y-86329218D01*
X122046587Y-86180605D01*
X121956298Y-86049799D01*
X121956295Y-86049796D01*
X121956293Y-86049794D01*
X121837330Y-85944401D01*
X121696591Y-85870536D01*
X121542272Y-85832500D01*
X121542271Y-85832500D01*
X121383329Y-85832500D01*
X121383328Y-85832500D01*
X121229008Y-85870536D01*
X121088269Y-85944401D01*
X120969306Y-86049794D01*
X120969300Y-86049801D01*
X120879014Y-86180602D01*
X120822650Y-86329218D01*
X120803493Y-86486999D01*
X120803493Y-86487000D01*
X120822650Y-86644781D01*
X120863227Y-86751773D01*
X120873147Y-86777929D01*
X120879014Y-86793397D01*
X120908680Y-86836375D01*
X120969302Y-86924201D01*
X120969304Y-86924203D01*
X120969306Y-86924205D01*
X121088269Y-87029598D01*
X121088271Y-87029599D01*
X121229007Y-87103463D01*
X121306167Y-87122481D01*
X121383328Y-87141500D01*
X121496499Y-87141500D01*
X121563538Y-87161185D01*
X121609293Y-87213989D01*
X121620499Y-87265500D01*
X121620499Y-88449414D01*
X121600814Y-88516453D01*
X121584095Y-88535314D01*
X121584830Y-88536004D01*
X121466292Y-88662233D01*
X121466288Y-88662238D01*
X121457468Y-88678283D01*
X121407921Y-88727546D01*
X121339605Y-88742201D01*
X121274211Y-88717596D01*
X121248489Y-88691428D01*
X121180904Y-88598405D01*
X121180902Y-88598403D01*
X121053486Y-88492995D01*
X121053484Y-88492994D01*
X121053483Y-88492993D01*
X120903859Y-88422586D01*
X120903859Y-88422585D01*
X120741423Y-88391600D01*
X120741419Y-88391600D01*
X120576384Y-88401983D01*
X120576381Y-88401983D01*
X120419112Y-88453084D01*
X120279489Y-88541690D01*
X120279489Y-88541691D01*
X120166292Y-88662233D01*
X120166288Y-88662238D01*
X120157468Y-88678283D01*
X120107921Y-88727546D01*
X120039605Y-88742201D01*
X119974211Y-88717596D01*
X119948489Y-88691428D01*
X119880904Y-88598405D01*
X119880902Y-88598403D01*
X119753486Y-88492995D01*
X119753484Y-88492994D01*
X119753483Y-88492993D01*
X119603859Y-88422586D01*
X119603859Y-88422585D01*
X119441423Y-88391600D01*
X119441419Y-88391600D01*
X119276384Y-88401983D01*
X119276381Y-88401983D01*
X119119112Y-88453084D01*
X118979489Y-88541690D01*
X118979489Y-88541691D01*
X118866292Y-88662233D01*
X118866288Y-88662238D01*
X118857468Y-88678283D01*
X118807921Y-88727546D01*
X118739605Y-88742201D01*
X118674211Y-88717596D01*
X118648489Y-88691428D01*
X118580904Y-88598405D01*
X118580902Y-88598403D01*
X118453486Y-88492995D01*
X118453484Y-88492994D01*
X118453483Y-88492993D01*
X118303859Y-88422586D01*
X118303859Y-88422585D01*
X118141423Y-88391600D01*
X118141419Y-88391600D01*
X117976384Y-88401983D01*
X117976381Y-88401983D01*
X117819112Y-88453084D01*
X117679489Y-88541690D01*
X117679489Y-88541691D01*
X117566292Y-88662233D01*
X117566288Y-88662238D01*
X117557468Y-88678283D01*
X117507921Y-88727546D01*
X117439605Y-88742201D01*
X117374211Y-88717596D01*
X117348489Y-88691428D01*
X117280905Y-88598405D01*
X117280902Y-88598403D01*
X117224458Y-88551707D01*
X117185351Y-88493807D01*
X117179500Y-88456165D01*
X117179500Y-88090031D01*
X117179500Y-87700752D01*
X117199183Y-87633717D01*
X117215813Y-87613080D01*
X117621275Y-87207619D01*
X117682598Y-87174134D01*
X117708956Y-87171300D01*
X119073780Y-87171300D01*
X119099225Y-87173939D01*
X119103120Y-87174755D01*
X119110100Y-87176219D01*
X119128616Y-87173910D01*
X119145740Y-87171777D01*
X119153416Y-87171300D01*
X119157440Y-87171300D01*
X119157443Y-87171300D01*
X119179497Y-87167619D01*
X119181957Y-87167261D01*
X119235783Y-87160552D01*
X119243391Y-87158286D01*
X119250923Y-87155700D01*
X119250927Y-87155700D01*
X119298592Y-87129904D01*
X119300846Y-87128743D01*
X119349568Y-87104926D01*
X119349570Y-87104923D01*
X119349572Y-87104923D01*
X119356001Y-87100333D01*
X119362309Y-87095422D01*
X119362316Y-87095419D01*
X119399035Y-87055529D01*
X119400737Y-87053755D01*
X120064074Y-86390419D01*
X120125398Y-86356934D01*
X120151756Y-86354100D01*
X120170672Y-86354100D01*
X120222111Y-86341420D01*
X120324993Y-86316063D01*
X120465729Y-86242199D01*
X120584698Y-86136801D01*
X120674987Y-86005995D01*
X120731349Y-85857382D01*
X120750507Y-85699600D01*
X120731349Y-85541818D01*
X120674987Y-85393205D01*
X120584698Y-85262399D01*
X120584695Y-85262396D01*
X120584693Y-85262394D01*
X120465730Y-85157001D01*
X120324991Y-85083136D01*
X120170672Y-85045100D01*
X120170671Y-85045100D01*
X120011729Y-85045100D01*
X120011728Y-85045100D01*
X119857408Y-85083136D01*
X119716669Y-85157001D01*
X119597706Y-85262394D01*
X119597700Y-85262401D01*
X119507414Y-85393202D01*
X119451050Y-85541818D01*
X119431893Y-85699599D01*
X119431893Y-85699600D01*
X119451642Y-85862251D01*
X119440181Y-85931174D01*
X119416227Y-85964878D01*
X119005125Y-86375981D01*
X118943802Y-86409466D01*
X118917444Y-86412300D01*
X117552615Y-86412300D01*
X117527170Y-86409661D01*
X117516301Y-86407382D01*
X117516297Y-86407382D01*
X117480666Y-86411823D01*
X117472990Y-86412300D01*
X117468957Y-86412300D01*
X117446945Y-86415973D01*
X117444410Y-86416342D01*
X117390614Y-86423048D01*
X117382994Y-86425316D01*
X117375475Y-86427898D01*
X117327816Y-86453688D01*
X117325541Y-86454860D01*
X117276831Y-86478674D01*
X117270376Y-86483282D01*
X117264085Y-86488179D01*
X117227378Y-86528052D01*
X117225605Y-86529900D01*
X116568577Y-87186927D01*
X116548727Y-87203048D01*
X116539419Y-87209129D01*
X116517359Y-87237472D01*
X116512281Y-87243224D01*
X116509424Y-87246081D01*
X116509416Y-87246091D01*
X116496443Y-87264257D01*
X116494916Y-87266306D01*
X116461625Y-87309080D01*
X116457849Y-87316057D01*
X116454345Y-87323224D01*
X116438881Y-87375167D01*
X116438099Y-87377608D01*
X116420499Y-87428871D01*
X116419195Y-87436687D01*
X116418207Y-87444613D01*
X116420447Y-87498741D01*
X116420500Y-87501304D01*
X116420500Y-88449414D01*
X116400815Y-88516453D01*
X116384093Y-88535312D01*
X116384830Y-88536004D01*
X116266292Y-88662233D01*
X116266286Y-88662241D01*
X116186626Y-88807143D01*
X116186623Y-88807151D01*
X116145500Y-88967315D01*
X116145500Y-90791187D01*
X110454500Y-90791187D01*
X110454500Y-89008822D01*
X110438976Y-88885939D01*
X110378101Y-88732186D01*
X110378098Y-88732182D01*
X110378096Y-88732178D01*
X110332182Y-88668983D01*
X110308702Y-88603177D01*
X110308500Y-88596098D01*
X110308500Y-87922399D01*
X110311334Y-87896040D01*
X110312420Y-87891048D01*
X110312419Y-87891047D01*
X110308656Y-87838446D01*
X110308499Y-87834018D01*
X110308500Y-87818032D01*
X110306222Y-87802192D01*
X110305750Y-87797795D01*
X110305699Y-87797082D01*
X110301989Y-87745199D01*
X110300202Y-87740409D01*
X110293645Y-87714718D01*
X110292919Y-87709666D01*
X110271016Y-87661706D01*
X110269324Y-87657622D01*
X110264172Y-87643809D01*
X110250889Y-87608196D01*
X110247824Y-87604102D01*
X110234294Y-87581296D01*
X110232176Y-87576657D01*
X110197643Y-87536804D01*
X110194874Y-87533369D01*
X110185280Y-87520552D01*
X110173971Y-87509243D01*
X110170954Y-87506003D01*
X110136422Y-87466151D01*
X110136421Y-87466150D01*
X110132121Y-87463387D01*
X110111481Y-87446753D01*
X109526046Y-86861318D01*
X109509412Y-86840677D01*
X109506650Y-86836379D01*
X109506649Y-86836378D01*
X109506647Y-86836375D01*
X109466796Y-86801845D01*
X109463567Y-86798839D01*
X109452248Y-86787520D01*
X109452245Y-86787518D01*
X109452243Y-86787515D01*
X109439437Y-86777929D01*
X109435990Y-86775152D01*
X109396147Y-86740627D01*
X109396140Y-86740622D01*
X109392798Y-86739096D01*
X109391494Y-86738500D01*
X109368697Y-86724975D01*
X109368622Y-86724919D01*
X109364604Y-86721911D01*
X109315187Y-86703478D01*
X109311101Y-86701786D01*
X109302667Y-86697934D01*
X109263134Y-86679881D01*
X109263131Y-86679880D01*
X109263130Y-86679880D01*
X109258074Y-86679153D01*
X109232398Y-86672599D01*
X109227610Y-86670813D01*
X109227602Y-86670811D01*
X109227601Y-86670811D01*
X109221154Y-86670349D01*
X109174988Y-86667047D01*
X109170591Y-86666574D01*
X109154769Y-86664300D01*
X109154768Y-86664300D01*
X109138776Y-86664300D01*
X109134353Y-86664142D01*
X109125758Y-86663527D01*
X109081755Y-86660380D01*
X109081747Y-86660380D01*
X109076758Y-86661466D01*
X109050401Y-86664300D01*
X96604190Y-86664300D01*
X96537151Y-86644615D01*
X96516509Y-86627981D01*
X95357319Y-85468790D01*
X95323834Y-85407467D01*
X95321000Y-85381109D01*
X95321000Y-83577847D01*
X95340685Y-83510808D01*
X95393489Y-83465053D01*
X95427191Y-83456331D01*
X95427022Y-83455263D01*
X95526552Y-83439499D01*
X95526553Y-83439498D01*
X95526555Y-83439498D01*
X95640723Y-83381326D01*
X95671338Y-83350711D01*
X95706231Y-83315819D01*
X95767554Y-83282334D01*
X95793912Y-83279500D01*
X95851284Y-83279500D01*
X95918323Y-83299185D01*
X95960118Y-83344077D01*
X95963741Y-83350712D01*
X95963742Y-83350715D01*
X96048526Y-83463974D01*
X96161785Y-83548758D01*
X96294343Y-83598200D01*
X96352943Y-83604500D01*
X96922056Y-83604499D01*
X96980657Y-83598200D01*
X97113215Y-83548758D01*
X97226474Y-83463974D01*
X97311258Y-83350715D01*
X97357132Y-83227722D01*
X97360699Y-83218160D01*
X97360699Y-83218159D01*
X97360700Y-83218157D01*
X97365173Y-83176552D01*
X97366999Y-83159573D01*
X97366999Y-83159566D01*
X97367000Y-83159557D01*
X97366999Y-82565444D01*
X97360700Y-82506843D01*
X97353028Y-82486273D01*
X97311260Y-82374290D01*
X97311259Y-82374289D01*
X97311258Y-82374285D01*
X97226474Y-82261026D01*
X97113215Y-82176242D01*
X97057998Y-82155647D01*
X96980659Y-82126800D01*
X96922065Y-82120500D01*
X96352946Y-82120500D01*
X96352937Y-82120501D01*
X96294340Y-82126800D01*
X96161790Y-82176239D01*
X96161781Y-82176244D01*
X96048526Y-82261026D01*
X95963744Y-82374281D01*
X95963743Y-82374283D01*
X95963742Y-82374285D01*
X95939292Y-82439835D01*
X95897422Y-82495767D01*
X95831957Y-82520184D01*
X95823112Y-82520500D01*
X95793912Y-82520500D01*
X95726873Y-82500815D01*
X95706231Y-82484181D01*
X95640728Y-82418678D01*
X95640724Y-82418675D01*
X95640723Y-82418674D01*
X95637714Y-82417141D01*
X95528097Y-82361287D01*
X95477302Y-82313312D01*
X95460507Y-82245491D01*
X95461297Y-82235856D01*
X95462427Y-82226555D01*
X95471807Y-82149300D01*
X95470607Y-82139421D01*
X95452649Y-81991518D01*
X95441079Y-81961010D01*
X95396287Y-81842905D01*
X95383156Y-81823882D01*
X95331428Y-81748940D01*
X95309545Y-81682585D01*
X95327011Y-81614934D01*
X95378278Y-81567464D01*
X95427072Y-81556004D01*
X95426984Y-81554882D01*
X95431837Y-81554500D01*
X95526552Y-81539499D01*
X95526553Y-81539498D01*
X95526555Y-81539498D01*
X95640723Y-81481326D01*
X95670060Y-81451989D01*
X95706231Y-81415819D01*
X95767554Y-81382334D01*
X95793912Y-81379500D01*
X95823112Y-81379500D01*
X95890151Y-81399185D01*
X95935906Y-81451989D01*
X95939286Y-81460148D01*
X95963742Y-81525715D01*
X96048526Y-81638974D01*
X96161785Y-81723758D01*
X96280833Y-81768161D01*
X96282594Y-81768818D01*
X96294343Y-81773200D01*
X96352943Y-81779500D01*
X96922056Y-81779499D01*
X96980657Y-81773200D01*
X97113215Y-81723758D01*
X97226474Y-81638974D01*
X97311258Y-81525715D01*
X97319791Y-81502836D01*
X97361658Y-81446907D01*
X97422338Y-81424272D01*
X97422204Y-81423190D01*
X97426763Y-81422621D01*
X97427122Y-81422488D01*
X97427931Y-81422476D01*
X97468040Y-81417477D01*
X97475716Y-81417000D01*
X97479740Y-81417000D01*
X97479743Y-81417000D01*
X97501797Y-81413319D01*
X97504257Y-81412961D01*
X97558083Y-81406252D01*
X97565691Y-81403986D01*
X97573223Y-81401400D01*
X97573227Y-81401400D01*
X97620892Y-81375604D01*
X97623146Y-81374443D01*
X97671868Y-81350626D01*
X97671870Y-81350623D01*
X97671872Y-81350623D01*
X97678301Y-81346033D01*
X97684609Y-81341122D01*
X97684616Y-81341119D01*
X97721335Y-81301229D01*
X97723037Y-81299455D01*
X98097625Y-80924867D01*
X98117479Y-80908745D01*
X98126782Y-80902668D01*
X98148840Y-80874326D01*
X98153929Y-80868563D01*
X98156781Y-80865713D01*
X98169756Y-80847540D01*
X98171289Y-80845485D01*
X98176948Y-80838213D01*
X98204575Y-80802719D01*
X98204576Y-80802713D01*
X98208359Y-80795726D01*
X98211851Y-80788582D01*
X98211851Y-80788581D01*
X98211853Y-80788579D01*
X98227319Y-80736626D01*
X98228096Y-80734202D01*
X98245700Y-80682927D01*
X98245700Y-80682922D01*
X98247002Y-80675121D01*
X98247992Y-80667187D01*
X98245753Y-80613047D01*
X98245700Y-80610484D01*
X98245700Y-79177155D01*
X98265385Y-79110116D01*
X98282019Y-79089474D01*
X98455675Y-78915819D01*
X98516998Y-78882334D01*
X98543356Y-78879500D01*
X98899414Y-78879500D01*
X98966453Y-78899185D01*
X98985312Y-78915906D01*
X98986004Y-78915170D01*
X99112233Y-79033707D01*
X99112235Y-79033708D01*
X99112237Y-79033710D01*
X99128279Y-79042529D01*
X99177544Y-79092075D01*
X99192201Y-79160390D01*
X99167598Y-79225784D01*
X99141429Y-79251510D01*
X99048404Y-79319096D01*
X98942993Y-79446516D01*
X98872586Y-79596140D01*
X98872586Y-79596141D01*
X98841600Y-79758577D01*
X98841600Y-79758579D01*
X98841600Y-79758580D01*
X98851983Y-79923615D01*
X98851983Y-79923618D01*
X98903084Y-80080887D01*
X98991691Y-80220510D01*
X99112233Y-80333707D01*
X99112235Y-80333708D01*
X99112237Y-80333710D01*
X99128279Y-80342529D01*
X99177544Y-80392075D01*
X99192201Y-80460390D01*
X99167598Y-80525784D01*
X99141429Y-80551510D01*
X99048404Y-80619096D01*
X98942993Y-80746516D01*
X98882849Y-80874330D01*
X98872586Y-80896141D01*
X98841600Y-81058577D01*
X98841600Y-81058579D01*
X98841600Y-81058580D01*
X98851983Y-81223615D01*
X98851983Y-81223618D01*
X98903084Y-81380887D01*
X98991691Y-81520510D01*
X99112233Y-81633707D01*
X99112235Y-81633708D01*
X99112237Y-81633710D01*
X99121816Y-81638976D01*
X99128279Y-81642529D01*
X99177544Y-81692075D01*
X99192201Y-81760390D01*
X99167598Y-81825784D01*
X99141429Y-81851510D01*
X99048404Y-81919096D01*
X98942993Y-82046516D01*
X98872586Y-82196140D01*
X98872586Y-82196141D01*
X98841600Y-82358577D01*
X98841600Y-82358579D01*
X98841600Y-82358580D01*
X98851983Y-82523615D01*
X98851983Y-82523618D01*
X98903084Y-82680887D01*
X98991691Y-82820510D01*
X99112233Y-82933707D01*
X99112241Y-82933713D01*
X99257143Y-83013373D01*
X99257147Y-83013375D01*
X99417317Y-83054500D01*
X99417321Y-83054500D01*
X101241176Y-83054500D01*
X101241178Y-83054500D01*
X101241183Y-83054499D01*
X101241187Y-83054499D01*
X101254510Y-83052815D01*
X101364061Y-83038976D01*
X101517814Y-82978101D01*
X101651597Y-82880902D01*
X101757005Y-82753486D01*
X101827414Y-82603859D01*
X101858400Y-82441423D01*
X101848017Y-82276384D01*
X101796916Y-82119113D01*
X101708309Y-81979490D01*
X101643996Y-81919096D01*
X101587766Y-81866292D01*
X101587761Y-81866288D01*
X101571718Y-81857469D01*
X101522454Y-81807923D01*
X101507798Y-81739607D01*
X101532402Y-81674213D01*
X101558565Y-81648493D01*
X101651597Y-81580902D01*
X101757005Y-81453486D01*
X101827414Y-81303859D01*
X101858400Y-81141423D01*
X101848017Y-80976384D01*
X101796916Y-80819113D01*
X101708309Y-80679490D01*
X101708308Y-80679489D01*
X101587766Y-80566292D01*
X101587761Y-80566288D01*
X101571718Y-80557469D01*
X101522454Y-80507923D01*
X101507798Y-80439607D01*
X101532402Y-80374213D01*
X101558565Y-80348493D01*
X101651597Y-80280902D01*
X101757005Y-80153486D01*
X101827414Y-80003859D01*
X101858400Y-79841423D01*
X101848017Y-79676384D01*
X101796916Y-79519113D01*
X101772094Y-79480000D01*
X133840968Y-79480000D01*
X133859854Y-79683816D01*
X133859854Y-79683818D01*
X133859855Y-79683821D01*
X133915872Y-79880701D01*
X133915873Y-79880704D01*
X134007112Y-80063935D01*
X134130469Y-80227287D01*
X134252647Y-80338666D01*
X134279559Y-80363200D01*
X134281737Y-80365185D01*
X134281739Y-80365187D01*
X134455769Y-80472942D01*
X134455775Y-80472945D01*
X134469033Y-80478081D01*
X134646644Y-80546888D01*
X134847853Y-80584500D01*
X134847856Y-80584500D01*
X135052544Y-80584500D01*
X135052547Y-80584500D01*
X135253756Y-80546888D01*
X135444627Y-80472944D01*
X135618662Y-80365186D01*
X135769932Y-80227285D01*
X135893288Y-80063935D01*
X135984528Y-79880701D01*
X136040545Y-79683821D01*
X136059432Y-79480000D01*
X136040545Y-79276179D01*
X135984528Y-79079299D01*
X135893288Y-78896065D01*
X135828672Y-78810500D01*
X135769930Y-78732712D01*
X135618662Y-78594814D01*
X135618660Y-78594812D01*
X135444630Y-78487057D01*
X135444624Y-78487054D01*
X135294193Y-78428777D01*
X135253756Y-78413112D01*
X135052547Y-78375500D01*
X134847853Y-78375500D01*
X134646644Y-78413112D01*
X134646641Y-78413112D01*
X134646641Y-78413113D01*
X134455775Y-78487054D01*
X134455769Y-78487057D01*
X134281739Y-78594812D01*
X134281737Y-78594814D01*
X134130469Y-78732712D01*
X134007112Y-78896064D01*
X133915873Y-79079295D01*
X133906176Y-79113376D01*
X133865179Y-79257469D01*
X133859854Y-79276183D01*
X133840968Y-79479999D01*
X133840968Y-79480000D01*
X101772094Y-79480000D01*
X101708309Y-79379490D01*
X101643996Y-79319096D01*
X101587766Y-79266292D01*
X101587761Y-79266288D01*
X101571718Y-79257469D01*
X101522454Y-79207923D01*
X101507798Y-79139607D01*
X101532402Y-79074213D01*
X101558565Y-79048493D01*
X101651597Y-78980902D01*
X101757005Y-78853486D01*
X101827414Y-78703859D01*
X101858400Y-78541423D01*
X101853188Y-78458580D01*
X127341600Y-78458580D01*
X127351983Y-78623615D01*
X127351983Y-78623618D01*
X127403084Y-78780887D01*
X127491691Y-78920510D01*
X127612233Y-79033707D01*
X127612241Y-79033713D01*
X127757143Y-79113373D01*
X127757147Y-79113375D01*
X127917317Y-79154500D01*
X127917321Y-79154500D01*
X129741176Y-79154500D01*
X129741178Y-79154500D01*
X129741183Y-79154499D01*
X129741187Y-79154499D01*
X129754510Y-79152815D01*
X129864061Y-79138976D01*
X130017814Y-79078101D01*
X130024223Y-79073445D01*
X130115892Y-79006843D01*
X130151597Y-78980902D01*
X130257005Y-78853486D01*
X130327414Y-78703859D01*
X130358400Y-78541423D01*
X130348017Y-78376384D01*
X130296916Y-78219113D01*
X130208309Y-78079490D01*
X130204104Y-78075541D01*
X130087766Y-77966292D01*
X130087761Y-77966288D01*
X130071718Y-77957469D01*
X130022454Y-77907923D01*
X130007798Y-77839607D01*
X130032402Y-77774213D01*
X130058565Y-77748493D01*
X130151597Y-77680902D01*
X130257005Y-77553486D01*
X130327414Y-77403859D01*
X130358400Y-77241423D01*
X130348017Y-77076384D01*
X130303703Y-76940000D01*
X133840968Y-76940000D01*
X133859854Y-77143816D01*
X133859854Y-77143818D01*
X133859855Y-77143821D01*
X133915872Y-77340701D01*
X133915873Y-77340704D01*
X134007112Y-77523935D01*
X134130469Y-77687287D01*
X134281737Y-77825185D01*
X134281739Y-77825187D01*
X134455769Y-77932942D01*
X134455775Y-77932945D01*
X134496210Y-77948609D01*
X134646644Y-78006888D01*
X134847853Y-78044500D01*
X134847856Y-78044500D01*
X135052544Y-78044500D01*
X135052547Y-78044500D01*
X135253756Y-78006888D01*
X135444627Y-77932944D01*
X135618662Y-77825186D01*
X135769932Y-77687285D01*
X135893288Y-77523935D01*
X135984528Y-77340701D01*
X136040545Y-77143821D01*
X136059432Y-76940000D01*
X136040545Y-76736179D01*
X135984528Y-76539299D01*
X135893288Y-76356065D01*
X135769932Y-76192715D01*
X135769930Y-76192712D01*
X135618662Y-76054814D01*
X135618660Y-76054812D01*
X135444630Y-75947057D01*
X135444624Y-75947054D01*
X135294193Y-75888777D01*
X135253756Y-75873112D01*
X135052547Y-75835500D01*
X134847853Y-75835500D01*
X134646644Y-75873112D01*
X134646641Y-75873112D01*
X134646641Y-75873113D01*
X134455775Y-75947054D01*
X134455769Y-75947057D01*
X134281739Y-76054812D01*
X134281737Y-76054814D01*
X134130469Y-76192712D01*
X134007112Y-76356064D01*
X133915873Y-76539295D01*
X133912263Y-76551982D01*
X133879740Y-76666292D01*
X133859854Y-76736183D01*
X133840968Y-76939999D01*
X133840968Y-76940000D01*
X130303703Y-76940000D01*
X130296916Y-76919113D01*
X130208309Y-76779490D01*
X130162192Y-76736183D01*
X130087766Y-76666292D01*
X130087761Y-76666288D01*
X130071718Y-76657469D01*
X130022454Y-76607923D01*
X130007798Y-76539607D01*
X130032402Y-76474213D01*
X130058565Y-76448493D01*
X130151597Y-76380902D01*
X130257005Y-76253486D01*
X130327414Y-76103859D01*
X130358400Y-75941423D01*
X130348017Y-75776384D01*
X130296916Y-75619113D01*
X130208309Y-75479490D01*
X130116145Y-75392942D01*
X130087766Y-75366292D01*
X130087761Y-75366288D01*
X130071718Y-75357469D01*
X130022454Y-75307923D01*
X130007798Y-75239607D01*
X130032402Y-75174213D01*
X130058565Y-75148493D01*
X130151597Y-75080902D01*
X130257005Y-74953486D01*
X130327414Y-74803859D01*
X130358400Y-74641423D01*
X130348017Y-74476384D01*
X130323198Y-74400000D01*
X133840968Y-74400000D01*
X133859854Y-74603816D01*
X133915873Y-74800704D01*
X134007112Y-74983935D01*
X134130469Y-75147287D01*
X134281737Y-75285185D01*
X134281739Y-75285187D01*
X134455769Y-75392942D01*
X134455775Y-75392945D01*
X134496210Y-75408609D01*
X134646644Y-75466888D01*
X134847853Y-75504500D01*
X134847856Y-75504500D01*
X135052544Y-75504500D01*
X135052547Y-75504500D01*
X135253756Y-75466888D01*
X135444627Y-75392944D01*
X135618662Y-75285186D01*
X135747208Y-75168000D01*
X135769930Y-75147287D01*
X135769932Y-75147285D01*
X135893288Y-74983935D01*
X135984528Y-74800701D01*
X136040545Y-74603821D01*
X136059432Y-74400000D01*
X136040545Y-74196179D01*
X135984528Y-73999299D01*
X135893288Y-73816065D01*
X135769932Y-73652715D01*
X135769930Y-73652712D01*
X135618662Y-73514814D01*
X135618660Y-73514812D01*
X135444630Y-73407057D01*
X135444624Y-73407054D01*
X135275199Y-73341419D01*
X135253756Y-73333112D01*
X135052547Y-73295500D01*
X134847853Y-73295500D01*
X134646644Y-73333112D01*
X134646641Y-73333112D01*
X134646641Y-73333113D01*
X134455775Y-73407054D01*
X134455769Y-73407057D01*
X134281739Y-73514812D01*
X134281737Y-73514814D01*
X134130469Y-73652712D01*
X134007112Y-73816064D01*
X133915873Y-73999295D01*
X133915871Y-73999299D01*
X133915872Y-73999299D01*
X133864604Y-74179490D01*
X133859854Y-74196183D01*
X133840968Y-74399999D01*
X133840968Y-74400000D01*
X130323198Y-74400000D01*
X130296916Y-74319113D01*
X130208309Y-74179490D01*
X130143996Y-74119096D01*
X130087766Y-74066292D01*
X130087761Y-74066288D01*
X130071718Y-74057469D01*
X130022454Y-74007923D01*
X130007798Y-73939607D01*
X130032402Y-73874213D01*
X130058565Y-73848493D01*
X130151597Y-73780902D01*
X130257005Y-73653486D01*
X130327414Y-73503859D01*
X130358400Y-73341423D01*
X130348017Y-73176384D01*
X130296916Y-73019113D01*
X130208309Y-72879490D01*
X130208308Y-72879489D01*
X130087766Y-72766292D01*
X130087761Y-72766288D01*
X130071718Y-72757469D01*
X130022454Y-72707923D01*
X130007798Y-72639607D01*
X130032402Y-72574213D01*
X130058565Y-72548493D01*
X130151597Y-72480902D01*
X130257005Y-72353486D01*
X130327414Y-72203859D01*
X130358400Y-72041423D01*
X130348017Y-71876384D01*
X130342693Y-71860000D01*
X133840968Y-71860000D01*
X133859854Y-72063816D01*
X133915873Y-72260704D01*
X134007112Y-72443935D01*
X134130469Y-72607287D01*
X134281737Y-72745185D01*
X134281739Y-72745187D01*
X134455769Y-72852942D01*
X134455775Y-72852945D01*
X134496210Y-72868609D01*
X134646644Y-72926888D01*
X134847853Y-72964500D01*
X134847856Y-72964500D01*
X135052544Y-72964500D01*
X135052547Y-72964500D01*
X135253756Y-72926888D01*
X135444627Y-72852944D01*
X135618662Y-72745186D01*
X135769932Y-72607285D01*
X135893288Y-72443935D01*
X135984528Y-72260701D01*
X136040545Y-72063821D01*
X136059432Y-71860000D01*
X136040545Y-71656179D01*
X135984528Y-71459299D01*
X135893288Y-71276065D01*
X135769932Y-71112715D01*
X135769930Y-71112712D01*
X135618662Y-70974814D01*
X135618660Y-70974812D01*
X135444630Y-70867057D01*
X135444624Y-70867054D01*
X135294193Y-70808777D01*
X135253756Y-70793112D01*
X135052547Y-70755500D01*
X134847853Y-70755500D01*
X134646644Y-70793112D01*
X134646641Y-70793112D01*
X134646641Y-70793113D01*
X134455775Y-70867054D01*
X134455769Y-70867057D01*
X134281739Y-70974812D01*
X134281737Y-70974814D01*
X134130469Y-71112712D01*
X134007112Y-71276064D01*
X133915873Y-71459295D01*
X133915871Y-71459299D01*
X133915872Y-71459299D01*
X133863560Y-71643159D01*
X133859854Y-71656183D01*
X133840968Y-71859999D01*
X133840968Y-71860000D01*
X130342693Y-71860000D01*
X130296916Y-71719113D01*
X130208309Y-71579490D01*
X130143996Y-71519096D01*
X130087766Y-71466292D01*
X130087761Y-71466288D01*
X130071718Y-71457469D01*
X130022454Y-71407923D01*
X130007798Y-71339607D01*
X130032402Y-71274213D01*
X130058565Y-71248493D01*
X130151597Y-71180902D01*
X130257005Y-71053486D01*
X130327414Y-70903859D01*
X130358400Y-70741423D01*
X130348017Y-70576384D01*
X130296916Y-70419113D01*
X130208309Y-70279490D01*
X130197458Y-70269300D01*
X130118404Y-70195063D01*
X133845700Y-70195063D01*
X133860466Y-70269301D01*
X133916715Y-70353484D01*
X133947053Y-70373755D01*
X134000899Y-70409734D01*
X134000902Y-70409734D01*
X134000903Y-70409735D01*
X134025866Y-70414700D01*
X134075133Y-70424500D01*
X135825266Y-70424499D01*
X135899501Y-70409734D01*
X135983684Y-70353484D01*
X136039934Y-70269301D01*
X136054700Y-70195067D01*
X136054699Y-68444934D01*
X136039934Y-68370699D01*
X136021268Y-68342764D01*
X135983684Y-68286515D01*
X135933219Y-68252796D01*
X135899501Y-68230266D01*
X135899499Y-68230265D01*
X135899496Y-68230264D01*
X135825269Y-68215500D01*
X134075136Y-68215500D01*
X134000898Y-68230266D01*
X133916715Y-68286515D01*
X133860466Y-68370699D01*
X133860464Y-68370703D01*
X133845700Y-68444928D01*
X133845700Y-70195063D01*
X130118404Y-70195063D01*
X130087766Y-70166292D01*
X130087761Y-70166288D01*
X130071718Y-70157469D01*
X130022454Y-70107923D01*
X130007798Y-70039607D01*
X130032402Y-69974213D01*
X130058565Y-69948493D01*
X130151597Y-69880902D01*
X130257005Y-69753486D01*
X130327414Y-69603859D01*
X130358400Y-69441423D01*
X130348017Y-69276384D01*
X130296916Y-69119113D01*
X130208309Y-68979490D01*
X130208308Y-68979489D01*
X130087766Y-68866292D01*
X130087761Y-68866288D01*
X130071718Y-68857469D01*
X130022454Y-68807923D01*
X130007798Y-68739607D01*
X130032402Y-68674213D01*
X130058565Y-68648493D01*
X130151597Y-68580902D01*
X130257005Y-68453486D01*
X130327414Y-68303859D01*
X130358400Y-68141423D01*
X130348017Y-67976384D01*
X130296916Y-67819113D01*
X130208309Y-67679490D01*
X130143996Y-67619096D01*
X130087766Y-67566292D01*
X130087761Y-67566288D01*
X130071718Y-67557469D01*
X130022454Y-67507923D01*
X130007798Y-67439607D01*
X130032402Y-67374213D01*
X130058565Y-67348493D01*
X130151597Y-67280902D01*
X130257005Y-67153486D01*
X130327414Y-67003859D01*
X130358400Y-66841423D01*
X130348017Y-66676384D01*
X130296916Y-66519113D01*
X130208309Y-66379490D01*
X130180939Y-66353788D01*
X130087766Y-66266292D01*
X130087761Y-66266288D01*
X130071718Y-66257469D01*
X130022454Y-66207923D01*
X130007798Y-66139607D01*
X130032402Y-66074213D01*
X130058565Y-66048493D01*
X130151597Y-65980902D01*
X130257005Y-65853486D01*
X130327414Y-65703859D01*
X130358400Y-65541423D01*
X130348017Y-65376384D01*
X130296916Y-65219113D01*
X130208309Y-65079490D01*
X130143996Y-65019096D01*
X130087766Y-64966292D01*
X130087761Y-64966288D01*
X130071718Y-64957469D01*
X130022454Y-64907923D01*
X130007798Y-64839607D01*
X130032402Y-64774213D01*
X130058565Y-64748493D01*
X130151597Y-64680902D01*
X130257005Y-64553486D01*
X130327414Y-64403859D01*
X130358400Y-64241423D01*
X130348017Y-64076384D01*
X130296916Y-63919113D01*
X130208309Y-63779490D01*
X130160673Y-63734757D01*
X130087766Y-63666292D01*
X130087761Y-63666288D01*
X130071718Y-63657469D01*
X130022454Y-63607923D01*
X130007798Y-63539607D01*
X130032402Y-63474213D01*
X130058565Y-63448493D01*
X130151597Y-63380902D01*
X130257005Y-63253486D01*
X130327414Y-63103859D01*
X130358400Y-62941423D01*
X130348017Y-62776384D01*
X130296916Y-62619113D01*
X130208309Y-62479490D01*
X130143995Y-62419095D01*
X130087766Y-62366292D01*
X130087758Y-62366286D01*
X129942856Y-62286626D01*
X129942848Y-62286623D01*
X129782684Y-62245500D01*
X129782683Y-62245500D01*
X127958822Y-62245500D01*
X127958812Y-62245500D01*
X127835939Y-62261024D01*
X127835936Y-62261024D01*
X127682187Y-62321898D01*
X127682178Y-62321903D01*
X127548405Y-62419095D01*
X127442993Y-62546516D01*
X127372586Y-62696140D01*
X127372586Y-62696141D01*
X127341600Y-62858577D01*
X127341600Y-62858579D01*
X127341600Y-62858580D01*
X127351983Y-63023615D01*
X127351983Y-63023618D01*
X127403084Y-63180887D01*
X127491691Y-63320510D01*
X127612233Y-63433707D01*
X127612235Y-63433708D01*
X127612237Y-63433710D01*
X127628279Y-63442529D01*
X127677544Y-63492075D01*
X127692201Y-63560390D01*
X127667598Y-63625784D01*
X127641429Y-63651510D01*
X127548404Y-63719096D01*
X127442993Y-63846516D01*
X127372586Y-63996140D01*
X127372586Y-63996141D01*
X127341600Y-64158577D01*
X127341600Y-64158579D01*
X127341600Y-64158580D01*
X127351983Y-64323615D01*
X127351983Y-64323618D01*
X127403084Y-64480887D01*
X127491691Y-64620510D01*
X127612233Y-64733707D01*
X127612235Y-64733708D01*
X127612237Y-64733710D01*
X127628279Y-64742529D01*
X127677544Y-64792075D01*
X127692201Y-64860390D01*
X127667598Y-64925784D01*
X127641429Y-64951510D01*
X127548404Y-65019096D01*
X127442993Y-65146516D01*
X127372586Y-65296140D01*
X127372586Y-65296141D01*
X127341600Y-65458577D01*
X127341600Y-65458579D01*
X127341600Y-65458580D01*
X127351983Y-65623615D01*
X127351983Y-65623618D01*
X127403084Y-65780887D01*
X127491691Y-65920510D01*
X127612233Y-66033707D01*
X127612235Y-66033708D01*
X127612237Y-66033710D01*
X127628279Y-66042529D01*
X127677544Y-66092075D01*
X127692201Y-66160390D01*
X127667598Y-66225784D01*
X127641429Y-66251510D01*
X127548404Y-66319096D01*
X127442993Y-66446516D01*
X127386209Y-66567190D01*
X127372586Y-66596141D01*
X127341600Y-66758577D01*
X127341600Y-66758579D01*
X127341600Y-66758580D01*
X127351983Y-66923615D01*
X127351983Y-66923618D01*
X127403084Y-67080887D01*
X127491691Y-67220510D01*
X127612233Y-67333707D01*
X127612235Y-67333708D01*
X127612237Y-67333710D01*
X127628279Y-67342529D01*
X127677544Y-67392075D01*
X127692201Y-67460390D01*
X127667598Y-67525784D01*
X127641429Y-67551510D01*
X127548404Y-67619096D01*
X127442993Y-67746516D01*
X127372586Y-67896140D01*
X127372586Y-67896141D01*
X127341600Y-68058577D01*
X127351472Y-68215501D01*
X127351983Y-68223615D01*
X127351983Y-68223618D01*
X127403084Y-68380887D01*
X127491691Y-68520510D01*
X127612233Y-68633707D01*
X127612235Y-68633708D01*
X127612237Y-68633710D01*
X127624157Y-68640263D01*
X127628279Y-68642529D01*
X127677544Y-68692075D01*
X127692201Y-68760390D01*
X127667598Y-68825784D01*
X127641429Y-68851510D01*
X127548404Y-68919096D01*
X127442993Y-69046516D01*
X127372586Y-69196140D01*
X127372586Y-69196141D01*
X127341600Y-69358577D01*
X127341600Y-69358579D01*
X127341600Y-69358580D01*
X127351983Y-69523615D01*
X127351983Y-69523618D01*
X127403084Y-69680887D01*
X127491691Y-69820510D01*
X127612233Y-69933707D01*
X127612235Y-69933708D01*
X127612237Y-69933710D01*
X127628279Y-69942529D01*
X127677544Y-69992075D01*
X127692201Y-70060390D01*
X127667598Y-70125784D01*
X127641429Y-70151510D01*
X127548404Y-70219096D01*
X127442993Y-70346516D01*
X127373263Y-70494702D01*
X127372586Y-70496141D01*
X127341600Y-70658577D01*
X127341600Y-70658579D01*
X127341600Y-70658580D01*
X127351983Y-70823615D01*
X127351983Y-70823618D01*
X127403084Y-70980887D01*
X127491691Y-71120510D01*
X127612233Y-71233707D01*
X127612235Y-71233708D01*
X127612237Y-71233710D01*
X127628279Y-71242529D01*
X127677544Y-71292075D01*
X127692201Y-71360390D01*
X127667598Y-71425784D01*
X127641429Y-71451510D01*
X127548404Y-71519096D01*
X127442993Y-71646516D01*
X127382196Y-71775718D01*
X127372586Y-71796141D01*
X127341600Y-71958577D01*
X127341600Y-71958579D01*
X127341600Y-71958580D01*
X127351983Y-72123615D01*
X127351983Y-72123618D01*
X127403084Y-72280887D01*
X127491691Y-72420510D01*
X127612233Y-72533707D01*
X127612235Y-72533708D01*
X127612237Y-72533710D01*
X127628279Y-72542529D01*
X127677544Y-72592075D01*
X127692201Y-72660390D01*
X127667598Y-72725784D01*
X127641429Y-72751510D01*
X127548404Y-72819096D01*
X127442993Y-72946516D01*
X127372586Y-73096140D01*
X127372586Y-73096141D01*
X127341600Y-73258577D01*
X127341600Y-73258579D01*
X127341600Y-73258580D01*
X127351983Y-73423615D01*
X127351983Y-73423618D01*
X127403084Y-73580887D01*
X127491691Y-73720510D01*
X127612233Y-73833707D01*
X127612235Y-73833708D01*
X127612237Y-73833710D01*
X127628279Y-73842529D01*
X127677544Y-73892075D01*
X127692201Y-73960390D01*
X127667598Y-74025784D01*
X127641429Y-74051510D01*
X127548404Y-74119096D01*
X127442993Y-74246516D01*
X127372586Y-74396140D01*
X127372586Y-74396141D01*
X127341600Y-74558577D01*
X127341600Y-74558579D01*
X127341600Y-74558580D01*
X127351983Y-74723615D01*
X127351983Y-74723618D01*
X127403084Y-74880887D01*
X127491691Y-75020510D01*
X127612233Y-75133707D01*
X127612235Y-75133708D01*
X127612237Y-75133710D01*
X127628279Y-75142529D01*
X127677544Y-75192075D01*
X127692201Y-75260390D01*
X127667598Y-75325784D01*
X127641429Y-75351510D01*
X127548404Y-75419096D01*
X127442993Y-75546516D01*
X127372586Y-75696140D01*
X127372586Y-75696141D01*
X127341600Y-75858577D01*
X127341600Y-75858579D01*
X127341600Y-75858580D01*
X127351983Y-76023615D01*
X127351983Y-76023618D01*
X127403084Y-76180887D01*
X127491691Y-76320510D01*
X127612233Y-76433707D01*
X127612235Y-76433708D01*
X127612237Y-76433710D01*
X127628279Y-76442529D01*
X127677544Y-76492075D01*
X127692201Y-76560390D01*
X127667598Y-76625784D01*
X127641429Y-76651510D01*
X127548404Y-76719096D01*
X127442993Y-76846516D01*
X127385510Y-76968675D01*
X127372586Y-76996141D01*
X127341600Y-77158577D01*
X127341600Y-77158579D01*
X127341600Y-77158580D01*
X127351983Y-77323615D01*
X127351983Y-77323618D01*
X127403084Y-77480887D01*
X127491691Y-77620510D01*
X127612233Y-77733707D01*
X127612235Y-77733708D01*
X127612237Y-77733710D01*
X127628279Y-77742529D01*
X127677544Y-77792075D01*
X127692201Y-77860390D01*
X127667598Y-77925784D01*
X127641429Y-77951510D01*
X127548404Y-78019096D01*
X127442993Y-78146516D01*
X127372586Y-78296140D01*
X127372586Y-78296141D01*
X127341600Y-78458577D01*
X127341600Y-78458579D01*
X127341600Y-78458580D01*
X101853188Y-78458580D01*
X101848017Y-78376384D01*
X101796916Y-78219113D01*
X101708309Y-78079490D01*
X101704104Y-78075541D01*
X101587766Y-77966292D01*
X101587761Y-77966288D01*
X101571718Y-77957469D01*
X101522454Y-77907923D01*
X101507798Y-77839607D01*
X101532402Y-77774213D01*
X101558565Y-77748493D01*
X101651597Y-77680902D01*
X101757005Y-77553486D01*
X101827414Y-77403859D01*
X101858400Y-77241423D01*
X101848017Y-77076384D01*
X101796916Y-76919113D01*
X101708309Y-76779490D01*
X101662192Y-76736183D01*
X101587766Y-76666292D01*
X101587761Y-76666288D01*
X101571718Y-76657469D01*
X101522454Y-76607923D01*
X101507798Y-76539607D01*
X101532402Y-76474213D01*
X101558565Y-76448493D01*
X101651597Y-76380902D01*
X101757005Y-76253486D01*
X101827414Y-76103859D01*
X101858400Y-75941423D01*
X101848017Y-75776384D01*
X101796916Y-75619113D01*
X101708309Y-75479490D01*
X101616145Y-75392942D01*
X101587766Y-75366292D01*
X101587761Y-75366288D01*
X101571718Y-75357469D01*
X101522454Y-75307923D01*
X101507798Y-75239607D01*
X101532402Y-75174213D01*
X101558565Y-75148493D01*
X101651597Y-75080902D01*
X101757005Y-74953486D01*
X101827414Y-74803859D01*
X101858400Y-74641423D01*
X101848017Y-74476384D01*
X101796916Y-74319113D01*
X101708309Y-74179490D01*
X101643996Y-74119096D01*
X101587766Y-74066292D01*
X101587761Y-74066288D01*
X101571718Y-74057469D01*
X101522454Y-74007923D01*
X101507798Y-73939607D01*
X101532402Y-73874213D01*
X101558565Y-73848493D01*
X101651597Y-73780902D01*
X101757005Y-73653486D01*
X101827414Y-73503859D01*
X101858400Y-73341423D01*
X101848017Y-73176384D01*
X101796916Y-73019113D01*
X101708309Y-72879490D01*
X101708308Y-72879489D01*
X101587766Y-72766292D01*
X101587761Y-72766288D01*
X101571718Y-72757469D01*
X101522454Y-72707923D01*
X101507798Y-72639607D01*
X101532402Y-72574213D01*
X101558565Y-72548493D01*
X101651597Y-72480902D01*
X101757005Y-72353486D01*
X101827414Y-72203859D01*
X101858400Y-72041423D01*
X101848017Y-71876384D01*
X101796916Y-71719113D01*
X101708309Y-71579490D01*
X101643996Y-71519096D01*
X101587766Y-71466292D01*
X101587761Y-71466288D01*
X101571718Y-71457469D01*
X101522454Y-71407923D01*
X101507798Y-71339607D01*
X101532402Y-71274213D01*
X101558565Y-71248493D01*
X101651597Y-71180902D01*
X101757005Y-71053486D01*
X101827414Y-70903859D01*
X101858400Y-70741423D01*
X101852648Y-70650000D01*
X111800000Y-70650000D01*
X111800000Y-77650000D01*
X117400000Y-77650000D01*
X117400000Y-70650000D01*
X111800000Y-70650000D01*
X101852648Y-70650000D01*
X101848017Y-70576384D01*
X101796916Y-70419113D01*
X101708309Y-70279490D01*
X101697458Y-70269300D01*
X101587766Y-70166292D01*
X101587761Y-70166288D01*
X101571718Y-70157469D01*
X101522454Y-70107923D01*
X101507798Y-70039607D01*
X101532402Y-69974213D01*
X101558565Y-69948493D01*
X101651597Y-69880902D01*
X101757005Y-69753486D01*
X101827414Y-69603859D01*
X101858400Y-69441423D01*
X101848017Y-69276384D01*
X101796916Y-69119113D01*
X101737979Y-69026242D01*
X101708309Y-68979489D01*
X101704024Y-68975466D01*
X101668629Y-68915226D01*
X101671421Y-68845412D01*
X101711514Y-68788190D01*
X101753695Y-68766178D01*
X101767410Y-68762116D01*
X101767412Y-68762114D01*
X101767416Y-68762113D01*
X101848454Y-68713375D01*
X101854179Y-68709932D01*
X101905879Y-68662933D01*
X101905882Y-68662928D01*
X101905890Y-68662922D01*
X101937198Y-68628890D01*
X101937200Y-68628887D01*
X101960862Y-68580902D01*
X101981980Y-68538078D01*
X102000063Y-68470589D01*
X102008831Y-68397251D01*
X101965258Y-66567190D01*
X101958624Y-66514748D01*
X101947272Y-66465793D01*
X101940411Y-66441598D01*
X101905619Y-66380996D01*
X101889312Y-66313058D01*
X101903281Y-66261785D01*
X101930903Y-66208983D01*
X101950588Y-66141944D01*
X101961100Y-66068832D01*
X101961100Y-63777372D01*
X101954953Y-63721223D01*
X101943342Y-63668832D01*
X101935561Y-63641108D01*
X101884771Y-63553516D01*
X101838604Y-63501071D01*
X101838599Y-63501065D01*
X101805068Y-63469213D01*
X101714988Y-63422985D01*
X101714974Y-63422980D01*
X101647797Y-63403824D01*
X101574601Y-63393883D01*
X98573752Y-63417327D01*
X98573745Y-63417327D01*
X98517239Y-63424008D01*
X98517236Y-63424008D01*
X98517232Y-63424009D01*
X98517226Y-63424010D01*
X98517228Y-63424010D01*
X98464576Y-63436201D01*
X98464562Y-63436205D01*
X98436537Y-63444380D01*
X98406288Y-63462368D01*
X98349508Y-63496136D01*
X98349506Y-63496137D01*
X98349507Y-63496137D01*
X98297576Y-63542879D01*
X98266086Y-63576770D01*
X98220857Y-63667355D01*
X98220857Y-63667357D01*
X98220857Y-63667358D01*
X98202441Y-63734757D01*
X98202440Y-63734761D01*
X98202439Y-63734767D01*
X98193311Y-63808047D01*
X98193311Y-63808049D01*
X98208973Y-64638160D01*
X98190556Y-64705559D01*
X98138625Y-64752302D01*
X98084995Y-64764499D01*
X96293900Y-64764499D01*
X96226861Y-64744814D01*
X96181106Y-64692010D01*
X96169900Y-64640499D01*
X96169900Y-62750000D01*
X107440000Y-62750000D01*
X107448186Y-62916629D01*
X107448186Y-62916635D01*
X107448187Y-62916637D01*
X107472666Y-63081660D01*
X107513203Y-63243490D01*
X107569399Y-63400548D01*
X107569403Y-63400557D01*
X107569405Y-63400562D01*
X107601875Y-63469213D01*
X107640735Y-63551377D01*
X107694519Y-63641109D01*
X107726502Y-63694469D01*
X107744768Y-63719098D01*
X107825871Y-63828455D01*
X107825876Y-63828461D01*
X107825882Y-63828469D01*
X107825890Y-63828478D01*
X107825891Y-63828479D01*
X107937917Y-63952082D01*
X108043376Y-64047663D01*
X108061531Y-64064118D01*
X108195531Y-64163498D01*
X108214431Y-64174826D01*
X108338622Y-64249264D01*
X108338625Y-64249265D01*
X108338626Y-64249266D01*
X108489438Y-64320595D01*
X108489446Y-64320598D01*
X108489451Y-64320600D01*
X108554312Y-64343807D01*
X108646516Y-64376799D01*
X108808346Y-64417335D01*
X108973371Y-64441814D01*
X109140000Y-64450000D01*
X109306629Y-64441814D01*
X109471654Y-64417335D01*
X109633484Y-64376799D01*
X109790562Y-64320595D01*
X109941374Y-64249266D01*
X110084469Y-64163498D01*
X110218469Y-64064118D01*
X110342082Y-63952082D01*
X110454118Y-63828469D01*
X110553498Y-63694469D01*
X110639266Y-63551374D01*
X110710595Y-63400562D01*
X110766799Y-63243484D01*
X110807335Y-63081654D01*
X110831814Y-62916629D01*
X110840000Y-62750000D01*
X113600000Y-62750000D01*
X113608186Y-62916629D01*
X113608186Y-62916635D01*
X113608187Y-62916637D01*
X113632666Y-63081660D01*
X113673203Y-63243490D01*
X113729399Y-63400548D01*
X113729403Y-63400557D01*
X113729405Y-63400562D01*
X113761875Y-63469213D01*
X113800735Y-63551377D01*
X113854519Y-63641109D01*
X113886502Y-63694469D01*
X113904768Y-63719098D01*
X113985871Y-63828455D01*
X113985876Y-63828461D01*
X113985882Y-63828469D01*
X113985890Y-63828478D01*
X113985891Y-63828479D01*
X114097917Y-63952082D01*
X114203376Y-64047663D01*
X114221531Y-64064118D01*
X114355531Y-64163498D01*
X114374431Y-64174826D01*
X114498622Y-64249264D01*
X114498625Y-64249265D01*
X114498626Y-64249266D01*
X114649438Y-64320595D01*
X114649446Y-64320598D01*
X114649451Y-64320600D01*
X114714312Y-64343807D01*
X114806516Y-64376799D01*
X114968346Y-64417335D01*
X115133371Y-64441814D01*
X115300000Y-64450000D01*
X115466629Y-64441814D01*
X115631654Y-64417335D01*
X115793484Y-64376799D01*
X115950562Y-64320595D01*
X116101374Y-64249266D01*
X116244469Y-64163498D01*
X116378469Y-64064118D01*
X116502082Y-63952082D01*
X116614118Y-63828469D01*
X116713498Y-63694469D01*
X116799266Y-63551374D01*
X116870595Y-63400562D01*
X116926799Y-63243484D01*
X116967335Y-63081654D01*
X116991814Y-62916629D01*
X117000000Y-62750000D01*
X122900000Y-62750000D01*
X122908186Y-62916629D01*
X122908186Y-62916635D01*
X122908187Y-62916637D01*
X122932666Y-63081660D01*
X122973203Y-63243490D01*
X123029399Y-63400548D01*
X123029403Y-63400557D01*
X123029405Y-63400562D01*
X123061875Y-63469213D01*
X123100735Y-63551377D01*
X123154519Y-63641109D01*
X123186502Y-63694469D01*
X123204768Y-63719098D01*
X123285871Y-63828455D01*
X123285876Y-63828461D01*
X123285882Y-63828469D01*
X123285890Y-63828478D01*
X123285891Y-63828479D01*
X123397917Y-63952082D01*
X123503376Y-64047663D01*
X123521531Y-64064118D01*
X123655531Y-64163498D01*
X123674431Y-64174826D01*
X123798622Y-64249264D01*
X123798625Y-64249265D01*
X123798626Y-64249266D01*
X123949438Y-64320595D01*
X123949446Y-64320598D01*
X123949451Y-64320600D01*
X124014312Y-64343807D01*
X124106516Y-64376799D01*
X124268346Y-64417335D01*
X124433371Y-64441814D01*
X124600000Y-64450000D01*
X124766629Y-64441814D01*
X124931654Y-64417335D01*
X125093484Y-64376799D01*
X125250562Y-64320595D01*
X125401374Y-64249266D01*
X125544469Y-64163498D01*
X125678469Y-64064118D01*
X125802082Y-63952082D01*
X125914118Y-63828469D01*
X126013498Y-63694469D01*
X126099266Y-63551374D01*
X126170595Y-63400562D01*
X126226799Y-63243484D01*
X126267335Y-63081654D01*
X126291814Y-62916629D01*
X126300000Y-62750000D01*
X126291814Y-62583371D01*
X126267335Y-62418346D01*
X126226799Y-62256516D01*
X126170595Y-62099438D01*
X126099266Y-61948626D01*
X126013498Y-61805531D01*
X125914118Y-61671531D01*
X125886826Y-61641419D01*
X125802082Y-61547917D01*
X125678479Y-61435891D01*
X125678478Y-61435890D01*
X125678469Y-61435882D01*
X125678461Y-61435876D01*
X125678455Y-61435871D01*
X125544474Y-61336506D01*
X125544469Y-61336502D01*
X125544459Y-61336496D01*
X125401377Y-61250735D01*
X125320764Y-61212608D01*
X125250562Y-61179405D01*
X125250558Y-61179403D01*
X125250557Y-61179403D01*
X125250548Y-61179399D01*
X125093490Y-61123203D01*
X125093488Y-61123202D01*
X125093484Y-61123201D01*
X125013045Y-61103052D01*
X124931660Y-61082666D01*
X124931655Y-61082665D01*
X124931654Y-61082665D01*
X124821276Y-61066292D01*
X124766637Y-61058187D01*
X124766635Y-61058186D01*
X124766629Y-61058186D01*
X124600000Y-61050000D01*
X124433371Y-61058186D01*
X124433365Y-61058186D01*
X124433362Y-61058187D01*
X124268339Y-61082666D01*
X124146417Y-61113206D01*
X124106516Y-61123201D01*
X124106513Y-61123201D01*
X124106509Y-61123203D01*
X123949451Y-61179399D01*
X123949442Y-61179403D01*
X123798622Y-61250735D01*
X123655540Y-61336496D01*
X123655525Y-61336506D01*
X123521544Y-61435871D01*
X123521520Y-61435891D01*
X123397917Y-61547917D01*
X123285891Y-61671520D01*
X123285871Y-61671544D01*
X123186506Y-61805525D01*
X123186496Y-61805540D01*
X123100735Y-61948622D01*
X123029403Y-62099442D01*
X123029399Y-62099451D01*
X122973203Y-62256509D01*
X122932666Y-62418339D01*
X122932664Y-62418346D01*
X122932665Y-62418346D01*
X122908186Y-62583371D01*
X122900000Y-62750000D01*
X117000000Y-62750000D01*
X116991814Y-62583371D01*
X116967335Y-62418346D01*
X116926799Y-62256516D01*
X116870595Y-62099438D01*
X116799266Y-61948626D01*
X116713498Y-61805531D01*
X116614118Y-61671531D01*
X116586826Y-61641419D01*
X116502082Y-61547917D01*
X116378479Y-61435891D01*
X116378478Y-61435890D01*
X116378469Y-61435882D01*
X116378461Y-61435876D01*
X116378455Y-61435871D01*
X116244474Y-61336506D01*
X116244469Y-61336502D01*
X116244459Y-61336496D01*
X116101377Y-61250735D01*
X116020764Y-61212608D01*
X115950562Y-61179405D01*
X115950558Y-61179403D01*
X115950557Y-61179403D01*
X115950548Y-61179399D01*
X115793490Y-61123203D01*
X115793488Y-61123202D01*
X115793484Y-61123201D01*
X115713046Y-61103052D01*
X115631660Y-61082666D01*
X115631655Y-61082665D01*
X115631654Y-61082665D01*
X115521276Y-61066292D01*
X115466637Y-61058187D01*
X115466635Y-61058186D01*
X115466629Y-61058186D01*
X115300000Y-61050000D01*
X115133371Y-61058186D01*
X115133365Y-61058186D01*
X115133362Y-61058187D01*
X114968339Y-61082666D01*
X114846417Y-61113206D01*
X114806516Y-61123201D01*
X114806513Y-61123201D01*
X114806509Y-61123203D01*
X114649451Y-61179399D01*
X114649442Y-61179403D01*
X114498622Y-61250735D01*
X114355540Y-61336496D01*
X114355525Y-61336506D01*
X114221544Y-61435871D01*
X114221520Y-61435891D01*
X114097917Y-61547917D01*
X113985891Y-61671520D01*
X113985871Y-61671544D01*
X113886506Y-61805525D01*
X113886496Y-61805540D01*
X113800735Y-61948622D01*
X113729403Y-62099442D01*
X113729399Y-62099451D01*
X113673203Y-62256509D01*
X113632666Y-62418339D01*
X113632664Y-62418346D01*
X113632665Y-62418346D01*
X113608186Y-62583371D01*
X113600000Y-62750000D01*
X110840000Y-62750000D01*
X110831814Y-62583371D01*
X110807335Y-62418346D01*
X110766799Y-62256516D01*
X110710595Y-62099438D01*
X110639266Y-61948626D01*
X110553498Y-61805531D01*
X110454118Y-61671531D01*
X110426826Y-61641419D01*
X110342082Y-61547917D01*
X110218479Y-61435891D01*
X110218478Y-61435890D01*
X110218469Y-61435882D01*
X110218461Y-61435876D01*
X110218455Y-61435871D01*
X110084474Y-61336506D01*
X110084469Y-61336502D01*
X110084459Y-61336496D01*
X109941377Y-61250735D01*
X109860764Y-61212608D01*
X109790562Y-61179405D01*
X109790558Y-61179403D01*
X109790557Y-61179403D01*
X109790548Y-61179399D01*
X109633490Y-61123203D01*
X109633488Y-61123202D01*
X109633484Y-61123201D01*
X109553046Y-61103052D01*
X109471660Y-61082666D01*
X109471655Y-61082665D01*
X109471654Y-61082665D01*
X109361276Y-61066292D01*
X109306637Y-61058187D01*
X109306635Y-61058186D01*
X109306629Y-61058186D01*
X109140000Y-61050000D01*
X108973371Y-61058186D01*
X108973365Y-61058186D01*
X108973362Y-61058187D01*
X108808339Y-61082666D01*
X108686416Y-61113206D01*
X108646516Y-61123201D01*
X108646513Y-61123201D01*
X108646509Y-61123203D01*
X108489451Y-61179399D01*
X108489442Y-61179403D01*
X108338622Y-61250735D01*
X108195540Y-61336496D01*
X108195525Y-61336506D01*
X108061544Y-61435871D01*
X108061520Y-61435891D01*
X107937917Y-61547917D01*
X107825891Y-61671520D01*
X107825871Y-61671544D01*
X107726506Y-61805525D01*
X107726496Y-61805540D01*
X107640735Y-61948622D01*
X107569403Y-62099442D01*
X107569399Y-62099451D01*
X107513203Y-62256509D01*
X107472666Y-62418339D01*
X107472664Y-62418346D01*
X107472665Y-62418346D01*
X107448186Y-62583371D01*
X107440000Y-62750000D01*
X96169900Y-62750000D01*
X96169900Y-61558580D01*
X98841600Y-61558580D01*
X98851983Y-61723615D01*
X98851983Y-61723618D01*
X98903084Y-61880887D01*
X98991691Y-62020510D01*
X99112233Y-62133707D01*
X99112241Y-62133713D01*
X99257143Y-62213373D01*
X99257147Y-62213375D01*
X99417317Y-62254500D01*
X99417321Y-62254500D01*
X101241176Y-62254500D01*
X101241178Y-62254500D01*
X101241183Y-62254499D01*
X101241187Y-62254499D01*
X101254510Y-62252815D01*
X101364061Y-62238976D01*
X101517814Y-62178101D01*
X101651597Y-62080902D01*
X101757005Y-61953486D01*
X101827414Y-61803859D01*
X101858400Y-61641423D01*
X101848017Y-61476384D01*
X101796916Y-61319113D01*
X101708309Y-61179490D01*
X101708308Y-61179489D01*
X101587766Y-61066292D01*
X101587758Y-61066286D01*
X101442856Y-60986626D01*
X101442848Y-60986623D01*
X101282684Y-60945500D01*
X101282683Y-60945500D01*
X99458822Y-60945500D01*
X99458812Y-60945500D01*
X99335939Y-60961024D01*
X99335936Y-60961024D01*
X99182187Y-61021898D01*
X99182178Y-61021903D01*
X99048405Y-61119095D01*
X98942993Y-61246516D01*
X98872586Y-61396140D01*
X98872586Y-61396141D01*
X98841600Y-61558577D01*
X98841600Y-61558579D01*
X98841600Y-61558580D01*
X96169900Y-61558580D01*
X96169900Y-59737808D01*
X96169899Y-59737798D01*
X96163969Y-59682637D01*
X96152763Y-59631126D01*
X96145414Y-59604339D01*
X96145413Y-59604338D01*
X96145413Y-59604336D01*
X96117639Y-59555563D01*
X96095311Y-59516352D01*
X96049556Y-59463548D01*
X96016269Y-59431429D01*
X95926551Y-59384497D01*
X95926550Y-59384496D01*
X95926547Y-59384495D01*
X95859517Y-59364813D01*
X95859505Y-59364810D01*
X95786401Y-59354300D01*
X95786400Y-59354300D01*
X93037200Y-59354300D01*
X93037191Y-59354300D01*
X92982038Y-59360230D01*
X92930516Y-59371439D01*
X92903736Y-59378786D01*
X92815753Y-59428888D01*
X92762951Y-59474640D01*
X92730830Y-59507929D01*
X92683895Y-59597652D01*
X92664213Y-59664682D01*
X92664210Y-59664694D01*
X92653700Y-59737798D01*
X92653700Y-63807808D01*
X92659630Y-63862961D01*
X92670839Y-63914483D01*
X92678186Y-63941262D01*
X92700055Y-63979666D01*
X92716122Y-64047663D01*
X92692877Y-64113553D01*
X92637699Y-64156415D01*
X92588809Y-64164976D01*
X92362199Y-64158593D01*
X92303296Y-64163671D01*
X92248306Y-64174826D01*
X92217936Y-64182928D01*
X92129952Y-64233030D01*
X92077150Y-64278782D01*
X92045029Y-64312071D01*
X91998096Y-64401791D01*
X91978411Y-64468824D01*
X91967900Y-64541936D01*
X91967900Y-68506808D01*
X91973830Y-68561961D01*
X91985039Y-68613483D01*
X91992386Y-68640263D01*
X92032056Y-68709927D01*
X92042489Y-68728248D01*
X92051785Y-68738976D01*
X92088240Y-68781048D01*
X92088243Y-68781051D01*
X92088244Y-68781052D01*
X92121531Y-68813171D01*
X92211249Y-68860103D01*
X92278288Y-68879788D01*
X92278292Y-68879788D01*
X92278294Y-68879789D01*
X92290107Y-68881487D01*
X92351400Y-68890300D01*
X93108322Y-68890300D01*
X93175361Y-68909985D01*
X93221116Y-68962789D01*
X93231060Y-69031947D01*
X93202035Y-69095503D01*
X93192200Y-69104658D01*
X93192297Y-69104755D01*
X93186026Y-69111025D01*
X93101244Y-69224281D01*
X93101241Y-69224288D01*
X93051800Y-69356839D01*
X93051800Y-69356841D01*
X93045500Y-69415426D01*
X93045500Y-69984553D01*
X93045501Y-69984562D01*
X93051800Y-70043159D01*
X93101239Y-70175709D01*
X93101241Y-70175713D01*
X93101242Y-70175715D01*
X93186026Y-70288974D01*
X93299285Y-70373758D01*
X93299289Y-70373759D01*
X93299290Y-70373760D01*
X93325332Y-70383473D01*
X93381266Y-70425343D01*
X93405684Y-70490807D01*
X93406000Y-70499655D01*
X93406000Y-70500344D01*
X93386315Y-70567383D01*
X93333511Y-70613138D01*
X93325337Y-70616525D01*
X93299284Y-70626242D01*
X93299281Y-70626244D01*
X93186026Y-70711026D01*
X93101244Y-70824281D01*
X93101241Y-70824288D01*
X93051800Y-70956839D01*
X93051800Y-70956841D01*
X93045500Y-71015426D01*
X93045500Y-71584553D01*
X93045501Y-71584562D01*
X93051800Y-71643159D01*
X93101239Y-71775709D01*
X93101241Y-71775713D01*
X93101242Y-71775715D01*
X93186026Y-71888974D01*
X93299285Y-71973758D01*
X93431843Y-72023200D01*
X93490443Y-72029500D01*
X94159556Y-72029499D01*
X94218157Y-72023200D01*
X94350715Y-71973758D01*
X94463974Y-71888974D01*
X94548758Y-71775715D01*
X94569870Y-71719112D01*
X94583819Y-71681715D01*
X94625690Y-71625781D01*
X94691155Y-71601365D01*
X94759428Y-71616217D01*
X94808833Y-71665623D01*
X94816181Y-71681715D01*
X94851239Y-71775709D01*
X94851241Y-71775713D01*
X94851242Y-71775715D01*
X94936026Y-71888974D01*
X95049285Y-71973758D01*
X95181843Y-72023200D01*
X95240443Y-72029500D01*
X95909556Y-72029499D01*
X95968157Y-72023200D01*
X96100715Y-71973758D01*
X96213974Y-71888974D01*
X96298758Y-71775715D01*
X96348200Y-71643157D01*
X96352693Y-71601365D01*
X96354499Y-71584573D01*
X96354499Y-71584562D01*
X96354500Y-71584557D01*
X96354499Y-71111383D01*
X96374183Y-71044345D01*
X96390813Y-71023708D01*
X97596703Y-69817819D01*
X97658027Y-69784334D01*
X97684385Y-69781500D01*
X98901069Y-69781500D01*
X98968108Y-69801185D01*
X98985017Y-69816220D01*
X98986004Y-69815170D01*
X99112233Y-69933707D01*
X99112235Y-69933708D01*
X99112237Y-69933710D01*
X99128279Y-69942529D01*
X99177544Y-69992075D01*
X99192201Y-70060390D01*
X99167598Y-70125784D01*
X99141429Y-70151510D01*
X99048404Y-70219096D01*
X98942993Y-70346516D01*
X98873263Y-70494702D01*
X98872586Y-70496141D01*
X98841600Y-70658577D01*
X98841600Y-70658579D01*
X98841600Y-70658580D01*
X98851983Y-70823615D01*
X98851983Y-70823618D01*
X98903084Y-70980887D01*
X98991691Y-71120510D01*
X99112233Y-71233707D01*
X99112235Y-71233708D01*
X99112237Y-71233710D01*
X99128279Y-71242529D01*
X99177544Y-71292075D01*
X99192201Y-71360390D01*
X99167598Y-71425784D01*
X99141429Y-71451510D01*
X99048404Y-71519096D01*
X98942993Y-71646516D01*
X98882196Y-71775718D01*
X98872586Y-71796141D01*
X98841600Y-71958577D01*
X98841600Y-71958579D01*
X98841600Y-71958580D01*
X98851983Y-72123615D01*
X98851983Y-72123618D01*
X98903084Y-72280887D01*
X98991691Y-72420510D01*
X99112233Y-72533707D01*
X99112235Y-72533708D01*
X99112237Y-72533710D01*
X99128279Y-72542529D01*
X99177544Y-72592075D01*
X99192201Y-72660390D01*
X99167598Y-72725784D01*
X99141429Y-72751510D01*
X99048404Y-72819096D01*
X98942993Y-72946516D01*
X98872586Y-73096140D01*
X98872586Y-73096141D01*
X98841600Y-73258577D01*
X98841600Y-73258579D01*
X98841600Y-73258580D01*
X98851983Y-73423615D01*
X98851983Y-73423618D01*
X98903084Y-73580887D01*
X98991691Y-73720510D01*
X99112233Y-73833707D01*
X99112235Y-73833708D01*
X99112237Y-73833710D01*
X99128279Y-73842529D01*
X99177544Y-73892075D01*
X99192201Y-73960390D01*
X99167598Y-74025784D01*
X99141429Y-74051510D01*
X99048404Y-74119096D01*
X98942993Y-74246516D01*
X98872586Y-74396140D01*
X98872586Y-74396141D01*
X98841600Y-74558577D01*
X98841600Y-74558579D01*
X98841600Y-74558580D01*
X98851983Y-74723615D01*
X98851983Y-74723618D01*
X98903084Y-74880887D01*
X98991691Y-75020510D01*
X99112233Y-75133707D01*
X99112235Y-75133708D01*
X99112237Y-75133710D01*
X99128279Y-75142529D01*
X99177544Y-75192075D01*
X99192201Y-75260390D01*
X99167598Y-75325784D01*
X99141429Y-75351510D01*
X99048404Y-75419096D01*
X98942993Y-75546516D01*
X98872586Y-75696140D01*
X98872586Y-75696141D01*
X98841600Y-75858577D01*
X98841600Y-75858579D01*
X98841600Y-75858580D01*
X98851983Y-76023615D01*
X98851983Y-76023618D01*
X98903084Y-76180887D01*
X98991691Y-76320510D01*
X99112233Y-76433707D01*
X99112235Y-76433708D01*
X99112237Y-76433710D01*
X99128279Y-76442529D01*
X99177544Y-76492075D01*
X99192201Y-76560390D01*
X99167598Y-76625784D01*
X99141429Y-76651510D01*
X99048401Y-76719098D01*
X99048401Y-76719099D01*
X99001708Y-76775541D01*
X98943808Y-76814648D01*
X98906165Y-76820500D01*
X96990666Y-76820500D01*
X96947334Y-76812682D01*
X96918158Y-76801800D01*
X96918155Y-76801799D01*
X96859565Y-76795500D01*
X96290446Y-76795500D01*
X96290437Y-76795501D01*
X96231840Y-76801800D01*
X96099290Y-76851239D01*
X96099281Y-76851244D01*
X95986027Y-76936024D01*
X95922557Y-77020811D01*
X95866623Y-77062682D01*
X95823290Y-77070500D01*
X95756412Y-77070500D01*
X95689373Y-77050815D01*
X95668731Y-77034181D01*
X95603228Y-76968678D01*
X95603225Y-76968676D01*
X95603223Y-76968674D01*
X95489055Y-76910502D01*
X95489054Y-76910501D01*
X95489051Y-76910500D01*
X95489052Y-76910500D01*
X95394339Y-76895500D01*
X95394334Y-76895500D01*
X94155666Y-76895500D01*
X94155661Y-76895500D01*
X94060947Y-76910500D01*
X94003054Y-76939999D01*
X93946777Y-76968674D01*
X93946775Y-76968675D01*
X93946776Y-76968675D01*
X93946771Y-76968678D01*
X93856178Y-77059271D01*
X93856175Y-77059276D01*
X93856174Y-77059277D01*
X93842807Y-77085511D01*
X93798000Y-77173447D01*
X93783000Y-77268160D01*
X93783000Y-77631839D01*
X93799156Y-77733846D01*
X93790201Y-77803140D01*
X93745205Y-77856592D01*
X93678453Y-77877231D01*
X93620389Y-77863729D01*
X93614055Y-77860501D01*
X93614052Y-77860500D01*
X93519339Y-77845500D01*
X93519334Y-77845500D01*
X92933556Y-77845500D01*
X92866517Y-77825815D01*
X92845875Y-77809181D01*
X92342771Y-77306077D01*
X92326643Y-77286216D01*
X92320570Y-77276921D01*
X92320569Y-77276920D01*
X92320568Y-77276918D01*
X92292218Y-77254852D01*
X92286472Y-77249778D01*
X92283613Y-77246919D01*
X92265433Y-77233938D01*
X92263405Y-77232426D01*
X92220619Y-77199125D01*
X92220617Y-77199124D01*
X92213627Y-77195341D01*
X92206479Y-77191847D01*
X92154538Y-77176383D01*
X92152097Y-77175601D01*
X92100826Y-77157999D01*
X92093016Y-77156696D01*
X92085086Y-77155707D01*
X92033846Y-77157827D01*
X92030954Y-77157947D01*
X92028395Y-77158000D01*
X91875401Y-77158000D01*
X91808362Y-77138315D01*
X91762607Y-77085511D01*
X91759227Y-77077354D01*
X91748758Y-77049285D01*
X91748755Y-77049281D01*
X91748755Y-77049280D01*
X91663974Y-76936026D01*
X91550718Y-76851244D01*
X91550717Y-76851243D01*
X91550715Y-76851242D01*
X91498035Y-76831593D01*
X91418159Y-76801800D01*
X91359565Y-76795500D01*
X90790446Y-76795500D01*
X90790437Y-76795501D01*
X90731840Y-76801800D01*
X90599290Y-76851239D01*
X90599281Y-76851244D01*
X90486026Y-76936026D01*
X90401244Y-77049281D01*
X90401241Y-77049288D01*
X90351800Y-77181839D01*
X90351800Y-77181841D01*
X90345500Y-77240426D01*
X90345500Y-77834553D01*
X90345501Y-77834562D01*
X90351800Y-77893159D01*
X90401239Y-78025709D01*
X90401241Y-78025713D01*
X90401242Y-78025715D01*
X90486026Y-78138974D01*
X90599285Y-78223758D01*
X90731843Y-78273200D01*
X90790443Y-78279500D01*
X91359556Y-78279499D01*
X91418157Y-78273200D01*
X91550715Y-78223758D01*
X91663974Y-78138974D01*
X91689325Y-78105108D01*
X91745256Y-78063240D01*
X91814947Y-78058255D01*
X91876271Y-78091739D01*
X91909756Y-78153062D01*
X91911064Y-78198817D01*
X91908000Y-78218164D01*
X91908000Y-78581839D01*
X91923000Y-78676552D01*
X91954422Y-78738219D01*
X91959657Y-78766094D01*
X91970859Y-78774480D01*
X91979768Y-78788788D01*
X91981178Y-78790728D01*
X92071771Y-78881321D01*
X92071773Y-78881322D01*
X92071777Y-78881326D01*
X92185945Y-78939498D01*
X92185946Y-78939498D01*
X92185948Y-78939499D01*
X92185947Y-78939499D01*
X92280661Y-78954500D01*
X92280666Y-78954500D01*
X92396500Y-78954500D01*
X92463539Y-78974185D01*
X92509294Y-79026989D01*
X92520500Y-79078500D01*
X92520500Y-79656796D01*
X92500815Y-79723835D01*
X92478728Y-79749610D01*
X92406507Y-79813593D01*
X92406500Y-79813601D01*
X92316214Y-79944402D01*
X92259850Y-80093018D01*
X92240693Y-80250799D01*
X92240693Y-80250800D01*
X92259850Y-80408581D01*
X92284261Y-80472945D01*
X92313212Y-80549283D01*
X92316214Y-80557197D01*
X92359909Y-80620500D01*
X92406502Y-80688001D01*
X92406504Y-80688003D01*
X92406506Y-80688005D01*
X92525469Y-80793398D01*
X92525471Y-80793399D01*
X92666207Y-80867263D01*
X92743367Y-80886281D01*
X92820528Y-80905300D01*
X92820529Y-80905300D01*
X92979472Y-80905300D01*
X93030911Y-80892621D01*
X93133793Y-80867263D01*
X93274529Y-80793399D01*
X93393498Y-80688001D01*
X93483787Y-80557195D01*
X93540149Y-80408582D01*
X93559307Y-80250800D01*
X93540149Y-80093018D01*
X93483787Y-79944405D01*
X93393498Y-79813599D01*
X93393494Y-79813596D01*
X93393492Y-79813593D01*
X93321272Y-79749610D01*
X93284146Y-79690420D01*
X93279500Y-79656796D01*
X93279500Y-79078500D01*
X93299185Y-79011461D01*
X93351989Y-78965706D01*
X93403500Y-78954500D01*
X93519339Y-78954500D01*
X93614052Y-78939499D01*
X93614053Y-78939498D01*
X93614055Y-78939498D01*
X93620385Y-78936272D01*
X93689052Y-78923373D01*
X93753793Y-78949647D01*
X93794053Y-79006752D01*
X93799156Y-79066152D01*
X93783000Y-79168159D01*
X93783000Y-79531839D01*
X93798000Y-79626552D01*
X93814820Y-79659562D01*
X93856174Y-79740723D01*
X93856176Y-79740725D01*
X93856178Y-79740728D01*
X93946771Y-79831321D01*
X93946773Y-79831322D01*
X93946777Y-79831326D01*
X94060945Y-79889498D01*
X94060946Y-79889498D01*
X94060948Y-79889499D01*
X94070229Y-79892515D01*
X94069619Y-79894391D01*
X94121603Y-79919029D01*
X94158539Y-79978338D01*
X94162174Y-80026525D01*
X94153193Y-80100498D01*
X94153193Y-80100500D01*
X94172351Y-80258283D01*
X94172351Y-80258285D01*
X94186432Y-80295413D01*
X94191799Y-80365076D01*
X94158651Y-80426582D01*
X94106976Y-80455168D01*
X94107729Y-80457485D01*
X94098448Y-80460500D01*
X94049637Y-80485371D01*
X93984277Y-80518674D01*
X93984276Y-80518675D01*
X93984271Y-80518678D01*
X93893678Y-80609271D01*
X93893675Y-80609276D01*
X93893674Y-80609277D01*
X93888671Y-80619096D01*
X93835500Y-80723447D01*
X93820500Y-80818160D01*
X93820499Y-81181839D01*
X93836656Y-81283846D01*
X93827701Y-81353140D01*
X93782705Y-81406592D01*
X93715953Y-81427231D01*
X93657889Y-81413729D01*
X93651555Y-81410501D01*
X93651552Y-81410500D01*
X93556839Y-81395500D01*
X93556834Y-81395500D01*
X92318166Y-81395500D01*
X92318161Y-81395500D01*
X92223447Y-81410500D01*
X92173277Y-81436064D01*
X92109277Y-81468674D01*
X92109275Y-81468674D01*
X92109276Y-81468675D01*
X92109271Y-81468678D01*
X92069199Y-81508750D01*
X92007876Y-81542234D01*
X91938184Y-81537249D01*
X91882251Y-81495377D01*
X91857835Y-81429913D01*
X91860170Y-81400900D01*
X91859871Y-81400868D01*
X91866999Y-81334573D01*
X91866999Y-81334566D01*
X91867000Y-81334557D01*
X91866999Y-80740444D01*
X91860700Y-80681843D01*
X91837297Y-80619098D01*
X91811260Y-80549290D01*
X91811259Y-80549288D01*
X91811258Y-80549285D01*
X91726474Y-80436026D01*
X91641209Y-80372198D01*
X91613218Y-80351244D01*
X91613216Y-80351243D01*
X91613215Y-80351242D01*
X91613213Y-80351241D01*
X91613211Y-80351240D01*
X91535165Y-80322130D01*
X91479232Y-80280258D01*
X91454816Y-80214794D01*
X91454500Y-80205949D01*
X91454500Y-80170739D01*
X91474185Y-80103700D01*
X91526989Y-80057945D01*
X91535167Y-80054557D01*
X91550715Y-80048758D01*
X91663974Y-79963974D01*
X91748758Y-79850715D01*
X91798200Y-79718157D01*
X91802691Y-79676384D01*
X91804499Y-79659573D01*
X91804499Y-79659562D01*
X91804500Y-79659557D01*
X91804499Y-79065444D01*
X91798200Y-79006843D01*
X91798199Y-79006841D01*
X91775420Y-78945768D01*
X91755411Y-78892124D01*
X91754551Y-78880101D01*
X91753788Y-78879656D01*
X91744670Y-78868824D01*
X91703428Y-78813731D01*
X91663974Y-78761026D01*
X91563121Y-78685529D01*
X91550718Y-78676244D01*
X91550717Y-78676243D01*
X91550715Y-78676242D01*
X91498035Y-78656593D01*
X91418159Y-78626800D01*
X91359565Y-78620500D01*
X90790446Y-78620500D01*
X90790437Y-78620501D01*
X90731840Y-78626800D01*
X90599290Y-78676239D01*
X90599281Y-78676244D01*
X90486026Y-78761026D01*
X90401244Y-78874281D01*
X90401241Y-78874288D01*
X90351800Y-79006839D01*
X90351800Y-79006841D01*
X90345500Y-79065426D01*
X90345500Y-79659553D01*
X90345501Y-79659562D01*
X90351800Y-79718159D01*
X90401239Y-79850709D01*
X90401241Y-79850713D01*
X90401242Y-79850715D01*
X90486026Y-79963974D01*
X90539307Y-80003859D01*
X90599285Y-80048758D01*
X90599287Y-80048759D01*
X90614832Y-80054557D01*
X90670766Y-80096428D01*
X90695183Y-80161892D01*
X90695499Y-80170738D01*
X90695500Y-80263932D01*
X90675816Y-80330971D01*
X90645811Y-80363200D01*
X90548524Y-80436027D01*
X90463744Y-80549281D01*
X90463743Y-80549283D01*
X90463742Y-80549285D01*
X90460090Y-80559075D01*
X90414300Y-80681839D01*
X90414300Y-80681841D01*
X90408000Y-80740426D01*
X90408000Y-81178943D01*
X90388315Y-81245982D01*
X90371681Y-81266624D01*
X90106077Y-81532227D01*
X90086227Y-81548348D01*
X90076919Y-81554429D01*
X90054859Y-81582772D01*
X90049781Y-81588524D01*
X90046924Y-81591381D01*
X90046916Y-81591391D01*
X90033943Y-81609557D01*
X90032416Y-81611606D01*
X89999125Y-81654380D01*
X89995349Y-81661357D01*
X89991845Y-81668524D01*
X89976381Y-81720467D01*
X89975599Y-81722908D01*
X89957999Y-81774171D01*
X89956695Y-81781987D01*
X89955707Y-81789913D01*
X89957947Y-81844041D01*
X89958000Y-81846604D01*
X89958000Y-93206279D01*
X89955361Y-93231727D01*
X89953080Y-93242600D01*
X89957523Y-93278239D01*
X89958000Y-93285916D01*
X89958000Y-93289943D01*
X89961670Y-93311938D01*
X89962039Y-93314471D01*
X89968747Y-93368282D01*
X89971005Y-93375867D01*
X89973601Y-93383430D01*
X89984802Y-93404128D01*
X89999404Y-93431110D01*
X90000561Y-93433359D01*
X90024374Y-93482069D01*
X90028972Y-93488508D01*
X90033881Y-93494816D01*
X90073768Y-93531535D01*
X90075589Y-93533283D01*
X94022440Y-97480134D01*
X94055925Y-97541457D01*
X94050941Y-97611149D01*
X94009069Y-97667082D01*
X93943605Y-97691499D01*
X93895166Y-97685324D01*
X93785173Y-97648263D01*
X93584733Y-97580726D01*
X93218896Y-97500200D01*
X92846499Y-97459700D01*
X92846498Y-97459700D01*
X92471902Y-97459700D01*
X92471900Y-97459700D01*
X92099503Y-97500200D01*
X91733666Y-97580726D01*
X91477374Y-97667082D01*
X91378680Y-97700336D01*
X91378677Y-97700337D01*
X91378669Y-97700340D01*
X91038714Y-97857620D01*
X91038701Y-97857627D01*
X90771599Y-98018337D01*
X90717732Y-98050749D01*
X90625300Y-98121013D01*
X90419528Y-98277436D01*
X90419519Y-98277444D01*
X90147564Y-98535053D01*
X89905056Y-98820555D01*
X89694847Y-99130588D01*
X89519373Y-99461568D01*
X89439692Y-99661552D01*
X89396591Y-99716544D01*
X89330602Y-99739504D01*
X89262675Y-99723143D01*
X89214377Y-99672654D01*
X89200500Y-99615658D01*
X89200500Y-50088802D01*
X89479026Y-50088802D01*
X89499306Y-50462843D01*
X89499307Y-50462860D01*
X89559906Y-50832493D01*
X89559911Y-50832514D01*
X89660121Y-51193441D01*
X89660122Y-51193443D01*
X89798771Y-51541427D01*
X89798773Y-51541430D01*
X89798776Y-51541437D01*
X89974239Y-51872397D01*
X89974241Y-51872400D01*
X89974247Y-51872411D01*
X90184456Y-52182444D01*
X90413323Y-52451886D01*
X90426965Y-52467947D01*
X90698919Y-52725556D01*
X90997132Y-52952251D01*
X91318106Y-53145375D01*
X91318110Y-53145376D01*
X91318114Y-53145379D01*
X91658069Y-53302659D01*
X91658080Y-53302664D01*
X92013066Y-53422273D01*
X92378903Y-53502799D01*
X92751302Y-53543300D01*
X92751308Y-53543300D01*
X93125892Y-53543300D01*
X93125898Y-53543300D01*
X93498297Y-53502799D01*
X93864134Y-53422273D01*
X94219120Y-53302664D01*
X94559094Y-53145375D01*
X94880068Y-52952251D01*
X95178281Y-52725556D01*
X95450235Y-52467947D01*
X95692743Y-52182445D01*
X95814532Y-52002819D01*
X95902952Y-51872411D01*
X95902953Y-51872407D01*
X95902961Y-51872397D01*
X96078424Y-51541437D01*
X96217076Y-51193447D01*
X96317291Y-50832506D01*
X96377894Y-50462846D01*
X96398174Y-50088800D01*
X96377894Y-49714754D01*
X96372727Y-49683239D01*
X96317293Y-49345106D01*
X96317292Y-49345105D01*
X96317291Y-49345094D01*
X96223305Y-49006586D01*
X96217078Y-48984158D01*
X96217077Y-48984156D01*
X96078428Y-48636172D01*
X96078426Y-48636169D01*
X96078424Y-48636163D01*
X95902961Y-48305203D01*
X95902956Y-48305195D01*
X95902952Y-48305188D01*
X95692743Y-47995155D01*
X95450235Y-47709653D01*
X95393916Y-47656305D01*
X95178281Y-47452044D01*
X95178274Y-47452038D01*
X95178271Y-47452036D01*
X95078419Y-47376131D01*
X94880068Y-47225349D01*
X94666829Y-47097047D01*
X94559098Y-47032227D01*
X94559085Y-47032220D01*
X94219130Y-46874940D01*
X94219125Y-46874938D01*
X94219120Y-46874936D01*
X94046085Y-46816633D01*
X93864133Y-46755326D01*
X93498296Y-46674800D01*
X93125899Y-46634300D01*
X93125898Y-46634300D01*
X92751302Y-46634300D01*
X92751300Y-46634300D01*
X92378903Y-46674800D01*
X92013066Y-46755326D01*
X91738652Y-46847787D01*
X91658080Y-46874936D01*
X91658077Y-46874937D01*
X91658069Y-46874940D01*
X91318114Y-47032220D01*
X91318101Y-47032227D01*
X91050999Y-47192937D01*
X90997132Y-47225349D01*
X90904700Y-47295613D01*
X90698928Y-47452036D01*
X90698919Y-47452044D01*
X90426964Y-47709653D01*
X90184456Y-47995155D01*
X89974247Y-48305188D01*
X89974239Y-48305202D01*
X89974239Y-48305203D01*
X89808759Y-48617334D01*
X89798773Y-48636169D01*
X89798771Y-48636172D01*
X89660122Y-48984156D01*
X89660121Y-48984158D01*
X89559911Y-49345085D01*
X89559906Y-49345106D01*
X89499307Y-49714739D01*
X89499306Y-49714756D01*
X89479026Y-50088797D01*
X89479026Y-50088802D01*
X89200500Y-50088802D01*
X89200500Y-46437500D01*
X89220185Y-46370461D01*
X89272989Y-46324706D01*
X89324500Y-46313500D01*
X105768892Y-46313500D01*
X105835931Y-46333185D01*
G37*
%TD.AperFunction*%
%TA.AperFunction,Conductor*%
G36*
X110915931Y-46333185D02*
G01*
X110961686Y-46385989D01*
X110971630Y-46455147D01*
X110942605Y-46518703D01*
X110883827Y-46556477D01*
X110858621Y-46561118D01*
X110787391Y-46566723D01*
X110557200Y-46621987D01*
X110338486Y-46712581D01*
X110148908Y-46828755D01*
X110624791Y-47304637D01*
X110505969Y-47376131D01*
X110371742Y-47503277D01*
X110268538Y-47655491D01*
X109795355Y-47182308D01*
X109679181Y-47371886D01*
X109588587Y-47590600D01*
X109533323Y-47820791D01*
X109514749Y-48056800D01*
X109533323Y-48292808D01*
X109580841Y-48490734D01*
X109577350Y-48560517D01*
X109536686Y-48617334D01*
X109471760Y-48643147D01*
X109410865Y-48633415D01*
X109204557Y-48543803D01*
X108916887Y-48463201D01*
X108916883Y-48463200D01*
X108916882Y-48463200D01*
X108768898Y-48442860D01*
X108620917Y-48422521D01*
X108620916Y-48422521D01*
X108322166Y-48422521D01*
X108322165Y-48422521D01*
X108026200Y-48463200D01*
X108026194Y-48463201D01*
X107738524Y-48543803D01*
X107558695Y-48621914D01*
X107489363Y-48630568D01*
X107426359Y-48600364D01*
X107389686Y-48540893D01*
X107388719Y-48479233D01*
X107433476Y-48292807D01*
X107452050Y-48056800D01*
X107433476Y-47820791D01*
X107378212Y-47590600D01*
X107287618Y-47371886D01*
X107171443Y-47182308D01*
X106694632Y-47659119D01*
X106651084Y-47576978D01*
X106531391Y-47436065D01*
X106384205Y-47324177D01*
X106341996Y-47304649D01*
X106817890Y-46828755D01*
X106628313Y-46712581D01*
X106409599Y-46621987D01*
X106179408Y-46566723D01*
X106108179Y-46561118D01*
X106042891Y-46536234D01*
X106001420Y-46480003D01*
X105996933Y-46410277D01*
X106030855Y-46349195D01*
X106092416Y-46316149D01*
X106117908Y-46313500D01*
X110848892Y-46313500D01*
X110915931Y-46333185D01*
G37*
%TD.AperFunction*%
%TD*%
M02*
