%TF.GenerationSoftware,KiCad,Pcbnew,7.0.5*%
%TF.CreationDate,2023-07-01T23:53:25+07:00*%
%TF.ProjectId,PoeSci EFarm Rev 3,506f6553-6369-4204-9546-61726d205265,rev?*%
%TF.SameCoordinates,Original*%
%TF.FileFunction,Paste,Top*%
%TF.FilePolarity,Positive*%
%FSLAX46Y46*%
G04 Gerber Fmt 4.6, Leading zero omitted, Abs format (unit mm)*
G04 Created by KiCad (PCBNEW 7.0.5) date 2023-07-01 23:53:25*
%MOMM*%
%LPD*%
G01*
G04 APERTURE LIST*
G04 Aperture macros list*
%AMRoundRect*
0 Rectangle with rounded corners*
0 $1 Rounding radius*
0 $2 $3 $4 $5 $6 $7 $8 $9 X,Y pos of 4 corners*
0 Add a 4 corners polygon primitive as box body*
4,1,4,$2,$3,$4,$5,$6,$7,$8,$9,$2,$3,0*
0 Add four circle primitives for the rounded corners*
1,1,$1+$1,$2,$3*
1,1,$1+$1,$4,$5*
1,1,$1+$1,$6,$7*
1,1,$1+$1,$8,$9*
0 Add four rect primitives between the rounded corners*
20,1,$1+$1,$2,$3,$4,$5,0*
20,1,$1+$1,$4,$5,$6,$7,0*
20,1,$1+$1,$6,$7,$8,$9,0*
20,1,$1+$1,$8,$9,$2,$3,0*%
G04 Aperture macros list end*
%ADD10C,0.001000*%
%ADD11RoundRect,0.237500X0.237500X-0.287500X0.237500X0.287500X-0.237500X0.287500X-0.237500X-0.287500X0*%
%ADD12RoundRect,0.237500X0.237500X-0.250000X0.237500X0.250000X-0.237500X0.250000X-0.237500X-0.250000X0*%
%ADD13RoundRect,0.250000X0.550000X-1.500000X0.550000X1.500000X-0.550000X1.500000X-0.550000X-1.500000X0*%
%ADD14RoundRect,0.250000X-0.325000X-0.450000X0.325000X-0.450000X0.325000X0.450000X-0.325000X0.450000X0*%
%ADD15RoundRect,0.237500X0.287500X0.237500X-0.287500X0.237500X-0.287500X-0.237500X0.287500X-0.237500X0*%
%ADD16R,0.650000X0.400000*%
%ADD17RoundRect,0.237500X0.237500X-0.300000X0.237500X0.300000X-0.237500X0.300000X-0.237500X-0.300000X0*%
%ADD18RoundRect,0.237500X0.250000X0.237500X-0.250000X0.237500X-0.250000X-0.237500X0.250000X-0.237500X0*%
%ADD19RoundRect,0.237500X-0.237500X0.250000X-0.237500X-0.250000X0.237500X-0.250000X0.237500X0.250000X0*%
%ADD20RoundRect,0.150000X0.587500X0.150000X-0.587500X0.150000X-0.587500X-0.150000X0.587500X-0.150000X0*%
G04 APERTURE END LIST*
D10*
%TO.C,U1*%
X101625000Y-91275000D02*
X101625000Y-89325000D01*
X102925000Y-91275000D02*
X102925000Y-89325000D01*
X104225000Y-91275000D02*
X104225000Y-89325000D01*
X105525000Y-91275000D02*
X105525000Y-89325000D01*
X106825000Y-91275000D02*
X106825000Y-89325000D01*
X108125000Y-91275000D02*
X108125000Y-89325000D01*
X109425000Y-91275000D02*
X109425000Y-89325000D01*
X113825000Y-91275000D02*
X113825000Y-89325000D01*
X115125000Y-91275000D02*
X115125000Y-89325000D01*
X116425000Y-91275000D02*
X116425000Y-89325000D01*
X117725000Y-91275000D02*
X117725000Y-89325000D01*
X119025000Y-91275000D02*
X119025000Y-89325000D01*
X120325000Y-91275000D02*
X120325000Y-89325000D01*
X121625000Y-91275000D02*
X121625000Y-89325000D01*
X122925000Y-91275000D02*
X122925000Y-89325000D01*
X124225000Y-91275000D02*
X124225000Y-89325000D01*
X125525000Y-91275000D02*
X125525000Y-89325000D01*
X126825000Y-91275000D02*
X126825000Y-89325000D01*
X102375000Y-89325000D02*
X102375000Y-91275000D01*
X103675000Y-89325000D02*
X103675000Y-91275000D01*
X104975000Y-89325000D02*
X104975000Y-91275000D01*
X106275000Y-89325000D02*
X106275000Y-91275000D01*
X107575000Y-89325000D02*
X107575000Y-91275000D01*
X108875000Y-89325000D02*
X108875000Y-91275000D01*
X110175000Y-89325000D02*
X110175000Y-91275000D01*
X114575000Y-89325000D02*
X114575000Y-91275000D01*
X115875000Y-89325000D02*
X115875000Y-91275000D01*
X117175000Y-89325000D02*
X117175000Y-91275000D01*
X118475000Y-89325000D02*
X118475000Y-91275000D01*
X119775000Y-89325000D02*
X119775000Y-91275000D01*
X121075000Y-89325000D02*
X121075000Y-91275000D01*
X122375000Y-89325000D02*
X122375000Y-91275000D01*
X123675000Y-89325000D02*
X123675000Y-91275000D01*
X124975000Y-89325000D02*
X124975000Y-91275000D01*
X126275000Y-89325000D02*
X126275000Y-91275000D01*
X127575000Y-89325000D02*
X127575000Y-91275000D01*
X100925000Y-84075000D02*
X98975000Y-84075000D01*
X130225000Y-84075000D02*
X128275000Y-84075000D01*
X98975000Y-83325000D02*
X100925000Y-83325000D01*
X128275000Y-83325000D02*
X130225000Y-83325000D01*
X100925000Y-82775000D02*
X98975000Y-82775000D01*
X130225000Y-82775000D02*
X128275000Y-82775000D01*
X98975000Y-82025000D02*
X100925000Y-82025000D01*
X128275000Y-82025000D02*
X130225000Y-82025000D01*
X100925000Y-81475000D02*
X98975000Y-81475000D01*
X130225000Y-81475000D02*
X128275000Y-81475000D01*
X98975000Y-80725000D02*
X100925000Y-80725000D01*
X128275000Y-80725000D02*
X130225000Y-80725000D01*
X100925000Y-80175000D02*
X98975000Y-80175000D01*
X130225000Y-80175000D02*
X128275000Y-80175000D01*
X98975000Y-79425000D02*
X100925000Y-79425000D01*
X128275000Y-79425000D02*
X130225000Y-79425000D01*
X100925000Y-78875000D02*
X98975000Y-78875000D01*
X130225000Y-78875000D02*
X128275000Y-78875000D01*
X98975000Y-78125000D02*
X100925000Y-78125000D01*
X128275000Y-78125000D02*
X130225000Y-78125000D01*
X100925000Y-77575000D02*
X98975000Y-77575000D01*
X130225000Y-77575000D02*
X128275000Y-77575000D01*
X98975000Y-76825000D02*
X100925000Y-76825000D01*
X128275000Y-76825000D02*
X130225000Y-76825000D01*
X100925000Y-76275000D02*
X98975000Y-76275000D01*
X130225000Y-76275000D02*
X128275000Y-76275000D01*
X98975000Y-75525000D02*
X100925000Y-75525000D01*
X128275000Y-75525000D02*
X130225000Y-75525000D01*
X100925000Y-74975000D02*
X98975000Y-74975000D01*
X130225000Y-74975000D02*
X128275000Y-74975000D01*
X98975000Y-74225000D02*
X100925000Y-74225000D01*
X128275000Y-74225000D02*
X130225000Y-74225000D01*
X100925000Y-73675000D02*
X98975000Y-73675000D01*
X130225000Y-73675000D02*
X128275000Y-73675000D01*
X98975000Y-72925000D02*
X100925000Y-72925000D01*
X128275000Y-72925000D02*
X130225000Y-72925000D01*
X100925000Y-72375000D02*
X98975000Y-72375000D01*
X130225000Y-72375000D02*
X128275000Y-72375000D01*
X98975000Y-71625000D02*
X100925000Y-71625000D01*
X128275000Y-71625000D02*
X130225000Y-71625000D01*
X100925000Y-71075000D02*
X98975000Y-71075000D01*
X130225000Y-71075000D02*
X128275000Y-71075000D01*
X98975000Y-70325000D02*
X100925000Y-70325000D01*
X128275000Y-70325000D02*
X130225000Y-70325000D01*
X100925000Y-69775000D02*
X98975000Y-69775000D01*
X130225000Y-69775000D02*
X128275000Y-69775000D01*
X98975000Y-69025000D02*
X100925000Y-69025000D01*
X128275000Y-69025000D02*
X130225000Y-69025000D01*
X100925000Y-68475000D02*
X98975000Y-68475000D01*
X130225000Y-68475000D02*
X128275000Y-68475000D01*
X98975000Y-67725000D02*
X100925000Y-67725000D01*
X128275000Y-67725000D02*
X130225000Y-67725000D01*
X100925000Y-67175000D02*
X98975000Y-67175000D01*
X130225000Y-67175000D02*
X128275000Y-67175000D01*
X98975000Y-66425000D02*
X100925000Y-66425000D01*
X128275000Y-66425000D02*
X130225000Y-66425000D01*
X100925000Y-65875000D02*
X98975000Y-65875000D01*
X130225000Y-65875000D02*
X128275000Y-65875000D01*
X98975000Y-65125000D02*
X100925000Y-65125000D01*
X128275000Y-65125000D02*
X130225000Y-65125000D01*
X100925000Y-64575000D02*
X98975000Y-64575000D01*
X130225000Y-64575000D02*
X128275000Y-64575000D01*
X98975000Y-63825000D02*
X100925000Y-63825000D01*
X128275000Y-63825000D02*
X130225000Y-63825000D01*
X100925000Y-63275000D02*
X98975000Y-63275000D01*
X130225000Y-63275000D02*
X128275000Y-63275000D01*
X98975000Y-62525000D02*
X100925000Y-62525000D01*
X128275000Y-62525000D02*
X130225000Y-62525000D01*
X100925000Y-61975000D02*
X98975000Y-61975000D01*
X130225000Y-61975000D02*
X128275000Y-61975000D01*
X98975000Y-61225000D02*
X100925000Y-61225000D01*
X128275000Y-61225000D02*
X130225000Y-61225000D01*
X102375000Y-58975000D02*
X102375000Y-57025000D01*
X103675000Y-58975000D02*
X103675000Y-57025000D01*
X104975000Y-58975000D02*
X104975000Y-57025000D01*
X106275000Y-58975000D02*
X106275000Y-57025000D01*
X107575000Y-58975000D02*
X107575000Y-57025000D01*
X108875000Y-58975000D02*
X108875000Y-57025000D01*
X110175000Y-58975000D02*
X110175000Y-57025000D01*
X114575000Y-58975000D02*
X114575000Y-57025000D01*
X115875000Y-58975000D02*
X115875000Y-57025000D01*
X117175000Y-58975000D02*
X117175000Y-57025000D01*
X118475000Y-58975000D02*
X118475000Y-57025000D01*
X119775000Y-58975000D02*
X119775000Y-57025000D01*
X121075000Y-58975000D02*
X121075000Y-57025000D01*
X122375000Y-58975000D02*
X122375000Y-57025000D01*
X123675000Y-58975000D02*
X123675000Y-57025000D01*
X124975000Y-58975000D02*
X124975000Y-57025000D01*
X126275000Y-58975000D02*
X126275000Y-57025000D01*
X127575000Y-58975000D02*
X127575000Y-57025000D01*
X101625000Y-57025000D02*
X101625000Y-58975000D01*
X102925000Y-57025000D02*
X102925000Y-58975000D01*
X104225000Y-57025000D02*
X104225000Y-58975000D01*
X105525000Y-57025000D02*
X105525000Y-58975000D01*
X106825000Y-57025000D02*
X106825000Y-58975000D01*
X108125000Y-57025000D02*
X108125000Y-58975000D01*
X109425000Y-57025000D02*
X109425000Y-58975000D01*
X113825000Y-57025000D02*
X113825000Y-58975000D01*
X115125000Y-57025000D02*
X115125000Y-58975000D01*
X116425000Y-57025000D02*
X116425000Y-58975000D01*
X117725000Y-57025000D02*
X117725000Y-58975000D01*
X119025000Y-57025000D02*
X119025000Y-58975000D01*
X120325000Y-57025000D02*
X120325000Y-58975000D01*
X121625000Y-57025000D02*
X121625000Y-58975000D01*
X122925000Y-57025000D02*
X122925000Y-58975000D01*
X124225000Y-57025000D02*
X124225000Y-58975000D01*
X125525000Y-57025000D02*
X125525000Y-58975000D01*
X126825000Y-57025000D02*
X126825000Y-58975000D01*
X102000000Y-88950000D02*
G75*
G03*
X101625000Y-89325000I0J-375000D01*
G01*
X103300000Y-88950000D02*
G75*
G03*
X102925000Y-89325000I0J-375000D01*
G01*
X104600000Y-88950000D02*
G75*
G03*
X104225000Y-89325000I0J-375000D01*
G01*
X105900000Y-88950000D02*
G75*
G03*
X105525000Y-89325000I0J-375000D01*
G01*
X107200000Y-88950000D02*
G75*
G03*
X106825000Y-89325000I0J-375000D01*
G01*
X108500000Y-88950000D02*
G75*
G03*
X108125000Y-89325000I0J-375000D01*
G01*
X109800000Y-88950000D02*
G75*
G03*
X109425000Y-89325000I0J-375000D01*
G01*
X114200000Y-88950000D02*
G75*
G03*
X113825000Y-89325000I0J-375000D01*
G01*
X115500000Y-88950000D02*
G75*
G03*
X115125000Y-89325000I0J-375000D01*
G01*
X116800000Y-88950000D02*
G75*
G03*
X116425000Y-89325000I0J-375000D01*
G01*
X118100000Y-88950000D02*
G75*
G03*
X117725000Y-89325000I0J-375000D01*
G01*
X119400000Y-88950000D02*
G75*
G03*
X119025000Y-89325000I0J-375000D01*
G01*
X120700000Y-88950000D02*
G75*
G03*
X120325000Y-89325000I0J-375000D01*
G01*
X122000000Y-88950000D02*
G75*
G03*
X121625000Y-89325000I0J-375000D01*
G01*
X123300000Y-88950000D02*
G75*
G03*
X122925000Y-89325000I0J-375000D01*
G01*
X124600000Y-88950000D02*
G75*
G03*
X124225000Y-89325000I0J-375000D01*
G01*
X125900000Y-88950000D02*
G75*
G03*
X125525000Y-89325000I0J-375000D01*
G01*
X127200000Y-88950000D02*
G75*
G03*
X126825000Y-89325000I0J-375000D01*
G01*
X102375000Y-89325000D02*
G75*
G03*
X102000000Y-88950000I-375000J0D01*
G01*
X103675000Y-89325000D02*
G75*
G03*
X103300000Y-88950000I-375000J0D01*
G01*
X104975000Y-89325000D02*
G75*
G03*
X104600000Y-88950000I-375000J0D01*
G01*
X106275000Y-89325000D02*
G75*
G03*
X105900000Y-88950000I-375000J0D01*
G01*
X107575000Y-89325000D02*
G75*
G03*
X107200000Y-88950000I-375000J0D01*
G01*
X108875000Y-89325000D02*
G75*
G03*
X108500000Y-88950000I-375000J0D01*
G01*
X110175000Y-89325000D02*
G75*
G03*
X109800000Y-88950000I-375000J0D01*
G01*
X114575000Y-89325000D02*
G75*
G03*
X114200000Y-88950000I-375000J0D01*
G01*
X115875000Y-89325000D02*
G75*
G03*
X115500000Y-88950000I-375000J0D01*
G01*
X117175000Y-89325000D02*
G75*
G03*
X116800000Y-88950000I-375000J0D01*
G01*
X118475000Y-89325000D02*
G75*
G03*
X118100000Y-88950000I-375000J0D01*
G01*
X119775000Y-89325000D02*
G75*
G03*
X119400000Y-88950000I-375000J0D01*
G01*
X121075000Y-89325000D02*
G75*
G03*
X120700000Y-88950000I-375000J0D01*
G01*
X122375000Y-89325000D02*
G75*
G03*
X122000000Y-88950000I-375000J0D01*
G01*
X123675000Y-89325000D02*
G75*
G03*
X123300000Y-88950000I-375000J0D01*
G01*
X124975000Y-89325000D02*
G75*
G03*
X124600000Y-88950000I-375000J0D01*
G01*
X126275000Y-89325000D02*
G75*
G03*
X125900000Y-88950000I-375000J0D01*
G01*
X127575000Y-89325000D02*
G75*
G03*
X127200000Y-88950000I-375000J0D01*
G01*
X127900000Y-83700000D02*
G75*
G03*
X128275000Y-84075000I375000J0D01*
G01*
X100925000Y-84075000D02*
G75*
G03*
X101300000Y-83700000I0J375000D01*
G01*
X128275000Y-83325000D02*
G75*
G03*
X127900000Y-83700000I0J-375000D01*
G01*
X101300000Y-83700000D02*
G75*
G03*
X100925000Y-83325000I-375000J0D01*
G01*
X127900000Y-82400000D02*
G75*
G03*
X128275000Y-82775000I375000J0D01*
G01*
X100925000Y-82775000D02*
G75*
G03*
X101300000Y-82400000I0J375000D01*
G01*
X128275000Y-82025000D02*
G75*
G03*
X127900000Y-82400000I0J-375000D01*
G01*
X101300000Y-82400000D02*
G75*
G03*
X100925000Y-82025000I-375000J0D01*
G01*
X127900000Y-81100000D02*
G75*
G03*
X128275000Y-81475000I375000J0D01*
G01*
X100925000Y-81475000D02*
G75*
G03*
X101300000Y-81100000I0J375000D01*
G01*
X128275000Y-80725000D02*
G75*
G03*
X127900000Y-81100000I0J-375000D01*
G01*
X101300000Y-81100000D02*
G75*
G03*
X100925000Y-80725000I-375000J0D01*
G01*
X127900000Y-79800000D02*
G75*
G03*
X128275000Y-80175000I375000J0D01*
G01*
X100925000Y-80175000D02*
G75*
G03*
X101300000Y-79800000I0J375000D01*
G01*
X128275000Y-79425000D02*
G75*
G03*
X127900000Y-79800000I0J-375000D01*
G01*
X101300000Y-79800000D02*
G75*
G03*
X100925000Y-79425000I-375000J0D01*
G01*
X127900000Y-78500000D02*
G75*
G03*
X128275000Y-78875000I375000J0D01*
G01*
X100925000Y-78875000D02*
G75*
G03*
X101300000Y-78500000I0J375000D01*
G01*
X128275000Y-78125000D02*
G75*
G03*
X127900000Y-78500000I0J-375000D01*
G01*
X101300000Y-78500000D02*
G75*
G03*
X100925000Y-78125000I-375000J0D01*
G01*
X127900000Y-77200000D02*
G75*
G03*
X128275000Y-77575000I375000J0D01*
G01*
X100925000Y-77575000D02*
G75*
G03*
X101300000Y-77200000I0J375000D01*
G01*
X128275000Y-76825000D02*
G75*
G03*
X127900000Y-77200000I0J-375000D01*
G01*
X101300000Y-77200000D02*
G75*
G03*
X100925000Y-76825000I-375000J0D01*
G01*
X127900000Y-75900000D02*
G75*
G03*
X128275000Y-76275000I375000J0D01*
G01*
X100925000Y-76275000D02*
G75*
G03*
X101300000Y-75900000I0J375000D01*
G01*
X128275000Y-75525000D02*
G75*
G03*
X127900000Y-75900000I0J-375000D01*
G01*
X101300000Y-75900000D02*
G75*
G03*
X100925000Y-75525000I-375000J0D01*
G01*
X127900000Y-74600000D02*
G75*
G03*
X128275000Y-74975000I375000J0D01*
G01*
X100925000Y-74975000D02*
G75*
G03*
X101300000Y-74600000I0J375000D01*
G01*
X128275000Y-74225000D02*
G75*
G03*
X127900000Y-74600000I0J-375000D01*
G01*
X101300000Y-74600000D02*
G75*
G03*
X100925000Y-74225000I-375000J0D01*
G01*
X127900000Y-73300000D02*
G75*
G03*
X128275000Y-73675000I375000J0D01*
G01*
X100925000Y-73675000D02*
G75*
G03*
X101300000Y-73300000I0J375000D01*
G01*
X128275000Y-72925000D02*
G75*
G03*
X127900000Y-73300000I0J-375000D01*
G01*
X101300000Y-73300000D02*
G75*
G03*
X100925000Y-72925000I-375000J0D01*
G01*
X127900000Y-72000000D02*
G75*
G03*
X128275000Y-72375000I375000J0D01*
G01*
X100925000Y-72375000D02*
G75*
G03*
X101300000Y-72000000I0J375000D01*
G01*
X128275000Y-71625000D02*
G75*
G03*
X127900000Y-72000000I0J-375000D01*
G01*
X101300000Y-72000000D02*
G75*
G03*
X100925000Y-71625000I-375000J0D01*
G01*
X127900000Y-70700000D02*
G75*
G03*
X128275000Y-71075000I375000J0D01*
G01*
X100925000Y-71075000D02*
G75*
G03*
X101300000Y-70700000I0J375000D01*
G01*
X128275000Y-70325000D02*
G75*
G03*
X127900000Y-70700000I0J-375000D01*
G01*
X101300000Y-70700000D02*
G75*
G03*
X100925000Y-70325000I-375000J0D01*
G01*
X127900000Y-69400000D02*
G75*
G03*
X128275000Y-69775000I375000J0D01*
G01*
X100925000Y-69775000D02*
G75*
G03*
X101300000Y-69400000I0J375000D01*
G01*
X128275000Y-69025000D02*
G75*
G03*
X127900000Y-69400000I0J-375000D01*
G01*
X101300000Y-69400000D02*
G75*
G03*
X100925000Y-69025000I-375000J0D01*
G01*
X127900000Y-68100000D02*
G75*
G03*
X128275000Y-68475000I375000J0D01*
G01*
X100925000Y-68475000D02*
G75*
G03*
X101300000Y-68100000I0J375000D01*
G01*
X128275000Y-67725000D02*
G75*
G03*
X127900000Y-68100000I0J-375000D01*
G01*
X101300000Y-68100000D02*
G75*
G03*
X100925000Y-67725000I-375000J0D01*
G01*
X127900000Y-66800000D02*
G75*
G03*
X128275000Y-67175000I375000J0D01*
G01*
X100925000Y-67175000D02*
G75*
G03*
X101300000Y-66800000I0J375000D01*
G01*
X128275000Y-66425000D02*
G75*
G03*
X127900000Y-66800000I0J-375000D01*
G01*
X101300000Y-66800000D02*
G75*
G03*
X100925000Y-66425000I-375000J0D01*
G01*
X127900000Y-65500000D02*
G75*
G03*
X128275000Y-65875000I375000J0D01*
G01*
X100925000Y-65875000D02*
G75*
G03*
X101300000Y-65500000I0J375000D01*
G01*
X128275000Y-65125000D02*
G75*
G03*
X127900000Y-65500000I0J-375000D01*
G01*
X101300000Y-65500000D02*
G75*
G03*
X100925000Y-65125000I-375000J0D01*
G01*
X127900000Y-64200000D02*
G75*
G03*
X128275000Y-64575000I375000J0D01*
G01*
X100925000Y-64575000D02*
G75*
G03*
X101300000Y-64200000I0J375000D01*
G01*
X128275000Y-63825000D02*
G75*
G03*
X127900000Y-64200000I0J-375000D01*
G01*
X101300000Y-64200000D02*
G75*
G03*
X100925000Y-63825000I-375000J0D01*
G01*
X127900000Y-62900000D02*
G75*
G03*
X128275000Y-63275000I375000J0D01*
G01*
X100925000Y-63275000D02*
G75*
G03*
X101300000Y-62900000I0J375000D01*
G01*
X128275000Y-62525000D02*
G75*
G03*
X127900000Y-62900000I0J-375000D01*
G01*
X101300000Y-62900000D02*
G75*
G03*
X100925000Y-62525000I-375000J0D01*
G01*
X127900000Y-61600000D02*
G75*
G03*
X128275000Y-61975000I375000J0D01*
G01*
X100925000Y-61975000D02*
G75*
G03*
X101300000Y-61600000I0J375000D01*
G01*
X128275000Y-61225000D02*
G75*
G03*
X127900000Y-61600000I0J-375000D01*
G01*
X101300000Y-61600000D02*
G75*
G03*
X100925000Y-61225000I-375000J0D01*
G01*
X101625000Y-58975000D02*
G75*
G03*
X102000000Y-59350000I375000J0D01*
G01*
X102925000Y-58975000D02*
G75*
G03*
X103300000Y-59350000I375000J0D01*
G01*
X104225000Y-58975000D02*
G75*
G03*
X104600000Y-59350000I375000J0D01*
G01*
X105525000Y-58975000D02*
G75*
G03*
X105900000Y-59350000I375000J0D01*
G01*
X106825000Y-58975000D02*
G75*
G03*
X107200000Y-59350000I375000J0D01*
G01*
X108125000Y-58975000D02*
G75*
G03*
X108500000Y-59350000I375000J0D01*
G01*
X109425000Y-58975000D02*
G75*
G03*
X109800000Y-59350000I375000J0D01*
G01*
X113825000Y-58975000D02*
G75*
G03*
X114200000Y-59350000I375000J0D01*
G01*
X115125000Y-58975000D02*
G75*
G03*
X115500000Y-59350000I375000J0D01*
G01*
X116425000Y-58975000D02*
G75*
G03*
X116800000Y-59350000I375000J0D01*
G01*
X117725000Y-58975000D02*
G75*
G03*
X118100000Y-59350000I375000J0D01*
G01*
X119025000Y-58975000D02*
G75*
G03*
X119400000Y-59350000I375000J0D01*
G01*
X120325000Y-58975000D02*
G75*
G03*
X120700000Y-59350000I375000J0D01*
G01*
X121625000Y-58975000D02*
G75*
G03*
X122000000Y-59350000I375000J0D01*
G01*
X122925000Y-58975000D02*
G75*
G03*
X123300000Y-59350000I375000J0D01*
G01*
X124225000Y-58975000D02*
G75*
G03*
X124600000Y-59350000I375000J0D01*
G01*
X125525000Y-58975000D02*
G75*
G03*
X125900000Y-59350000I375000J0D01*
G01*
X126825000Y-58975000D02*
G75*
G03*
X127200000Y-59350000I375000J0D01*
G01*
X102000000Y-59350000D02*
G75*
G03*
X102375000Y-58975000I0J375000D01*
G01*
X103300000Y-59350000D02*
G75*
G03*
X103675000Y-58975000I0J375000D01*
G01*
X104600000Y-59350000D02*
G75*
G03*
X104975000Y-58975000I0J375000D01*
G01*
X105900000Y-59350000D02*
G75*
G03*
X106275000Y-58975000I0J375000D01*
G01*
X107200000Y-59350000D02*
G75*
G03*
X107575000Y-58975000I0J375000D01*
G01*
X108500000Y-59350000D02*
G75*
G03*
X108875000Y-58975000I0J375000D01*
G01*
X109800000Y-59350000D02*
G75*
G03*
X110175000Y-58975000I0J375000D01*
G01*
X114200000Y-59350000D02*
G75*
G03*
X114575000Y-58975000I0J375000D01*
G01*
X115500000Y-59350000D02*
G75*
G03*
X115875000Y-58975000I0J375000D01*
G01*
X116800000Y-59350000D02*
G75*
G03*
X117175000Y-58975000I0J375000D01*
G01*
X118100000Y-59350000D02*
G75*
G03*
X118475000Y-58975000I0J375000D01*
G01*
X119400000Y-59350000D02*
G75*
G03*
X119775000Y-58975000I0J375000D01*
G01*
X120700000Y-59350000D02*
G75*
G03*
X121075000Y-58975000I0J375000D01*
G01*
X122000000Y-59350000D02*
G75*
G03*
X122375000Y-58975000I0J375000D01*
G01*
X123300000Y-59350000D02*
G75*
G03*
X123675000Y-58975000I0J375000D01*
G01*
X124600000Y-59350000D02*
G75*
G03*
X124975000Y-58975000I0J375000D01*
G01*
X125900000Y-59350000D02*
G75*
G03*
X126275000Y-58975000I0J375000D01*
G01*
X127200000Y-59350000D02*
G75*
G03*
X127575000Y-58975000I0J375000D01*
G01*
X104870000Y-82950000D02*
X103900000Y-82950000D01*
X103900000Y-82480000D01*
X104870000Y-82480000D01*
X104870000Y-82950000D01*
G36*
X104870000Y-82950000D02*
G01*
X103900000Y-82950000D01*
X103900000Y-82480000D01*
X104870000Y-82480000D01*
X104870000Y-82950000D01*
G37*
X106100000Y-82950000D02*
X105130000Y-82950000D01*
X105130000Y-82480000D01*
X106100000Y-82480000D01*
X106100000Y-82950000D01*
G36*
X106100000Y-82950000D02*
G01*
X105130000Y-82950000D01*
X105130000Y-82480000D01*
X106100000Y-82480000D01*
X106100000Y-82950000D01*
G37*
X109670000Y-82950000D02*
X108700000Y-82950000D01*
X108700000Y-82480000D01*
X109670000Y-82480000D01*
X109670000Y-82950000D01*
G36*
X109670000Y-82950000D02*
G01*
X108700000Y-82950000D01*
X108700000Y-82480000D01*
X109670000Y-82480000D01*
X109670000Y-82950000D01*
G37*
X110900000Y-82950000D02*
X109930000Y-82950000D01*
X109930000Y-82480000D01*
X110900000Y-82480000D01*
X110900000Y-82950000D01*
G36*
X110900000Y-82950000D02*
G01*
X109930000Y-82950000D01*
X109930000Y-82480000D01*
X110900000Y-82480000D01*
X110900000Y-82950000D01*
G37*
X114470000Y-82950000D02*
X113500000Y-82950000D01*
X113500000Y-82480000D01*
X114470000Y-82480000D01*
X114470000Y-82950000D01*
G36*
X114470000Y-82950000D02*
G01*
X113500000Y-82950000D01*
X113500000Y-82480000D01*
X114470000Y-82480000D01*
X114470000Y-82950000D01*
G37*
X115700000Y-82950000D02*
X114730000Y-82950000D01*
X114730000Y-82480000D01*
X115700000Y-82480000D01*
X115700000Y-82950000D01*
G36*
X115700000Y-82950000D02*
G01*
X114730000Y-82950000D01*
X114730000Y-82480000D01*
X115700000Y-82480000D01*
X115700000Y-82950000D01*
G37*
X119270000Y-82950000D02*
X118300000Y-82950000D01*
X118300000Y-82480000D01*
X119270000Y-82480000D01*
X119270000Y-82950000D01*
G36*
X119270000Y-82950000D02*
G01*
X118300000Y-82950000D01*
X118300000Y-82480000D01*
X119270000Y-82480000D01*
X119270000Y-82950000D01*
G37*
X120500000Y-82950000D02*
X119530000Y-82950000D01*
X119530000Y-82480000D01*
X120500000Y-82480000D01*
X120500000Y-82950000D01*
G36*
X120500000Y-82950000D02*
G01*
X119530000Y-82950000D01*
X119530000Y-82480000D01*
X120500000Y-82480000D01*
X120500000Y-82950000D01*
G37*
X124070000Y-82950000D02*
X123100000Y-82950000D01*
X123100000Y-82480000D01*
X124070000Y-82480000D01*
X124070000Y-82950000D01*
G36*
X124070000Y-82950000D02*
G01*
X123100000Y-82950000D01*
X123100000Y-82480000D01*
X124070000Y-82480000D01*
X124070000Y-82950000D01*
G37*
X125300000Y-82950000D02*
X124330000Y-82950000D01*
X124330000Y-82480000D01*
X125300000Y-82480000D01*
X125300000Y-82950000D01*
G36*
X125300000Y-82950000D02*
G01*
X124330000Y-82950000D01*
X124330000Y-82480000D01*
X125300000Y-82480000D01*
X125300000Y-82950000D01*
G37*
X104870000Y-82220000D02*
X103900000Y-82220000D01*
X103900000Y-81750000D01*
X104870000Y-81750000D01*
X104870000Y-82220000D01*
G36*
X104870000Y-82220000D02*
G01*
X103900000Y-82220000D01*
X103900000Y-81750000D01*
X104870000Y-81750000D01*
X104870000Y-82220000D01*
G37*
X106100000Y-82220000D02*
X105130000Y-82220000D01*
X105130000Y-81750000D01*
X106100000Y-81750000D01*
X106100000Y-82220000D01*
G36*
X106100000Y-82220000D02*
G01*
X105130000Y-82220000D01*
X105130000Y-81750000D01*
X106100000Y-81750000D01*
X106100000Y-82220000D01*
G37*
X109670000Y-82220000D02*
X108700000Y-82220000D01*
X108700000Y-81750000D01*
X109670000Y-81750000D01*
X109670000Y-82220000D01*
G36*
X109670000Y-82220000D02*
G01*
X108700000Y-82220000D01*
X108700000Y-81750000D01*
X109670000Y-81750000D01*
X109670000Y-82220000D01*
G37*
X110900000Y-82220000D02*
X109930000Y-82220000D01*
X109930000Y-81750000D01*
X110900000Y-81750000D01*
X110900000Y-82220000D01*
G36*
X110900000Y-82220000D02*
G01*
X109930000Y-82220000D01*
X109930000Y-81750000D01*
X110900000Y-81750000D01*
X110900000Y-82220000D01*
G37*
X114470000Y-82220000D02*
X113500000Y-82220000D01*
X113500000Y-81750000D01*
X114470000Y-81750000D01*
X114470000Y-82220000D01*
G36*
X114470000Y-82220000D02*
G01*
X113500000Y-82220000D01*
X113500000Y-81750000D01*
X114470000Y-81750000D01*
X114470000Y-82220000D01*
G37*
X115700000Y-82220000D02*
X114730000Y-82220000D01*
X114730000Y-81750000D01*
X115700000Y-81750000D01*
X115700000Y-82220000D01*
G36*
X115700000Y-82220000D02*
G01*
X114730000Y-82220000D01*
X114730000Y-81750000D01*
X115700000Y-81750000D01*
X115700000Y-82220000D01*
G37*
X119270000Y-82220000D02*
X118300000Y-82220000D01*
X118300000Y-81750000D01*
X119270000Y-81750000D01*
X119270000Y-82220000D01*
G36*
X119270000Y-82220000D02*
G01*
X118300000Y-82220000D01*
X118300000Y-81750000D01*
X119270000Y-81750000D01*
X119270000Y-82220000D01*
G37*
X120500000Y-82220000D02*
X119530000Y-82220000D01*
X119530000Y-81750000D01*
X120500000Y-81750000D01*
X120500000Y-82220000D01*
G36*
X120500000Y-82220000D02*
G01*
X119530000Y-82220000D01*
X119530000Y-81750000D01*
X120500000Y-81750000D01*
X120500000Y-82220000D01*
G37*
X124070000Y-82220000D02*
X123100000Y-82220000D01*
X123100000Y-81750000D01*
X124070000Y-81750000D01*
X124070000Y-82220000D01*
G36*
X124070000Y-82220000D02*
G01*
X123100000Y-82220000D01*
X123100000Y-81750000D01*
X124070000Y-81750000D01*
X124070000Y-82220000D01*
G37*
X125300000Y-82220000D02*
X124330000Y-82220000D01*
X124330000Y-81750000D01*
X125300000Y-81750000D01*
X125300000Y-82220000D01*
G36*
X125300000Y-82220000D02*
G01*
X124330000Y-82220000D01*
X124330000Y-81750000D01*
X125300000Y-81750000D01*
X125300000Y-82220000D01*
G37*
X104870000Y-79750000D02*
X103900000Y-79750000D01*
X103900000Y-79280000D01*
X104870000Y-79280000D01*
X104870000Y-79750000D01*
G36*
X104870000Y-79750000D02*
G01*
X103900000Y-79750000D01*
X103900000Y-79280000D01*
X104870000Y-79280000D01*
X104870000Y-79750000D01*
G37*
X106100000Y-79750000D02*
X105130000Y-79750000D01*
X105130000Y-79280000D01*
X106100000Y-79280000D01*
X106100000Y-79750000D01*
G36*
X106100000Y-79750000D02*
G01*
X105130000Y-79750000D01*
X105130000Y-79280000D01*
X106100000Y-79280000D01*
X106100000Y-79750000D01*
G37*
X109670000Y-79750000D02*
X108700000Y-79750000D01*
X108700000Y-79280000D01*
X109670000Y-79280000D01*
X109670000Y-79750000D01*
G36*
X109670000Y-79750000D02*
G01*
X108700000Y-79750000D01*
X108700000Y-79280000D01*
X109670000Y-79280000D01*
X109670000Y-79750000D01*
G37*
X110900000Y-79750000D02*
X109930000Y-79750000D01*
X109930000Y-79280000D01*
X110900000Y-79280000D01*
X110900000Y-79750000D01*
G36*
X110900000Y-79750000D02*
G01*
X109930000Y-79750000D01*
X109930000Y-79280000D01*
X110900000Y-79280000D01*
X110900000Y-79750000D01*
G37*
X114470000Y-79750000D02*
X113500000Y-79750000D01*
X113500000Y-79280000D01*
X114470000Y-79280000D01*
X114470000Y-79750000D01*
G36*
X114470000Y-79750000D02*
G01*
X113500000Y-79750000D01*
X113500000Y-79280000D01*
X114470000Y-79280000D01*
X114470000Y-79750000D01*
G37*
X115700000Y-79750000D02*
X114730000Y-79750000D01*
X114730000Y-79280000D01*
X115700000Y-79280000D01*
X115700000Y-79750000D01*
G36*
X115700000Y-79750000D02*
G01*
X114730000Y-79750000D01*
X114730000Y-79280000D01*
X115700000Y-79280000D01*
X115700000Y-79750000D01*
G37*
X119270000Y-79750000D02*
X118300000Y-79750000D01*
X118300000Y-79280000D01*
X119270000Y-79280000D01*
X119270000Y-79750000D01*
G36*
X119270000Y-79750000D02*
G01*
X118300000Y-79750000D01*
X118300000Y-79280000D01*
X119270000Y-79280000D01*
X119270000Y-79750000D01*
G37*
X120500000Y-79750000D02*
X119530000Y-79750000D01*
X119530000Y-79280000D01*
X120500000Y-79280000D01*
X120500000Y-79750000D01*
G36*
X120500000Y-79750000D02*
G01*
X119530000Y-79750000D01*
X119530000Y-79280000D01*
X120500000Y-79280000D01*
X120500000Y-79750000D01*
G37*
X124070000Y-79750000D02*
X123100000Y-79750000D01*
X123100000Y-79280000D01*
X124070000Y-79280000D01*
X124070000Y-79750000D01*
G36*
X124070000Y-79750000D02*
G01*
X123100000Y-79750000D01*
X123100000Y-79280000D01*
X124070000Y-79280000D01*
X124070000Y-79750000D01*
G37*
X125300000Y-79750000D02*
X124330000Y-79750000D01*
X124330000Y-79280000D01*
X125300000Y-79280000D01*
X125300000Y-79750000D01*
G36*
X125300000Y-79750000D02*
G01*
X124330000Y-79750000D01*
X124330000Y-79280000D01*
X125300000Y-79280000D01*
X125300000Y-79750000D01*
G37*
X104870000Y-79020000D02*
X103900000Y-79020000D01*
X103900000Y-78550000D01*
X104870000Y-78550000D01*
X104870000Y-79020000D01*
G36*
X104870000Y-79020000D02*
G01*
X103900000Y-79020000D01*
X103900000Y-78550000D01*
X104870000Y-78550000D01*
X104870000Y-79020000D01*
G37*
X106100000Y-79020000D02*
X105130000Y-79020000D01*
X105130000Y-78550000D01*
X106100000Y-78550000D01*
X106100000Y-79020000D01*
G36*
X106100000Y-79020000D02*
G01*
X105130000Y-79020000D01*
X105130000Y-78550000D01*
X106100000Y-78550000D01*
X106100000Y-79020000D01*
G37*
X109670000Y-79020000D02*
X108700000Y-79020000D01*
X108700000Y-78550000D01*
X109670000Y-78550000D01*
X109670000Y-79020000D01*
G36*
X109670000Y-79020000D02*
G01*
X108700000Y-79020000D01*
X108700000Y-78550000D01*
X109670000Y-78550000D01*
X109670000Y-79020000D01*
G37*
X110900000Y-79020000D02*
X109930000Y-79020000D01*
X109930000Y-78550000D01*
X110900000Y-78550000D01*
X110900000Y-79020000D01*
G36*
X110900000Y-79020000D02*
G01*
X109930000Y-79020000D01*
X109930000Y-78550000D01*
X110900000Y-78550000D01*
X110900000Y-79020000D01*
G37*
X114470000Y-79020000D02*
X113500000Y-79020000D01*
X113500000Y-78550000D01*
X114470000Y-78550000D01*
X114470000Y-79020000D01*
G36*
X114470000Y-79020000D02*
G01*
X113500000Y-79020000D01*
X113500000Y-78550000D01*
X114470000Y-78550000D01*
X114470000Y-79020000D01*
G37*
X115700000Y-79020000D02*
X114730000Y-79020000D01*
X114730000Y-78550000D01*
X115700000Y-78550000D01*
X115700000Y-79020000D01*
G36*
X115700000Y-79020000D02*
G01*
X114730000Y-79020000D01*
X114730000Y-78550000D01*
X115700000Y-78550000D01*
X115700000Y-79020000D01*
G37*
X119270000Y-79020000D02*
X118300000Y-79020000D01*
X118300000Y-78550000D01*
X119270000Y-78550000D01*
X119270000Y-79020000D01*
G36*
X119270000Y-79020000D02*
G01*
X118300000Y-79020000D01*
X118300000Y-78550000D01*
X119270000Y-78550000D01*
X119270000Y-79020000D01*
G37*
X120500000Y-79020000D02*
X119530000Y-79020000D01*
X119530000Y-78550000D01*
X120500000Y-78550000D01*
X120500000Y-79020000D01*
G36*
X120500000Y-79020000D02*
G01*
X119530000Y-79020000D01*
X119530000Y-78550000D01*
X120500000Y-78550000D01*
X120500000Y-79020000D01*
G37*
X124070000Y-79020000D02*
X123100000Y-79020000D01*
X123100000Y-78550000D01*
X124070000Y-78550000D01*
X124070000Y-79020000D01*
G36*
X124070000Y-79020000D02*
G01*
X123100000Y-79020000D01*
X123100000Y-78550000D01*
X124070000Y-78550000D01*
X124070000Y-79020000D01*
G37*
X125300000Y-79020000D02*
X124330000Y-79020000D01*
X124330000Y-78550000D01*
X125300000Y-78550000D01*
X125300000Y-79020000D01*
G36*
X125300000Y-79020000D02*
G01*
X124330000Y-79020000D01*
X124330000Y-78550000D01*
X125300000Y-78550000D01*
X125300000Y-79020000D01*
G37*
X104870000Y-76350000D02*
X103900000Y-76350000D01*
X103900000Y-75880000D01*
X104870000Y-75880000D01*
X104870000Y-76350000D01*
G36*
X104870000Y-76350000D02*
G01*
X103900000Y-76350000D01*
X103900000Y-75880000D01*
X104870000Y-75880000D01*
X104870000Y-76350000D01*
G37*
X106100000Y-76350000D02*
X105130000Y-76350000D01*
X105130000Y-75880000D01*
X106100000Y-75880000D01*
X106100000Y-76350000D01*
G36*
X106100000Y-76350000D02*
G01*
X105130000Y-76350000D01*
X105130000Y-75880000D01*
X106100000Y-75880000D01*
X106100000Y-76350000D01*
G37*
X109670000Y-76350000D02*
X108700000Y-76350000D01*
X108700000Y-75880000D01*
X109670000Y-75880000D01*
X109670000Y-76350000D01*
G36*
X109670000Y-76350000D02*
G01*
X108700000Y-76350000D01*
X108700000Y-75880000D01*
X109670000Y-75880000D01*
X109670000Y-76350000D01*
G37*
X110900000Y-76350000D02*
X109930000Y-76350000D01*
X109930000Y-75880000D01*
X110900000Y-75880000D01*
X110900000Y-76350000D01*
G36*
X110900000Y-76350000D02*
G01*
X109930000Y-76350000D01*
X109930000Y-75880000D01*
X110900000Y-75880000D01*
X110900000Y-76350000D01*
G37*
X119270000Y-76350000D02*
X118300000Y-76350000D01*
X118300000Y-75880000D01*
X119270000Y-75880000D01*
X119270000Y-76350000D01*
G36*
X119270000Y-76350000D02*
G01*
X118300000Y-76350000D01*
X118300000Y-75880000D01*
X119270000Y-75880000D01*
X119270000Y-76350000D01*
G37*
X120500000Y-76350000D02*
X119530000Y-76350000D01*
X119530000Y-75880000D01*
X120500000Y-75880000D01*
X120500000Y-76350000D01*
G36*
X120500000Y-76350000D02*
G01*
X119530000Y-76350000D01*
X119530000Y-75880000D01*
X120500000Y-75880000D01*
X120500000Y-76350000D01*
G37*
X124070000Y-76350000D02*
X123100000Y-76350000D01*
X123100000Y-75880000D01*
X124070000Y-75880000D01*
X124070000Y-76350000D01*
G36*
X124070000Y-76350000D02*
G01*
X123100000Y-76350000D01*
X123100000Y-75880000D01*
X124070000Y-75880000D01*
X124070000Y-76350000D01*
G37*
X125300000Y-76350000D02*
X124330000Y-76350000D01*
X124330000Y-75880000D01*
X125300000Y-75880000D01*
X125300000Y-76350000D01*
G36*
X125300000Y-76350000D02*
G01*
X124330000Y-76350000D01*
X124330000Y-75880000D01*
X125300000Y-75880000D01*
X125300000Y-76350000D01*
G37*
X104870000Y-75620000D02*
X103900000Y-75620000D01*
X103900000Y-75150000D01*
X104870000Y-75150000D01*
X104870000Y-75620000D01*
G36*
X104870000Y-75620000D02*
G01*
X103900000Y-75620000D01*
X103900000Y-75150000D01*
X104870000Y-75150000D01*
X104870000Y-75620000D01*
G37*
X106100000Y-75620000D02*
X105130000Y-75620000D01*
X105130000Y-75150000D01*
X106100000Y-75150000D01*
X106100000Y-75620000D01*
G36*
X106100000Y-75620000D02*
G01*
X105130000Y-75620000D01*
X105130000Y-75150000D01*
X106100000Y-75150000D01*
X106100000Y-75620000D01*
G37*
X109670000Y-75620000D02*
X108700000Y-75620000D01*
X108700000Y-75150000D01*
X109670000Y-75150000D01*
X109670000Y-75620000D01*
G36*
X109670000Y-75620000D02*
G01*
X108700000Y-75620000D01*
X108700000Y-75150000D01*
X109670000Y-75150000D01*
X109670000Y-75620000D01*
G37*
X110900000Y-75620000D02*
X109930000Y-75620000D01*
X109930000Y-75150000D01*
X110900000Y-75150000D01*
X110900000Y-75620000D01*
G36*
X110900000Y-75620000D02*
G01*
X109930000Y-75620000D01*
X109930000Y-75150000D01*
X110900000Y-75150000D01*
X110900000Y-75620000D01*
G37*
X119270000Y-75620000D02*
X118300000Y-75620000D01*
X118300000Y-75150000D01*
X119270000Y-75150000D01*
X119270000Y-75620000D01*
G36*
X119270000Y-75620000D02*
G01*
X118300000Y-75620000D01*
X118300000Y-75150000D01*
X119270000Y-75150000D01*
X119270000Y-75620000D01*
G37*
X120500000Y-75620000D02*
X119530000Y-75620000D01*
X119530000Y-75150000D01*
X120500000Y-75150000D01*
X120500000Y-75620000D01*
G36*
X120500000Y-75620000D02*
G01*
X119530000Y-75620000D01*
X119530000Y-75150000D01*
X120500000Y-75150000D01*
X120500000Y-75620000D01*
G37*
X124070000Y-75620000D02*
X123100000Y-75620000D01*
X123100000Y-75150000D01*
X124070000Y-75150000D01*
X124070000Y-75620000D01*
G36*
X124070000Y-75620000D02*
G01*
X123100000Y-75620000D01*
X123100000Y-75150000D01*
X124070000Y-75150000D01*
X124070000Y-75620000D01*
G37*
X125300000Y-75620000D02*
X124330000Y-75620000D01*
X124330000Y-75150000D01*
X125300000Y-75150000D01*
X125300000Y-75620000D01*
G36*
X125300000Y-75620000D02*
G01*
X124330000Y-75620000D01*
X124330000Y-75150000D01*
X125300000Y-75150000D01*
X125300000Y-75620000D01*
G37*
X104870000Y-73150000D02*
X103900000Y-73150000D01*
X103900000Y-72680000D01*
X104870000Y-72680000D01*
X104870000Y-73150000D01*
G36*
X104870000Y-73150000D02*
G01*
X103900000Y-73150000D01*
X103900000Y-72680000D01*
X104870000Y-72680000D01*
X104870000Y-73150000D01*
G37*
X106100000Y-73150000D02*
X105130000Y-73150000D01*
X105130000Y-72680000D01*
X106100000Y-72680000D01*
X106100000Y-73150000D01*
G36*
X106100000Y-73150000D02*
G01*
X105130000Y-73150000D01*
X105130000Y-72680000D01*
X106100000Y-72680000D01*
X106100000Y-73150000D01*
G37*
X109670000Y-73150000D02*
X108700000Y-73150000D01*
X108700000Y-72680000D01*
X109670000Y-72680000D01*
X109670000Y-73150000D01*
G36*
X109670000Y-73150000D02*
G01*
X108700000Y-73150000D01*
X108700000Y-72680000D01*
X109670000Y-72680000D01*
X109670000Y-73150000D01*
G37*
X110900000Y-73150000D02*
X109930000Y-73150000D01*
X109930000Y-72680000D01*
X110900000Y-72680000D01*
X110900000Y-73150000D01*
G36*
X110900000Y-73150000D02*
G01*
X109930000Y-73150000D01*
X109930000Y-72680000D01*
X110900000Y-72680000D01*
X110900000Y-73150000D01*
G37*
X119270000Y-73150000D02*
X118300000Y-73150000D01*
X118300000Y-72680000D01*
X119270000Y-72680000D01*
X119270000Y-73150000D01*
G36*
X119270000Y-73150000D02*
G01*
X118300000Y-73150000D01*
X118300000Y-72680000D01*
X119270000Y-72680000D01*
X119270000Y-73150000D01*
G37*
X120500000Y-73150000D02*
X119530000Y-73150000D01*
X119530000Y-72680000D01*
X120500000Y-72680000D01*
X120500000Y-73150000D01*
G36*
X120500000Y-73150000D02*
G01*
X119530000Y-73150000D01*
X119530000Y-72680000D01*
X120500000Y-72680000D01*
X120500000Y-73150000D01*
G37*
X124070000Y-73150000D02*
X123100000Y-73150000D01*
X123100000Y-72680000D01*
X124070000Y-72680000D01*
X124070000Y-73150000D01*
G36*
X124070000Y-73150000D02*
G01*
X123100000Y-73150000D01*
X123100000Y-72680000D01*
X124070000Y-72680000D01*
X124070000Y-73150000D01*
G37*
X125300000Y-73150000D02*
X124330000Y-73150000D01*
X124330000Y-72680000D01*
X125300000Y-72680000D01*
X125300000Y-73150000D01*
G36*
X125300000Y-73150000D02*
G01*
X124330000Y-73150000D01*
X124330000Y-72680000D01*
X125300000Y-72680000D01*
X125300000Y-73150000D01*
G37*
X104870000Y-72420000D02*
X103900000Y-72420000D01*
X103900000Y-71950000D01*
X104870000Y-71950000D01*
X104870000Y-72420000D01*
G36*
X104870000Y-72420000D02*
G01*
X103900000Y-72420000D01*
X103900000Y-71950000D01*
X104870000Y-71950000D01*
X104870000Y-72420000D01*
G37*
X106100000Y-72420000D02*
X105130000Y-72420000D01*
X105130000Y-71950000D01*
X106100000Y-71950000D01*
X106100000Y-72420000D01*
G36*
X106100000Y-72420000D02*
G01*
X105130000Y-72420000D01*
X105130000Y-71950000D01*
X106100000Y-71950000D01*
X106100000Y-72420000D01*
G37*
X109670000Y-72420000D02*
X108700000Y-72420000D01*
X108700000Y-71950000D01*
X109670000Y-71950000D01*
X109670000Y-72420000D01*
G36*
X109670000Y-72420000D02*
G01*
X108700000Y-72420000D01*
X108700000Y-71950000D01*
X109670000Y-71950000D01*
X109670000Y-72420000D01*
G37*
X110900000Y-72420000D02*
X109930000Y-72420000D01*
X109930000Y-71950000D01*
X110900000Y-71950000D01*
X110900000Y-72420000D01*
G36*
X110900000Y-72420000D02*
G01*
X109930000Y-72420000D01*
X109930000Y-71950000D01*
X110900000Y-71950000D01*
X110900000Y-72420000D01*
G37*
X119270000Y-72420000D02*
X118300000Y-72420000D01*
X118300000Y-71950000D01*
X119270000Y-71950000D01*
X119270000Y-72420000D01*
G36*
X119270000Y-72420000D02*
G01*
X118300000Y-72420000D01*
X118300000Y-71950000D01*
X119270000Y-71950000D01*
X119270000Y-72420000D01*
G37*
X120500000Y-72420000D02*
X119530000Y-72420000D01*
X119530000Y-71950000D01*
X120500000Y-71950000D01*
X120500000Y-72420000D01*
G36*
X120500000Y-72420000D02*
G01*
X119530000Y-72420000D01*
X119530000Y-71950000D01*
X120500000Y-71950000D01*
X120500000Y-72420000D01*
G37*
X124070000Y-72420000D02*
X123100000Y-72420000D01*
X123100000Y-71950000D01*
X124070000Y-71950000D01*
X124070000Y-72420000D01*
G36*
X124070000Y-72420000D02*
G01*
X123100000Y-72420000D01*
X123100000Y-71950000D01*
X124070000Y-71950000D01*
X124070000Y-72420000D01*
G37*
X125300000Y-72420000D02*
X124330000Y-72420000D01*
X124330000Y-71950000D01*
X125300000Y-71950000D01*
X125300000Y-72420000D01*
G36*
X125300000Y-72420000D02*
G01*
X124330000Y-72420000D01*
X124330000Y-71950000D01*
X125300000Y-71950000D01*
X125300000Y-72420000D01*
G37*
X104870000Y-69750000D02*
X103900000Y-69750000D01*
X103900000Y-69280000D01*
X104870000Y-69280000D01*
X104870000Y-69750000D01*
G36*
X104870000Y-69750000D02*
G01*
X103900000Y-69750000D01*
X103900000Y-69280000D01*
X104870000Y-69280000D01*
X104870000Y-69750000D01*
G37*
X106100000Y-69750000D02*
X105130000Y-69750000D01*
X105130000Y-69280000D01*
X106100000Y-69280000D01*
X106100000Y-69750000D01*
G36*
X106100000Y-69750000D02*
G01*
X105130000Y-69750000D01*
X105130000Y-69280000D01*
X106100000Y-69280000D01*
X106100000Y-69750000D01*
G37*
X109670000Y-69750000D02*
X108700000Y-69750000D01*
X108700000Y-69280000D01*
X109670000Y-69280000D01*
X109670000Y-69750000D01*
G36*
X109670000Y-69750000D02*
G01*
X108700000Y-69750000D01*
X108700000Y-69280000D01*
X109670000Y-69280000D01*
X109670000Y-69750000D01*
G37*
X110900000Y-69750000D02*
X109930000Y-69750000D01*
X109930000Y-69280000D01*
X110900000Y-69280000D01*
X110900000Y-69750000D01*
G36*
X110900000Y-69750000D02*
G01*
X109930000Y-69750000D01*
X109930000Y-69280000D01*
X110900000Y-69280000D01*
X110900000Y-69750000D01*
G37*
X114470000Y-69750000D02*
X113500000Y-69750000D01*
X113500000Y-69280000D01*
X114470000Y-69280000D01*
X114470000Y-69750000D01*
G36*
X114470000Y-69750000D02*
G01*
X113500000Y-69750000D01*
X113500000Y-69280000D01*
X114470000Y-69280000D01*
X114470000Y-69750000D01*
G37*
X115700000Y-69750000D02*
X114730000Y-69750000D01*
X114730000Y-69280000D01*
X115700000Y-69280000D01*
X115700000Y-69750000D01*
G36*
X115700000Y-69750000D02*
G01*
X114730000Y-69750000D01*
X114730000Y-69280000D01*
X115700000Y-69280000D01*
X115700000Y-69750000D01*
G37*
X119270000Y-69750000D02*
X118300000Y-69750000D01*
X118300000Y-69280000D01*
X119270000Y-69280000D01*
X119270000Y-69750000D01*
G36*
X119270000Y-69750000D02*
G01*
X118300000Y-69750000D01*
X118300000Y-69280000D01*
X119270000Y-69280000D01*
X119270000Y-69750000D01*
G37*
X120500000Y-69750000D02*
X119530000Y-69750000D01*
X119530000Y-69280000D01*
X120500000Y-69280000D01*
X120500000Y-69750000D01*
G36*
X120500000Y-69750000D02*
G01*
X119530000Y-69750000D01*
X119530000Y-69280000D01*
X120500000Y-69280000D01*
X120500000Y-69750000D01*
G37*
X124070000Y-69750000D02*
X123100000Y-69750000D01*
X123100000Y-69280000D01*
X124070000Y-69280000D01*
X124070000Y-69750000D01*
G36*
X124070000Y-69750000D02*
G01*
X123100000Y-69750000D01*
X123100000Y-69280000D01*
X124070000Y-69280000D01*
X124070000Y-69750000D01*
G37*
X125300000Y-69750000D02*
X124330000Y-69750000D01*
X124330000Y-69280000D01*
X125300000Y-69280000D01*
X125300000Y-69750000D01*
G36*
X125300000Y-69750000D02*
G01*
X124330000Y-69750000D01*
X124330000Y-69280000D01*
X125300000Y-69280000D01*
X125300000Y-69750000D01*
G37*
X104870000Y-69020000D02*
X103900000Y-69020000D01*
X103900000Y-68550000D01*
X104870000Y-68550000D01*
X104870000Y-69020000D01*
G36*
X104870000Y-69020000D02*
G01*
X103900000Y-69020000D01*
X103900000Y-68550000D01*
X104870000Y-68550000D01*
X104870000Y-69020000D01*
G37*
X106100000Y-69020000D02*
X105130000Y-69020000D01*
X105130000Y-68550000D01*
X106100000Y-68550000D01*
X106100000Y-69020000D01*
G36*
X106100000Y-69020000D02*
G01*
X105130000Y-69020000D01*
X105130000Y-68550000D01*
X106100000Y-68550000D01*
X106100000Y-69020000D01*
G37*
X109670000Y-69020000D02*
X108700000Y-69020000D01*
X108700000Y-68550000D01*
X109670000Y-68550000D01*
X109670000Y-69020000D01*
G36*
X109670000Y-69020000D02*
G01*
X108700000Y-69020000D01*
X108700000Y-68550000D01*
X109670000Y-68550000D01*
X109670000Y-69020000D01*
G37*
X110900000Y-69020000D02*
X109930000Y-69020000D01*
X109930000Y-68550000D01*
X110900000Y-68550000D01*
X110900000Y-69020000D01*
G36*
X110900000Y-69020000D02*
G01*
X109930000Y-69020000D01*
X109930000Y-68550000D01*
X110900000Y-68550000D01*
X110900000Y-69020000D01*
G37*
X114470000Y-69020000D02*
X113500000Y-69020000D01*
X113500000Y-68550000D01*
X114470000Y-68550000D01*
X114470000Y-69020000D01*
G36*
X114470000Y-69020000D02*
G01*
X113500000Y-69020000D01*
X113500000Y-68550000D01*
X114470000Y-68550000D01*
X114470000Y-69020000D01*
G37*
X115700000Y-69020000D02*
X114730000Y-69020000D01*
X114730000Y-68550000D01*
X115700000Y-68550000D01*
X115700000Y-69020000D01*
G36*
X115700000Y-69020000D02*
G01*
X114730000Y-69020000D01*
X114730000Y-68550000D01*
X115700000Y-68550000D01*
X115700000Y-69020000D01*
G37*
X119270000Y-69020000D02*
X118300000Y-69020000D01*
X118300000Y-68550000D01*
X119270000Y-68550000D01*
X119270000Y-69020000D01*
G36*
X119270000Y-69020000D02*
G01*
X118300000Y-69020000D01*
X118300000Y-68550000D01*
X119270000Y-68550000D01*
X119270000Y-69020000D01*
G37*
X120500000Y-69020000D02*
X119530000Y-69020000D01*
X119530000Y-68550000D01*
X120500000Y-68550000D01*
X120500000Y-69020000D01*
G36*
X120500000Y-69020000D02*
G01*
X119530000Y-69020000D01*
X119530000Y-68550000D01*
X120500000Y-68550000D01*
X120500000Y-69020000D01*
G37*
X124070000Y-69020000D02*
X123100000Y-69020000D01*
X123100000Y-68550000D01*
X124070000Y-68550000D01*
X124070000Y-69020000D01*
G36*
X124070000Y-69020000D02*
G01*
X123100000Y-69020000D01*
X123100000Y-68550000D01*
X124070000Y-68550000D01*
X124070000Y-69020000D01*
G37*
X125300000Y-69020000D02*
X124330000Y-69020000D01*
X124330000Y-68550000D01*
X125300000Y-68550000D01*
X125300000Y-69020000D01*
G36*
X125300000Y-69020000D02*
G01*
X124330000Y-69020000D01*
X124330000Y-68550000D01*
X125300000Y-68550000D01*
X125300000Y-69020000D01*
G37*
X104870000Y-66550000D02*
X103900000Y-66550000D01*
X103900000Y-66080000D01*
X104870000Y-66080000D01*
X104870000Y-66550000D01*
G36*
X104870000Y-66550000D02*
G01*
X103900000Y-66550000D01*
X103900000Y-66080000D01*
X104870000Y-66080000D01*
X104870000Y-66550000D01*
G37*
X106100000Y-66550000D02*
X105130000Y-66550000D01*
X105130000Y-66080000D01*
X106100000Y-66080000D01*
X106100000Y-66550000D01*
G36*
X106100000Y-66550000D02*
G01*
X105130000Y-66550000D01*
X105130000Y-66080000D01*
X106100000Y-66080000D01*
X106100000Y-66550000D01*
G37*
X109670000Y-66550000D02*
X108700000Y-66550000D01*
X108700000Y-66080000D01*
X109670000Y-66080000D01*
X109670000Y-66550000D01*
G36*
X109670000Y-66550000D02*
G01*
X108700000Y-66550000D01*
X108700000Y-66080000D01*
X109670000Y-66080000D01*
X109670000Y-66550000D01*
G37*
X110900000Y-66550000D02*
X109930000Y-66550000D01*
X109930000Y-66080000D01*
X110900000Y-66080000D01*
X110900000Y-66550000D01*
G36*
X110900000Y-66550000D02*
G01*
X109930000Y-66550000D01*
X109930000Y-66080000D01*
X110900000Y-66080000D01*
X110900000Y-66550000D01*
G37*
X114470000Y-66550000D02*
X113500000Y-66550000D01*
X113500000Y-66080000D01*
X114470000Y-66080000D01*
X114470000Y-66550000D01*
G36*
X114470000Y-66550000D02*
G01*
X113500000Y-66550000D01*
X113500000Y-66080000D01*
X114470000Y-66080000D01*
X114470000Y-66550000D01*
G37*
X115700000Y-66550000D02*
X114730000Y-66550000D01*
X114730000Y-66080000D01*
X115700000Y-66080000D01*
X115700000Y-66550000D01*
G36*
X115700000Y-66550000D02*
G01*
X114730000Y-66550000D01*
X114730000Y-66080000D01*
X115700000Y-66080000D01*
X115700000Y-66550000D01*
G37*
X119270000Y-66550000D02*
X118300000Y-66550000D01*
X118300000Y-66080000D01*
X119270000Y-66080000D01*
X119270000Y-66550000D01*
G36*
X119270000Y-66550000D02*
G01*
X118300000Y-66550000D01*
X118300000Y-66080000D01*
X119270000Y-66080000D01*
X119270000Y-66550000D01*
G37*
X120500000Y-66550000D02*
X119530000Y-66550000D01*
X119530000Y-66080000D01*
X120500000Y-66080000D01*
X120500000Y-66550000D01*
G36*
X120500000Y-66550000D02*
G01*
X119530000Y-66550000D01*
X119530000Y-66080000D01*
X120500000Y-66080000D01*
X120500000Y-66550000D01*
G37*
X124070000Y-66550000D02*
X123100000Y-66550000D01*
X123100000Y-66080000D01*
X124070000Y-66080000D01*
X124070000Y-66550000D01*
G36*
X124070000Y-66550000D02*
G01*
X123100000Y-66550000D01*
X123100000Y-66080000D01*
X124070000Y-66080000D01*
X124070000Y-66550000D01*
G37*
X125300000Y-66550000D02*
X124330000Y-66550000D01*
X124330000Y-66080000D01*
X125300000Y-66080000D01*
X125300000Y-66550000D01*
G36*
X125300000Y-66550000D02*
G01*
X124330000Y-66550000D01*
X124330000Y-66080000D01*
X125300000Y-66080000D01*
X125300000Y-66550000D01*
G37*
X104870000Y-65820000D02*
X103900000Y-65820000D01*
X103900000Y-65350000D01*
X104870000Y-65350000D01*
X104870000Y-65820000D01*
G36*
X104870000Y-65820000D02*
G01*
X103900000Y-65820000D01*
X103900000Y-65350000D01*
X104870000Y-65350000D01*
X104870000Y-65820000D01*
G37*
X106100000Y-65820000D02*
X105130000Y-65820000D01*
X105130000Y-65350000D01*
X106100000Y-65350000D01*
X106100000Y-65820000D01*
G36*
X106100000Y-65820000D02*
G01*
X105130000Y-65820000D01*
X105130000Y-65350000D01*
X106100000Y-65350000D01*
X106100000Y-65820000D01*
G37*
X109670000Y-65820000D02*
X108700000Y-65820000D01*
X108700000Y-65350000D01*
X109670000Y-65350000D01*
X109670000Y-65820000D01*
G36*
X109670000Y-65820000D02*
G01*
X108700000Y-65820000D01*
X108700000Y-65350000D01*
X109670000Y-65350000D01*
X109670000Y-65820000D01*
G37*
X110900000Y-65820000D02*
X109930000Y-65820000D01*
X109930000Y-65350000D01*
X110900000Y-65350000D01*
X110900000Y-65820000D01*
G36*
X110900000Y-65820000D02*
G01*
X109930000Y-65820000D01*
X109930000Y-65350000D01*
X110900000Y-65350000D01*
X110900000Y-65820000D01*
G37*
X114470000Y-65820000D02*
X113500000Y-65820000D01*
X113500000Y-65350000D01*
X114470000Y-65350000D01*
X114470000Y-65820000D01*
G36*
X114470000Y-65820000D02*
G01*
X113500000Y-65820000D01*
X113500000Y-65350000D01*
X114470000Y-65350000D01*
X114470000Y-65820000D01*
G37*
X115700000Y-65820000D02*
X114730000Y-65820000D01*
X114730000Y-65350000D01*
X115700000Y-65350000D01*
X115700000Y-65820000D01*
G36*
X115700000Y-65820000D02*
G01*
X114730000Y-65820000D01*
X114730000Y-65350000D01*
X115700000Y-65350000D01*
X115700000Y-65820000D01*
G37*
X119270000Y-65820000D02*
X118300000Y-65820000D01*
X118300000Y-65350000D01*
X119270000Y-65350000D01*
X119270000Y-65820000D01*
G36*
X119270000Y-65820000D02*
G01*
X118300000Y-65820000D01*
X118300000Y-65350000D01*
X119270000Y-65350000D01*
X119270000Y-65820000D01*
G37*
X120500000Y-65820000D02*
X119530000Y-65820000D01*
X119530000Y-65350000D01*
X120500000Y-65350000D01*
X120500000Y-65820000D01*
G36*
X120500000Y-65820000D02*
G01*
X119530000Y-65820000D01*
X119530000Y-65350000D01*
X120500000Y-65350000D01*
X120500000Y-65820000D01*
G37*
X124070000Y-65820000D02*
X123100000Y-65820000D01*
X123100000Y-65350000D01*
X124070000Y-65350000D01*
X124070000Y-65820000D01*
G36*
X124070000Y-65820000D02*
G01*
X123100000Y-65820000D01*
X123100000Y-65350000D01*
X124070000Y-65350000D01*
X124070000Y-65820000D01*
G37*
X125300000Y-65820000D02*
X124330000Y-65820000D01*
X124330000Y-65350000D01*
X125300000Y-65350000D01*
X125300000Y-65820000D01*
G36*
X125300000Y-65820000D02*
G01*
X124330000Y-65820000D01*
X124330000Y-65350000D01*
X125300000Y-65350000D01*
X125300000Y-65820000D01*
G37*
%TD*%
D11*
%TO.C,D2*%
X110298400Y-96200000D03*
X110298400Y-94450000D03*
%TD*%
D12*
%TO.C,R7*%
X103598400Y-96225000D03*
X103598400Y-94400000D03*
%TD*%
D13*
%TO.C,C1*%
X94000000Y-61700000D03*
X94000000Y-56100000D03*
%TD*%
D12*
%TO.C,R5*%
X91075000Y-79362500D03*
X91075000Y-77537500D03*
%TD*%
D14*
%TO.C,FB1*%
X93150000Y-65400000D03*
X95200000Y-65400000D03*
%TD*%
D15*
%TO.C,D1*%
X95575000Y-71300000D03*
X93825000Y-71300000D03*
%TD*%
D16*
%TO.C,Q1*%
X130550000Y-88350000D03*
X130550000Y-89000000D03*
X130550000Y-89650000D03*
X132450000Y-89650000D03*
X132450000Y-89000000D03*
X132450000Y-88350000D03*
%TD*%
%TO.C,Q4*%
X106898400Y-94400000D03*
X106898400Y-95050000D03*
X106898400Y-95700000D03*
X108798400Y-95700000D03*
X108798400Y-95050000D03*
X108798400Y-94400000D03*
%TD*%
D11*
%TO.C,D3*%
X105298400Y-96187500D03*
X105298400Y-94437500D03*
%TD*%
D17*
%TO.C,C2*%
X97100000Y-65562500D03*
X97100000Y-63837500D03*
%TD*%
D12*
%TO.C,R3*%
X96575000Y-79362500D03*
X96575000Y-77537500D03*
%TD*%
D18*
%TO.C,R1*%
X95612500Y-69700000D03*
X93787500Y-69700000D03*
%TD*%
D12*
%TO.C,R6*%
X111898400Y-96212500D03*
X111898400Y-94387500D03*
%TD*%
%TO.C,R2*%
X96637500Y-82862500D03*
X96637500Y-81037500D03*
%TD*%
D19*
%TO.C,R4*%
X91137500Y-81037500D03*
X91137500Y-82862500D03*
%TD*%
D20*
%TO.C,Q2*%
X94812500Y-82900000D03*
X94812500Y-81000000D03*
X92937500Y-81950000D03*
%TD*%
%TO.C,Q3*%
X94775000Y-79350000D03*
X94775000Y-77450000D03*
X92900000Y-78400000D03*
%TD*%
M02*
