%TF.GenerationSoftware,KiCad,Pcbnew,7.0.5*%
%TF.CreationDate,2023-07-01T23:53:25+07:00*%
%TF.ProjectId,PoeSci EFarm Rev 3,506f6553-6369-4204-9546-61726d205265,rev?*%
%TF.SameCoordinates,Original*%
%TF.FileFunction,Legend,Top*%
%TF.FilePolarity,Positive*%
%FSLAX46Y46*%
G04 Gerber Fmt 4.6, Leading zero omitted, Abs format (unit mm)*
G04 Created by KiCad (PCBNEW 7.0.5) date 2023-07-01 23:53:25*
%MOMM*%
%LPD*%
G01*
G04 APERTURE LIST*
%ADD10C,0.150000*%
%ADD11C,0.120000*%
%ADD12C,0.127000*%
%ADD13C,0.400000*%
G04 APERTURE END LIST*
D10*
X117909809Y-99032184D02*
X117808794Y-99065856D01*
X117808794Y-99065856D02*
X117707778Y-99166871D01*
X117707778Y-99166871D02*
X117640435Y-99301558D01*
X117640435Y-99301558D02*
X117640435Y-99436246D01*
X117640435Y-99436246D02*
X117674107Y-99537261D01*
X117674107Y-99537261D02*
X117775122Y-99705620D01*
X117775122Y-99705620D02*
X117876137Y-99806635D01*
X117876137Y-99806635D02*
X118044496Y-99907650D01*
X118044496Y-99907650D02*
X118145511Y-99941322D01*
X118145511Y-99941322D02*
X118280198Y-99941322D01*
X118280198Y-99941322D02*
X118414885Y-99873978D01*
X118414885Y-99873978D02*
X118482229Y-99806635D01*
X118482229Y-99806635D02*
X118549572Y-99671948D01*
X118549572Y-99671948D02*
X118549572Y-99604604D01*
X118549572Y-99604604D02*
X118313870Y-99368902D01*
X118313870Y-99368902D02*
X118179183Y-99503589D01*
X118919961Y-99368902D02*
X118212855Y-98661795D01*
X118212855Y-98661795D02*
X119324022Y-98964841D01*
X119324022Y-98964841D02*
X118616916Y-98257734D01*
X119660740Y-98628124D02*
X118953633Y-97921017D01*
X118953633Y-97921017D02*
X119121992Y-97752658D01*
X119121992Y-97752658D02*
X119256679Y-97685314D01*
X119256679Y-97685314D02*
X119391366Y-97685314D01*
X119391366Y-97685314D02*
X119492381Y-97718986D01*
X119492381Y-97718986D02*
X119660740Y-97820001D01*
X119660740Y-97820001D02*
X119761755Y-97921017D01*
X119761755Y-97921017D02*
X119862770Y-98089375D01*
X119862770Y-98089375D02*
X119896442Y-98190391D01*
X119896442Y-98190391D02*
X119896442Y-98325078D01*
X119896442Y-98325078D02*
X119829099Y-98459765D01*
X119829099Y-98459765D02*
X119660740Y-98628124D01*
X123259184Y-100076009D02*
X122552077Y-99368902D01*
X122552077Y-99368902D02*
X122821451Y-99099528D01*
X122821451Y-99099528D02*
X122922466Y-99065856D01*
X122922466Y-99065856D02*
X122989810Y-99065856D01*
X122989810Y-99065856D02*
X123090825Y-99099528D01*
X123090825Y-99099528D02*
X123191840Y-99200543D01*
X123191840Y-99200543D02*
X123225512Y-99301558D01*
X123225512Y-99301558D02*
X123225512Y-99368902D01*
X123225512Y-99368902D02*
X123191840Y-99469917D01*
X123191840Y-99469917D02*
X122922466Y-99739291D01*
X123191840Y-98729139D02*
X124067306Y-99267887D01*
X124067306Y-99267887D02*
X123696916Y-98628123D01*
X123696916Y-98628123D02*
X124336680Y-98998513D01*
X124336680Y-98998513D02*
X123797932Y-98123047D01*
X125178473Y-98156719D02*
X124606054Y-98055704D01*
X124774412Y-98560780D02*
X124067305Y-97853673D01*
X124067305Y-97853673D02*
X124336679Y-97584299D01*
X124336679Y-97584299D02*
X124437695Y-97550628D01*
X124437695Y-97550628D02*
X124505038Y-97550628D01*
X124505038Y-97550628D02*
X124606054Y-97584299D01*
X124606054Y-97584299D02*
X124707069Y-97685315D01*
X124707069Y-97685315D02*
X124740741Y-97786330D01*
X124740741Y-97786330D02*
X124740741Y-97853673D01*
X124740741Y-97853673D02*
X124707069Y-97954689D01*
X124707069Y-97954689D02*
X124437695Y-98224063D01*
X121274767Y-99671948D02*
X120702347Y-99570933D01*
X120870706Y-100076009D02*
X120163599Y-99368902D01*
X120163599Y-99368902D02*
X120432973Y-99099528D01*
X120432973Y-99099528D02*
X120533988Y-99065856D01*
X120533988Y-99065856D02*
X120601332Y-99065856D01*
X120601332Y-99065856D02*
X120702347Y-99099528D01*
X120702347Y-99099528D02*
X120803362Y-99200543D01*
X120803362Y-99200543D02*
X120837034Y-99301558D01*
X120837034Y-99301558D02*
X120837034Y-99368902D01*
X120837034Y-99368902D02*
X120803362Y-99469917D01*
X120803362Y-99469917D02*
X120533988Y-99739291D01*
X121510469Y-99368902D02*
X121645156Y-99301558D01*
X121645156Y-99301558D02*
X121813515Y-99133200D01*
X121813515Y-99133200D02*
X121847186Y-99032184D01*
X121847186Y-99032184D02*
X121847186Y-98964841D01*
X121847186Y-98964841D02*
X121813515Y-98863826D01*
X121813515Y-98863826D02*
X121746171Y-98796482D01*
X121746171Y-98796482D02*
X121645156Y-98762810D01*
X121645156Y-98762810D02*
X121577812Y-98762810D01*
X121577812Y-98762810D02*
X121476797Y-98796482D01*
X121476797Y-98796482D02*
X121308438Y-98897497D01*
X121308438Y-98897497D02*
X121207423Y-98931169D01*
X121207423Y-98931169D02*
X121140080Y-98931169D01*
X121140080Y-98931169D02*
X121039064Y-98897497D01*
X121039064Y-98897497D02*
X120971721Y-98830154D01*
X120971721Y-98830154D02*
X120938049Y-98729139D01*
X120938049Y-98729139D02*
X120938049Y-98661795D01*
X120938049Y-98661795D02*
X120971721Y-98560780D01*
X120971721Y-98560780D02*
X121140080Y-98392421D01*
X121140080Y-98392421D02*
X121274767Y-98325078D01*
X121443125Y-98089375D02*
X121847186Y-97685314D01*
X122352263Y-98594452D02*
X121645156Y-97887345D01*
X116110588Y-99671948D02*
X115538168Y-99570933D01*
X115706527Y-100076009D02*
X114999420Y-99368902D01*
X114999420Y-99368902D02*
X115268794Y-99099528D01*
X115268794Y-99099528D02*
X115369809Y-99065856D01*
X115369809Y-99065856D02*
X115437153Y-99065856D01*
X115437153Y-99065856D02*
X115538168Y-99099528D01*
X115538168Y-99099528D02*
X115639183Y-99200543D01*
X115639183Y-99200543D02*
X115672855Y-99301558D01*
X115672855Y-99301558D02*
X115672855Y-99368902D01*
X115672855Y-99368902D02*
X115639183Y-99469917D01*
X115639183Y-99469917D02*
X115369809Y-99739291D01*
X115639183Y-98729139D02*
X116817694Y-98964841D01*
X116110588Y-98257734D02*
X116346290Y-99436246D01*
X117087068Y-98695467D02*
X116379962Y-97988360D01*
X116379962Y-97988360D02*
X116548320Y-97820001D01*
X116548320Y-97820001D02*
X116683007Y-97752658D01*
X116683007Y-97752658D02*
X116817694Y-97752658D01*
X116817694Y-97752658D02*
X116918710Y-97786330D01*
X116918710Y-97786330D02*
X117087068Y-97887345D01*
X117087068Y-97887345D02*
X117188084Y-97988360D01*
X117188084Y-97988360D02*
X117289099Y-98156719D01*
X117289099Y-98156719D02*
X117322771Y-98257734D01*
X117322771Y-98257734D02*
X117322771Y-98392421D01*
X117322771Y-98392421D02*
X117255427Y-98527108D01*
X117255427Y-98527108D02*
X117087068Y-98695467D01*
X112442584Y-99469917D02*
X112846645Y-99065856D01*
X113351721Y-99974994D02*
X112644614Y-99267887D01*
X113015003Y-98897497D02*
X114193515Y-99133200D01*
X113486408Y-98426093D02*
X113722110Y-99604604D01*
X114462889Y-98863826D02*
X113755782Y-98156719D01*
X113755782Y-98156719D02*
X113924141Y-97988360D01*
X113924141Y-97988360D02*
X114058828Y-97921016D01*
X114058828Y-97921016D02*
X114193515Y-97921016D01*
X114193515Y-97921016D02*
X114294530Y-97954688D01*
X114294530Y-97954688D02*
X114462889Y-98055703D01*
X114462889Y-98055703D02*
X114563904Y-98156719D01*
X114563904Y-98156719D02*
X114664919Y-98325078D01*
X114664919Y-98325078D02*
X114698591Y-98426093D01*
X114698591Y-98426093D02*
X114698591Y-98560780D01*
X114698591Y-98560780D02*
X114631248Y-98695467D01*
X114631248Y-98695467D02*
X114462889Y-98863826D01*
X104839420Y-99436246D02*
X105277153Y-98998513D01*
X105277153Y-98998513D02*
X105310825Y-99503589D01*
X105310825Y-99503589D02*
X105411840Y-99402574D01*
X105411840Y-99402574D02*
X105512855Y-99368902D01*
X105512855Y-99368902D02*
X105580199Y-99368902D01*
X105580199Y-99368902D02*
X105681214Y-99402574D01*
X105681214Y-99402574D02*
X105849573Y-99570933D01*
X105849573Y-99570933D02*
X105883245Y-99671948D01*
X105883245Y-99671948D02*
X105883245Y-99739291D01*
X105883245Y-99739291D02*
X105849573Y-99840307D01*
X105849573Y-99840307D02*
X105647542Y-100042337D01*
X105647542Y-100042337D02*
X105546527Y-100076009D01*
X105546527Y-100076009D02*
X105479184Y-100076009D01*
X105479184Y-98796482D02*
X106421993Y-99267887D01*
X106421993Y-99267887D02*
X105950588Y-98325078D01*
X106118947Y-98156719D02*
X106556680Y-97718986D01*
X106556680Y-97718986D02*
X106590351Y-98224062D01*
X106590351Y-98224062D02*
X106691367Y-98123047D01*
X106691367Y-98123047D02*
X106792382Y-98089375D01*
X106792382Y-98089375D02*
X106859725Y-98089375D01*
X106859725Y-98089375D02*
X106960741Y-98123047D01*
X106960741Y-98123047D02*
X107129100Y-98291406D01*
X107129100Y-98291406D02*
X107162771Y-98392421D01*
X107162771Y-98392421D02*
X107162771Y-98459765D01*
X107162771Y-98459765D02*
X107129100Y-98560780D01*
X107129100Y-98560780D02*
X106927069Y-98762810D01*
X106927069Y-98762810D02*
X106826054Y-98796482D01*
X106826054Y-98796482D02*
X106758710Y-98796482D01*
X109414344Y-99469917D02*
X110357153Y-99941322D01*
X110357153Y-99941322D02*
X109885748Y-98998513D01*
X111165275Y-98998513D02*
X111165275Y-99065856D01*
X111165275Y-99065856D02*
X111097931Y-99200543D01*
X111097931Y-99200543D02*
X111030588Y-99267887D01*
X111030588Y-99267887D02*
X110895901Y-99335230D01*
X110895901Y-99335230D02*
X110761214Y-99335230D01*
X110761214Y-99335230D02*
X110660198Y-99301558D01*
X110660198Y-99301558D02*
X110491840Y-99200543D01*
X110491840Y-99200543D02*
X110390824Y-99099528D01*
X110390824Y-99099528D02*
X110289809Y-98931169D01*
X110289809Y-98931169D02*
X110256137Y-98830154D01*
X110256137Y-98830154D02*
X110256137Y-98695467D01*
X110256137Y-98695467D02*
X110323481Y-98560780D01*
X110323481Y-98560780D02*
X110390824Y-98493436D01*
X110390824Y-98493436D02*
X110525511Y-98426093D01*
X110525511Y-98426093D02*
X110592855Y-98426093D01*
X111872381Y-98291406D02*
X111872381Y-98358749D01*
X111872381Y-98358749D02*
X111805038Y-98493436D01*
X111805038Y-98493436D02*
X111737694Y-98560780D01*
X111737694Y-98560780D02*
X111603007Y-98628123D01*
X111603007Y-98628123D02*
X111468320Y-98628123D01*
X111468320Y-98628123D02*
X111367305Y-98594452D01*
X111367305Y-98594452D02*
X111198946Y-98493436D01*
X111198946Y-98493436D02*
X111097931Y-98392421D01*
X111097931Y-98392421D02*
X110996916Y-98224062D01*
X110996916Y-98224062D02*
X110963244Y-98123047D01*
X110963244Y-98123047D02*
X110963244Y-97988360D01*
X110963244Y-97988360D02*
X111030588Y-97853673D01*
X111030588Y-97853673D02*
X111097931Y-97786330D01*
X111097931Y-97786330D02*
X111232618Y-97718986D01*
X111232618Y-97718986D02*
X111299962Y-97718986D01*
%TO.C,D2*%
X110792419Y-93448094D02*
X109792419Y-93448094D01*
X109792419Y-93448094D02*
X109792419Y-93209999D01*
X109792419Y-93209999D02*
X109840038Y-93067142D01*
X109840038Y-93067142D02*
X109935276Y-92971904D01*
X109935276Y-92971904D02*
X110030514Y-92924285D01*
X110030514Y-92924285D02*
X110220990Y-92876666D01*
X110220990Y-92876666D02*
X110363847Y-92876666D01*
X110363847Y-92876666D02*
X110554323Y-92924285D01*
X110554323Y-92924285D02*
X110649561Y-92971904D01*
X110649561Y-92971904D02*
X110744800Y-93067142D01*
X110744800Y-93067142D02*
X110792419Y-93209999D01*
X110792419Y-93209999D02*
X110792419Y-93448094D01*
X109887657Y-92495713D02*
X109840038Y-92448094D01*
X109840038Y-92448094D02*
X109792419Y-92352856D01*
X109792419Y-92352856D02*
X109792419Y-92114761D01*
X109792419Y-92114761D02*
X109840038Y-92019523D01*
X109840038Y-92019523D02*
X109887657Y-91971904D01*
X109887657Y-91971904D02*
X109982895Y-91924285D01*
X109982895Y-91924285D02*
X110078133Y-91924285D01*
X110078133Y-91924285D02*
X110220990Y-91971904D01*
X110220990Y-91971904D02*
X110792419Y-92543332D01*
X110792419Y-92543332D02*
X110792419Y-91924285D01*
%TO.C,U1*%
X98654646Y-90362150D02*
X99464431Y-90362150D01*
X99464431Y-90362150D02*
X99559700Y-90314516D01*
X99559700Y-90314516D02*
X99607335Y-90266882D01*
X99607335Y-90266882D02*
X99654969Y-90171613D01*
X99654969Y-90171613D02*
X99654969Y-89981075D01*
X99654969Y-89981075D02*
X99607335Y-89885806D01*
X99607335Y-89885806D02*
X99559700Y-89838172D01*
X99559700Y-89838172D02*
X99464431Y-89790537D01*
X99464431Y-89790537D02*
X98654646Y-89790537D01*
X99654969Y-88790215D02*
X99654969Y-89361828D01*
X99654969Y-89076021D02*
X98654646Y-89076021D01*
X98654646Y-89076021D02*
X98797549Y-89171290D01*
X98797549Y-89171290D02*
X98892818Y-89266559D01*
X98892818Y-89266559D02*
X98940453Y-89361828D01*
%TO.C,J3*%
X134616866Y-66004819D02*
X134616866Y-66719104D01*
X134616866Y-66719104D02*
X134569247Y-66861961D01*
X134569247Y-66861961D02*
X134474009Y-66957200D01*
X134474009Y-66957200D02*
X134331152Y-67004819D01*
X134331152Y-67004819D02*
X134235914Y-67004819D01*
X134997819Y-66004819D02*
X135616866Y-66004819D01*
X135616866Y-66004819D02*
X135283533Y-66385771D01*
X135283533Y-66385771D02*
X135426390Y-66385771D01*
X135426390Y-66385771D02*
X135521628Y-66433390D01*
X135521628Y-66433390D02*
X135569247Y-66481009D01*
X135569247Y-66481009D02*
X135616866Y-66576247D01*
X135616866Y-66576247D02*
X135616866Y-66814342D01*
X135616866Y-66814342D02*
X135569247Y-66909580D01*
X135569247Y-66909580D02*
X135521628Y-66957200D01*
X135521628Y-66957200D02*
X135426390Y-67004819D01*
X135426390Y-67004819D02*
X135140676Y-67004819D01*
X135140676Y-67004819D02*
X135045438Y-66957200D01*
X135045438Y-66957200D02*
X134997819Y-66909580D01*
%TO.C,R7*%
X104213819Y-92876666D02*
X103737628Y-93209999D01*
X104213819Y-93448094D02*
X103213819Y-93448094D01*
X103213819Y-93448094D02*
X103213819Y-93067142D01*
X103213819Y-93067142D02*
X103261438Y-92971904D01*
X103261438Y-92971904D02*
X103309057Y-92924285D01*
X103309057Y-92924285D02*
X103404295Y-92876666D01*
X103404295Y-92876666D02*
X103547152Y-92876666D01*
X103547152Y-92876666D02*
X103642390Y-92924285D01*
X103642390Y-92924285D02*
X103690009Y-92971904D01*
X103690009Y-92971904D02*
X103737628Y-93067142D01*
X103737628Y-93067142D02*
X103737628Y-93448094D01*
X103213819Y-92543332D02*
X103213819Y-91876666D01*
X103213819Y-91876666D02*
X104213819Y-92305237D01*
%TO.C,C1*%
X91146333Y-55045780D02*
X91098714Y-55093400D01*
X91098714Y-55093400D02*
X90955857Y-55141019D01*
X90955857Y-55141019D02*
X90860619Y-55141019D01*
X90860619Y-55141019D02*
X90717762Y-55093400D01*
X90717762Y-55093400D02*
X90622524Y-54998161D01*
X90622524Y-54998161D02*
X90574905Y-54902923D01*
X90574905Y-54902923D02*
X90527286Y-54712447D01*
X90527286Y-54712447D02*
X90527286Y-54569590D01*
X90527286Y-54569590D02*
X90574905Y-54379114D01*
X90574905Y-54379114D02*
X90622524Y-54283876D01*
X90622524Y-54283876D02*
X90717762Y-54188638D01*
X90717762Y-54188638D02*
X90860619Y-54141019D01*
X90860619Y-54141019D02*
X90955857Y-54141019D01*
X90955857Y-54141019D02*
X91098714Y-54188638D01*
X91098714Y-54188638D02*
X91146333Y-54236257D01*
X92098714Y-55141019D02*
X91527286Y-55141019D01*
X91813000Y-55141019D02*
X91813000Y-54141019D01*
X91813000Y-54141019D02*
X91717762Y-54283876D01*
X91717762Y-54283876D02*
X91622524Y-54379114D01*
X91622524Y-54379114D02*
X91527286Y-54426733D01*
%TO.C,R5*%
X91564619Y-76036466D02*
X91088428Y-76369799D01*
X91564619Y-76607894D02*
X90564619Y-76607894D01*
X90564619Y-76607894D02*
X90564619Y-76226942D01*
X90564619Y-76226942D02*
X90612238Y-76131704D01*
X90612238Y-76131704D02*
X90659857Y-76084085D01*
X90659857Y-76084085D02*
X90755095Y-76036466D01*
X90755095Y-76036466D02*
X90897952Y-76036466D01*
X90897952Y-76036466D02*
X90993190Y-76084085D01*
X90993190Y-76084085D02*
X91040809Y-76131704D01*
X91040809Y-76131704D02*
X91088428Y-76226942D01*
X91088428Y-76226942D02*
X91088428Y-76607894D01*
X90564619Y-75131704D02*
X90564619Y-75607894D01*
X90564619Y-75607894D02*
X91040809Y-75655513D01*
X91040809Y-75655513D02*
X90993190Y-75607894D01*
X90993190Y-75607894D02*
X90945571Y-75512656D01*
X90945571Y-75512656D02*
X90945571Y-75274561D01*
X90945571Y-75274561D02*
X90993190Y-75179323D01*
X90993190Y-75179323D02*
X91040809Y-75131704D01*
X91040809Y-75131704D02*
X91136047Y-75084085D01*
X91136047Y-75084085D02*
X91374142Y-75084085D01*
X91374142Y-75084085D02*
X91469380Y-75131704D01*
X91469380Y-75131704D02*
X91517000Y-75179323D01*
X91517000Y-75179323D02*
X91564619Y-75274561D01*
X91564619Y-75274561D02*
X91564619Y-75512656D01*
X91564619Y-75512656D02*
X91517000Y-75607894D01*
X91517000Y-75607894D02*
X91469380Y-75655513D01*
%TO.C,FB1*%
X90047866Y-65336009D02*
X89714533Y-65336009D01*
X89714533Y-65859819D02*
X89714533Y-64859819D01*
X89714533Y-64859819D02*
X90190723Y-64859819D01*
X90905009Y-65336009D02*
X91047866Y-65383628D01*
X91047866Y-65383628D02*
X91095485Y-65431247D01*
X91095485Y-65431247D02*
X91143104Y-65526485D01*
X91143104Y-65526485D02*
X91143104Y-65669342D01*
X91143104Y-65669342D02*
X91095485Y-65764580D01*
X91095485Y-65764580D02*
X91047866Y-65812200D01*
X91047866Y-65812200D02*
X90952628Y-65859819D01*
X90952628Y-65859819D02*
X90571676Y-65859819D01*
X90571676Y-65859819D02*
X90571676Y-64859819D01*
X90571676Y-64859819D02*
X90905009Y-64859819D01*
X90905009Y-64859819D02*
X91000247Y-64907438D01*
X91000247Y-64907438D02*
X91047866Y-64955057D01*
X91047866Y-64955057D02*
X91095485Y-65050295D01*
X91095485Y-65050295D02*
X91095485Y-65145533D01*
X91095485Y-65145533D02*
X91047866Y-65240771D01*
X91047866Y-65240771D02*
X91000247Y-65288390D01*
X91000247Y-65288390D02*
X90905009Y-65336009D01*
X90905009Y-65336009D02*
X90571676Y-65336009D01*
X92095485Y-65859819D02*
X91524057Y-65859819D01*
X91809771Y-65859819D02*
X91809771Y-64859819D01*
X91809771Y-64859819D02*
X91714533Y-65002676D01*
X91714533Y-65002676D02*
X91619295Y-65097914D01*
X91619295Y-65097914D02*
X91524057Y-65145533D01*
%TO.C,J2*%
X102738219Y-50930133D02*
X103452504Y-50930133D01*
X103452504Y-50930133D02*
X103595361Y-50977752D01*
X103595361Y-50977752D02*
X103690600Y-51072990D01*
X103690600Y-51072990D02*
X103738219Y-51215847D01*
X103738219Y-51215847D02*
X103738219Y-51311085D01*
X102833457Y-50501561D02*
X102785838Y-50453942D01*
X102785838Y-50453942D02*
X102738219Y-50358704D01*
X102738219Y-50358704D02*
X102738219Y-50120609D01*
X102738219Y-50120609D02*
X102785838Y-50025371D01*
X102785838Y-50025371D02*
X102833457Y-49977752D01*
X102833457Y-49977752D02*
X102928695Y-49930133D01*
X102928695Y-49930133D02*
X103023933Y-49930133D01*
X103023933Y-49930133D02*
X103166790Y-49977752D01*
X103166790Y-49977752D02*
X103738219Y-50549180D01*
X103738219Y-50549180D02*
X103738219Y-49930133D01*
%TO.C,D1*%
X91286105Y-71676419D02*
X91286105Y-70676419D01*
X91286105Y-70676419D02*
X91524200Y-70676419D01*
X91524200Y-70676419D02*
X91667057Y-70724038D01*
X91667057Y-70724038D02*
X91762295Y-70819276D01*
X91762295Y-70819276D02*
X91809914Y-70914514D01*
X91809914Y-70914514D02*
X91857533Y-71104990D01*
X91857533Y-71104990D02*
X91857533Y-71247847D01*
X91857533Y-71247847D02*
X91809914Y-71438323D01*
X91809914Y-71438323D02*
X91762295Y-71533561D01*
X91762295Y-71533561D02*
X91667057Y-71628800D01*
X91667057Y-71628800D02*
X91524200Y-71676419D01*
X91524200Y-71676419D02*
X91286105Y-71676419D01*
X92809914Y-71676419D02*
X92238486Y-71676419D01*
X92524200Y-71676419D02*
X92524200Y-70676419D01*
X92524200Y-70676419D02*
X92428962Y-70819276D01*
X92428962Y-70819276D02*
X92333724Y-70914514D01*
X92333724Y-70914514D02*
X92238486Y-70962133D01*
%TO.C,J4*%
X102704819Y-102308333D02*
X103419104Y-102308333D01*
X103419104Y-102308333D02*
X103561961Y-102355952D01*
X103561961Y-102355952D02*
X103657200Y-102451190D01*
X103657200Y-102451190D02*
X103704819Y-102594047D01*
X103704819Y-102594047D02*
X103704819Y-102689285D01*
X103038152Y-101403571D02*
X103704819Y-101403571D01*
X102657200Y-101641666D02*
X103371485Y-101879761D01*
X103371485Y-101879761D02*
X103371485Y-101260714D01*
%TO.C,Q1*%
X131404761Y-87519657D02*
X131309523Y-87472038D01*
X131309523Y-87472038D02*
X131214285Y-87376800D01*
X131214285Y-87376800D02*
X131071428Y-87233942D01*
X131071428Y-87233942D02*
X130976190Y-87186323D01*
X130976190Y-87186323D02*
X130880952Y-87186323D01*
X130928571Y-87424419D02*
X130833333Y-87376800D01*
X130833333Y-87376800D02*
X130738095Y-87281561D01*
X130738095Y-87281561D02*
X130690476Y-87091085D01*
X130690476Y-87091085D02*
X130690476Y-86757752D01*
X130690476Y-86757752D02*
X130738095Y-86567276D01*
X130738095Y-86567276D02*
X130833333Y-86472038D01*
X130833333Y-86472038D02*
X130928571Y-86424419D01*
X130928571Y-86424419D02*
X131119047Y-86424419D01*
X131119047Y-86424419D02*
X131214285Y-86472038D01*
X131214285Y-86472038D02*
X131309523Y-86567276D01*
X131309523Y-86567276D02*
X131357142Y-86757752D01*
X131357142Y-86757752D02*
X131357142Y-87091085D01*
X131357142Y-87091085D02*
X131309523Y-87281561D01*
X131309523Y-87281561D02*
X131214285Y-87376800D01*
X131214285Y-87376800D02*
X131119047Y-87424419D01*
X131119047Y-87424419D02*
X130928571Y-87424419D01*
X132309523Y-87424419D02*
X131738095Y-87424419D01*
X132023809Y-87424419D02*
X132023809Y-86424419D01*
X132023809Y-86424419D02*
X131928571Y-86567276D01*
X131928571Y-86567276D02*
X131833333Y-86662514D01*
X131833333Y-86662514D02*
X131738095Y-86710133D01*
%TO.C,Q4*%
X108398457Y-92754438D02*
X108350838Y-92849676D01*
X108350838Y-92849676D02*
X108255600Y-92944914D01*
X108255600Y-92944914D02*
X108112742Y-93087771D01*
X108112742Y-93087771D02*
X108065123Y-93183009D01*
X108065123Y-93183009D02*
X108065123Y-93278247D01*
X108303219Y-93230628D02*
X108255600Y-93325866D01*
X108255600Y-93325866D02*
X108160361Y-93421104D01*
X108160361Y-93421104D02*
X107969885Y-93468723D01*
X107969885Y-93468723D02*
X107636552Y-93468723D01*
X107636552Y-93468723D02*
X107446076Y-93421104D01*
X107446076Y-93421104D02*
X107350838Y-93325866D01*
X107350838Y-93325866D02*
X107303219Y-93230628D01*
X107303219Y-93230628D02*
X107303219Y-93040152D01*
X107303219Y-93040152D02*
X107350838Y-92944914D01*
X107350838Y-92944914D02*
X107446076Y-92849676D01*
X107446076Y-92849676D02*
X107636552Y-92802057D01*
X107636552Y-92802057D02*
X107969885Y-92802057D01*
X107969885Y-92802057D02*
X108160361Y-92849676D01*
X108160361Y-92849676D02*
X108255600Y-92944914D01*
X108255600Y-92944914D02*
X108303219Y-93040152D01*
X108303219Y-93040152D02*
X108303219Y-93230628D01*
X107636552Y-91944914D02*
X108303219Y-91944914D01*
X107255600Y-92183009D02*
X107969885Y-92421104D01*
X107969885Y-92421104D02*
X107969885Y-91802057D01*
%TO.C,D3*%
X105788619Y-93473494D02*
X104788619Y-93473494D01*
X104788619Y-93473494D02*
X104788619Y-93235399D01*
X104788619Y-93235399D02*
X104836238Y-93092542D01*
X104836238Y-93092542D02*
X104931476Y-92997304D01*
X104931476Y-92997304D02*
X105026714Y-92949685D01*
X105026714Y-92949685D02*
X105217190Y-92902066D01*
X105217190Y-92902066D02*
X105360047Y-92902066D01*
X105360047Y-92902066D02*
X105550523Y-92949685D01*
X105550523Y-92949685D02*
X105645761Y-92997304D01*
X105645761Y-92997304D02*
X105741000Y-93092542D01*
X105741000Y-93092542D02*
X105788619Y-93235399D01*
X105788619Y-93235399D02*
X105788619Y-93473494D01*
X104788619Y-92568732D02*
X104788619Y-91949685D01*
X104788619Y-91949685D02*
X105169571Y-92283018D01*
X105169571Y-92283018D02*
X105169571Y-92140161D01*
X105169571Y-92140161D02*
X105217190Y-92044923D01*
X105217190Y-92044923D02*
X105264809Y-91997304D01*
X105264809Y-91997304D02*
X105360047Y-91949685D01*
X105360047Y-91949685D02*
X105598142Y-91949685D01*
X105598142Y-91949685D02*
X105693380Y-91997304D01*
X105693380Y-91997304D02*
X105741000Y-92044923D01*
X105741000Y-92044923D02*
X105788619Y-92140161D01*
X105788619Y-92140161D02*
X105788619Y-92425875D01*
X105788619Y-92425875D02*
X105741000Y-92521113D01*
X105741000Y-92521113D02*
X105693380Y-92568732D01*
%TO.C,C2*%
X96886733Y-67440980D02*
X96839114Y-67488600D01*
X96839114Y-67488600D02*
X96696257Y-67536219D01*
X96696257Y-67536219D02*
X96601019Y-67536219D01*
X96601019Y-67536219D02*
X96458162Y-67488600D01*
X96458162Y-67488600D02*
X96362924Y-67393361D01*
X96362924Y-67393361D02*
X96315305Y-67298123D01*
X96315305Y-67298123D02*
X96267686Y-67107647D01*
X96267686Y-67107647D02*
X96267686Y-66964790D01*
X96267686Y-66964790D02*
X96315305Y-66774314D01*
X96315305Y-66774314D02*
X96362924Y-66679076D01*
X96362924Y-66679076D02*
X96458162Y-66583838D01*
X96458162Y-66583838D02*
X96601019Y-66536219D01*
X96601019Y-66536219D02*
X96696257Y-66536219D01*
X96696257Y-66536219D02*
X96839114Y-66583838D01*
X96839114Y-66583838D02*
X96886733Y-66631457D01*
X97267686Y-66631457D02*
X97315305Y-66583838D01*
X97315305Y-66583838D02*
X97410543Y-66536219D01*
X97410543Y-66536219D02*
X97648638Y-66536219D01*
X97648638Y-66536219D02*
X97743876Y-66583838D01*
X97743876Y-66583838D02*
X97791495Y-66631457D01*
X97791495Y-66631457D02*
X97839114Y-66726695D01*
X97839114Y-66726695D02*
X97839114Y-66821933D01*
X97839114Y-66821933D02*
X97791495Y-66964790D01*
X97791495Y-66964790D02*
X97220067Y-67536219D01*
X97220067Y-67536219D02*
X97839114Y-67536219D01*
%TO.C,R3*%
X97051019Y-75985666D02*
X96574828Y-76318999D01*
X97051019Y-76557094D02*
X96051019Y-76557094D01*
X96051019Y-76557094D02*
X96051019Y-76176142D01*
X96051019Y-76176142D02*
X96098638Y-76080904D01*
X96098638Y-76080904D02*
X96146257Y-76033285D01*
X96146257Y-76033285D02*
X96241495Y-75985666D01*
X96241495Y-75985666D02*
X96384352Y-75985666D01*
X96384352Y-75985666D02*
X96479590Y-76033285D01*
X96479590Y-76033285D02*
X96527209Y-76080904D01*
X96527209Y-76080904D02*
X96574828Y-76176142D01*
X96574828Y-76176142D02*
X96574828Y-76557094D01*
X96051019Y-75652332D02*
X96051019Y-75033285D01*
X96051019Y-75033285D02*
X96431971Y-75366618D01*
X96431971Y-75366618D02*
X96431971Y-75223761D01*
X96431971Y-75223761D02*
X96479590Y-75128523D01*
X96479590Y-75128523D02*
X96527209Y-75080904D01*
X96527209Y-75080904D02*
X96622447Y-75033285D01*
X96622447Y-75033285D02*
X96860542Y-75033285D01*
X96860542Y-75033285D02*
X96955780Y-75080904D01*
X96955780Y-75080904D02*
X97003400Y-75128523D01*
X97003400Y-75128523D02*
X97051019Y-75223761D01*
X97051019Y-75223761D02*
X97051019Y-75509475D01*
X97051019Y-75509475D02*
X97003400Y-75604713D01*
X97003400Y-75604713D02*
X96955780Y-75652332D01*
%TO.C,R1*%
X91908333Y-70127019D02*
X91575000Y-69650828D01*
X91336905Y-70127019D02*
X91336905Y-69127019D01*
X91336905Y-69127019D02*
X91717857Y-69127019D01*
X91717857Y-69127019D02*
X91813095Y-69174638D01*
X91813095Y-69174638D02*
X91860714Y-69222257D01*
X91860714Y-69222257D02*
X91908333Y-69317495D01*
X91908333Y-69317495D02*
X91908333Y-69460352D01*
X91908333Y-69460352D02*
X91860714Y-69555590D01*
X91860714Y-69555590D02*
X91813095Y-69603209D01*
X91813095Y-69603209D02*
X91717857Y-69650828D01*
X91717857Y-69650828D02*
X91336905Y-69650828D01*
X92860714Y-70127019D02*
X92289286Y-70127019D01*
X92575000Y-70127019D02*
X92575000Y-69127019D01*
X92575000Y-69127019D02*
X92479762Y-69269876D01*
X92479762Y-69269876D02*
X92384524Y-69365114D01*
X92384524Y-69365114D02*
X92289286Y-69412733D01*
%TO.C,R6*%
X112392619Y-92876666D02*
X111916428Y-93209999D01*
X112392619Y-93448094D02*
X111392619Y-93448094D01*
X111392619Y-93448094D02*
X111392619Y-93067142D01*
X111392619Y-93067142D02*
X111440238Y-92971904D01*
X111440238Y-92971904D02*
X111487857Y-92924285D01*
X111487857Y-92924285D02*
X111583095Y-92876666D01*
X111583095Y-92876666D02*
X111725952Y-92876666D01*
X111725952Y-92876666D02*
X111821190Y-92924285D01*
X111821190Y-92924285D02*
X111868809Y-92971904D01*
X111868809Y-92971904D02*
X111916428Y-93067142D01*
X111916428Y-93067142D02*
X111916428Y-93448094D01*
X111392619Y-92019523D02*
X111392619Y-92209999D01*
X111392619Y-92209999D02*
X111440238Y-92305237D01*
X111440238Y-92305237D02*
X111487857Y-92352856D01*
X111487857Y-92352856D02*
X111630714Y-92448094D01*
X111630714Y-92448094D02*
X111821190Y-92495713D01*
X111821190Y-92495713D02*
X112202142Y-92495713D01*
X112202142Y-92495713D02*
X112297380Y-92448094D01*
X112297380Y-92448094D02*
X112345000Y-92400475D01*
X112345000Y-92400475D02*
X112392619Y-92305237D01*
X112392619Y-92305237D02*
X112392619Y-92114761D01*
X112392619Y-92114761D02*
X112345000Y-92019523D01*
X112345000Y-92019523D02*
X112297380Y-91971904D01*
X112297380Y-91971904D02*
X112202142Y-91924285D01*
X112202142Y-91924285D02*
X111964047Y-91924285D01*
X111964047Y-91924285D02*
X111868809Y-91971904D01*
X111868809Y-91971904D02*
X111821190Y-92019523D01*
X111821190Y-92019523D02*
X111773571Y-92114761D01*
X111773571Y-92114761D02*
X111773571Y-92305237D01*
X111773571Y-92305237D02*
X111821190Y-92400475D01*
X111821190Y-92400475D02*
X111868809Y-92448094D01*
X111868809Y-92448094D02*
X111964047Y-92495713D01*
%TO.C,R2*%
X97076419Y-84748666D02*
X96600228Y-85081999D01*
X97076419Y-85320094D02*
X96076419Y-85320094D01*
X96076419Y-85320094D02*
X96076419Y-84939142D01*
X96076419Y-84939142D02*
X96124038Y-84843904D01*
X96124038Y-84843904D02*
X96171657Y-84796285D01*
X96171657Y-84796285D02*
X96266895Y-84748666D01*
X96266895Y-84748666D02*
X96409752Y-84748666D01*
X96409752Y-84748666D02*
X96504990Y-84796285D01*
X96504990Y-84796285D02*
X96552609Y-84843904D01*
X96552609Y-84843904D02*
X96600228Y-84939142D01*
X96600228Y-84939142D02*
X96600228Y-85320094D01*
X96171657Y-84367713D02*
X96124038Y-84320094D01*
X96124038Y-84320094D02*
X96076419Y-84224856D01*
X96076419Y-84224856D02*
X96076419Y-83986761D01*
X96076419Y-83986761D02*
X96124038Y-83891523D01*
X96124038Y-83891523D02*
X96171657Y-83843904D01*
X96171657Y-83843904D02*
X96266895Y-83796285D01*
X96266895Y-83796285D02*
X96362133Y-83796285D01*
X96362133Y-83796285D02*
X96504990Y-83843904D01*
X96504990Y-83843904D02*
X97076419Y-84415332D01*
X97076419Y-84415332D02*
X97076419Y-83796285D01*
%TO.C,R4*%
X91564619Y-84799466D02*
X91088428Y-85132799D01*
X91564619Y-85370894D02*
X90564619Y-85370894D01*
X90564619Y-85370894D02*
X90564619Y-84989942D01*
X90564619Y-84989942D02*
X90612238Y-84894704D01*
X90612238Y-84894704D02*
X90659857Y-84847085D01*
X90659857Y-84847085D02*
X90755095Y-84799466D01*
X90755095Y-84799466D02*
X90897952Y-84799466D01*
X90897952Y-84799466D02*
X90993190Y-84847085D01*
X90993190Y-84847085D02*
X91040809Y-84894704D01*
X91040809Y-84894704D02*
X91088428Y-84989942D01*
X91088428Y-84989942D02*
X91088428Y-85370894D01*
X90897952Y-83942323D02*
X91564619Y-83942323D01*
X90517000Y-84180418D02*
X91231285Y-84418513D01*
X91231285Y-84418513D02*
X91231285Y-83799466D01*
%TO.C,Q2*%
X93833961Y-84979657D02*
X93738723Y-84932038D01*
X93738723Y-84932038D02*
X93643485Y-84836800D01*
X93643485Y-84836800D02*
X93500628Y-84693942D01*
X93500628Y-84693942D02*
X93405390Y-84646323D01*
X93405390Y-84646323D02*
X93310152Y-84646323D01*
X93357771Y-84884419D02*
X93262533Y-84836800D01*
X93262533Y-84836800D02*
X93167295Y-84741561D01*
X93167295Y-84741561D02*
X93119676Y-84551085D01*
X93119676Y-84551085D02*
X93119676Y-84217752D01*
X93119676Y-84217752D02*
X93167295Y-84027276D01*
X93167295Y-84027276D02*
X93262533Y-83932038D01*
X93262533Y-83932038D02*
X93357771Y-83884419D01*
X93357771Y-83884419D02*
X93548247Y-83884419D01*
X93548247Y-83884419D02*
X93643485Y-83932038D01*
X93643485Y-83932038D02*
X93738723Y-84027276D01*
X93738723Y-84027276D02*
X93786342Y-84217752D01*
X93786342Y-84217752D02*
X93786342Y-84551085D01*
X93786342Y-84551085D02*
X93738723Y-84741561D01*
X93738723Y-84741561D02*
X93643485Y-84836800D01*
X93643485Y-84836800D02*
X93548247Y-84884419D01*
X93548247Y-84884419D02*
X93357771Y-84884419D01*
X94167295Y-83979657D02*
X94214914Y-83932038D01*
X94214914Y-83932038D02*
X94310152Y-83884419D01*
X94310152Y-83884419D02*
X94548247Y-83884419D01*
X94548247Y-83884419D02*
X94643485Y-83932038D01*
X94643485Y-83932038D02*
X94691104Y-83979657D01*
X94691104Y-83979657D02*
X94738723Y-84074895D01*
X94738723Y-84074895D02*
X94738723Y-84170133D01*
X94738723Y-84170133D02*
X94691104Y-84312990D01*
X94691104Y-84312990D02*
X94119676Y-84884419D01*
X94119676Y-84884419D02*
X94738723Y-84884419D01*
%TO.C,Q3*%
X93656161Y-76572257D02*
X93560923Y-76524638D01*
X93560923Y-76524638D02*
X93465685Y-76429400D01*
X93465685Y-76429400D02*
X93322828Y-76286542D01*
X93322828Y-76286542D02*
X93227590Y-76238923D01*
X93227590Y-76238923D02*
X93132352Y-76238923D01*
X93179971Y-76477019D02*
X93084733Y-76429400D01*
X93084733Y-76429400D02*
X92989495Y-76334161D01*
X92989495Y-76334161D02*
X92941876Y-76143685D01*
X92941876Y-76143685D02*
X92941876Y-75810352D01*
X92941876Y-75810352D02*
X92989495Y-75619876D01*
X92989495Y-75619876D02*
X93084733Y-75524638D01*
X93084733Y-75524638D02*
X93179971Y-75477019D01*
X93179971Y-75477019D02*
X93370447Y-75477019D01*
X93370447Y-75477019D02*
X93465685Y-75524638D01*
X93465685Y-75524638D02*
X93560923Y-75619876D01*
X93560923Y-75619876D02*
X93608542Y-75810352D01*
X93608542Y-75810352D02*
X93608542Y-76143685D01*
X93608542Y-76143685D02*
X93560923Y-76334161D01*
X93560923Y-76334161D02*
X93465685Y-76429400D01*
X93465685Y-76429400D02*
X93370447Y-76477019D01*
X93370447Y-76477019D02*
X93179971Y-76477019D01*
X93941876Y-75477019D02*
X94560923Y-75477019D01*
X94560923Y-75477019D02*
X94227590Y-75857971D01*
X94227590Y-75857971D02*
X94370447Y-75857971D01*
X94370447Y-75857971D02*
X94465685Y-75905590D01*
X94465685Y-75905590D02*
X94513304Y-75953209D01*
X94513304Y-75953209D02*
X94560923Y-76048447D01*
X94560923Y-76048447D02*
X94560923Y-76286542D01*
X94560923Y-76286542D02*
X94513304Y-76381780D01*
X94513304Y-76381780D02*
X94465685Y-76429400D01*
X94465685Y-76429400D02*
X94370447Y-76477019D01*
X94370447Y-76477019D02*
X94084733Y-76477019D01*
X94084733Y-76477019D02*
X93989495Y-76429400D01*
X93989495Y-76429400D02*
X93941876Y-76381780D01*
D11*
%TO.C,D2*%
X109563400Y-96985000D02*
X111033400Y-96985000D01*
X111033400Y-96985000D02*
X111033400Y-94525000D01*
X109563400Y-94525000D02*
X109563400Y-96985000D01*
D12*
%TO.C,U1*%
X100100000Y-90150000D02*
X100100000Y-84400000D01*
X101300000Y-90150000D02*
X100100000Y-90150000D01*
X110500000Y-90150000D02*
X113500000Y-90150000D01*
X127900000Y-90150000D02*
X129100000Y-90150000D01*
X129100000Y-90150000D02*
X129100000Y-84400000D01*
X100100000Y-60900000D02*
X100100000Y-58150000D01*
X129100000Y-60900000D02*
X129100000Y-58150000D01*
X100100000Y-58150000D02*
X101300000Y-58150000D01*
X113500000Y-58150000D02*
X110500000Y-58150000D01*
X129100000Y-58150000D02*
X127900000Y-58150000D01*
D13*
X102200000Y-92450000D02*
G75*
G03*
X102200000Y-92450000I-200000J0D01*
G01*
D11*
%TO.C,J3*%
X133620200Y-70590000D02*
X133620200Y-88430000D01*
X133620200Y-70590000D02*
X136280200Y-70590000D01*
X133620200Y-88430000D02*
X136280200Y-88430000D01*
X134950200Y-67990000D02*
X136280200Y-67990000D01*
X136280200Y-67990000D02*
X136280200Y-69320000D01*
X136280200Y-70590000D02*
X136280200Y-88430000D01*
%TO.C,R7*%
X103075900Y-95567224D02*
X103075900Y-95057776D01*
X104120900Y-95567224D02*
X104120900Y-95057776D01*
%TO.C,C1*%
X92152500Y-63337500D02*
X92152500Y-62550000D01*
X91758750Y-62943750D02*
X92546250Y-62943750D01*
X91654437Y-62310000D02*
X92940000Y-62310000D01*
X91654437Y-62310000D02*
X90590000Y-61245563D01*
X96345563Y-62310000D02*
X95060000Y-62310000D01*
X96345563Y-62310000D02*
X97410000Y-61245563D01*
X90590000Y-61245563D02*
X90590000Y-55490000D01*
X97410000Y-61245563D02*
X97410000Y-55490000D01*
X90590000Y-55490000D02*
X92940000Y-55490000D01*
X97410000Y-55490000D02*
X95060000Y-55490000D01*
%TO.C,R5*%
X90552500Y-78704724D02*
X90552500Y-78195276D01*
X91597500Y-78704724D02*
X91597500Y-78195276D01*
%TO.C,FB1*%
X93913748Y-64690000D02*
X94436252Y-64690000D01*
X93913748Y-66110000D02*
X94436252Y-66110000D01*
%TO.C,J2*%
X104383400Y-46496800D02*
X104383400Y-54696800D01*
X104383400Y-46496800D02*
X112583400Y-46496800D01*
X104383400Y-51096800D02*
X104883400Y-50596800D01*
X104383400Y-54696800D02*
X112583400Y-54696800D01*
X104883400Y-50596800D02*
X104383400Y-50096800D01*
X112583400Y-46496800D02*
X112583400Y-54696800D01*
%TO.C,D1*%
X96360000Y-72035000D02*
X96360000Y-70565000D01*
X96360000Y-70565000D02*
X93900000Y-70565000D01*
X93900000Y-72035000D02*
X96360000Y-72035000D01*
%TO.C,J4*%
X107290000Y-103305000D02*
X125130000Y-103305000D01*
X107290000Y-103305000D02*
X107290000Y-100645000D01*
X125130000Y-103305000D02*
X125130000Y-100645000D01*
X104690000Y-101975000D02*
X104690000Y-100645000D01*
X104690000Y-100645000D02*
X106020000Y-100645000D01*
X107290000Y-100645000D02*
X125130000Y-100645000D01*
%TO.C,Q1*%
X130800000Y-90160000D02*
X132200000Y-90160000D01*
X132200000Y-87840000D02*
X130300000Y-87840000D01*
%TO.C,Q4*%
X107148400Y-96210000D02*
X108548400Y-96210000D01*
X108548400Y-93890000D02*
X106648400Y-93890000D01*
%TO.C,D3*%
X104563400Y-96972500D02*
X106033400Y-96972500D01*
X106033400Y-96972500D02*
X106033400Y-94512500D01*
X104563400Y-94512500D02*
X104563400Y-96972500D01*
%TO.C,C2*%
X96590000Y-64846267D02*
X96590000Y-64553733D01*
X97610000Y-64846267D02*
X97610000Y-64553733D01*
%TO.C,R3*%
X96052500Y-78704724D02*
X96052500Y-78195276D01*
X97097500Y-78704724D02*
X97097500Y-78195276D01*
%TO.C,R1*%
X94954724Y-70222500D02*
X94445276Y-70222500D01*
X94954724Y-69177500D02*
X94445276Y-69177500D01*
%TO.C,R6*%
X111375900Y-95554724D02*
X111375900Y-95045276D01*
X112420900Y-95554724D02*
X112420900Y-95045276D01*
%TO.C,R2*%
X96115000Y-82204724D02*
X96115000Y-81695276D01*
X97160000Y-82204724D02*
X97160000Y-81695276D01*
%TO.C,R4*%
X91660000Y-81695276D02*
X91660000Y-82204724D01*
X90615000Y-81695276D02*
X90615000Y-82204724D01*
%TO.C,Q2*%
X93875000Y-83510000D02*
X95550000Y-83510000D01*
X93875000Y-83510000D02*
X93225000Y-83510000D01*
X93875000Y-80390000D02*
X94525000Y-80390000D01*
X93875000Y-80390000D02*
X93225000Y-80390000D01*
%TO.C,Q3*%
X93837500Y-79960000D02*
X95512500Y-79960000D01*
X93837500Y-79960000D02*
X93187500Y-79960000D01*
X93837500Y-76840000D02*
X94487500Y-76840000D01*
X93837500Y-76840000D02*
X93187500Y-76840000D01*
%TD*%
M02*
