%TF.GenerationSoftware,KiCad,Pcbnew,7.0.5*%
%TF.CreationDate,2023-07-01T23:53:25+07:00*%
%TF.ProjectId,PoeSci EFarm Rev 3,506f6553-6369-4204-9546-61726d205265,rev?*%
%TF.SameCoordinates,Original*%
%TF.FileFunction,Soldermask,Top*%
%TF.FilePolarity,Negative*%
%FSLAX46Y46*%
G04 Gerber Fmt 4.6, Leading zero omitted, Abs format (unit mm)*
G04 Created by KiCad (PCBNEW 7.0.5) date 2023-07-01 23:53:25*
%MOMM*%
%LPD*%
G01*
G04 APERTURE LIST*
G04 Aperture macros list*
%AMRoundRect*
0 Rectangle with rounded corners*
0 $1 Rounding radius*
0 $2 $3 $4 $5 $6 $7 $8 $9 X,Y pos of 4 corners*
0 Add a 4 corners polygon primitive as box body*
4,1,4,$2,$3,$4,$5,$6,$7,$8,$9,$2,$3,0*
0 Add four circle primitives for the rounded corners*
1,1,$1+$1,$2,$3*
1,1,$1+$1,$4,$5*
1,1,$1+$1,$6,$7*
1,1,$1+$1,$8,$9*
0 Add four rect primitives between the rounded corners*
20,1,$1+$1,$2,$3,$4,$5,0*
20,1,$1+$1,$4,$5,$6,$7,0*
20,1,$1+$1,$6,$7,$8,$9,0*
20,1,$1+$1,$8,$9,$2,$3,0*%
G04 Aperture macros list end*
%ADD10C,0.800000*%
%ADD11C,6.400000*%
%ADD12RoundRect,0.237500X0.237500X-0.287500X0.237500X0.287500X-0.237500X0.287500X-0.237500X-0.287500X0*%
%ADD13O,0.800000X2.500000*%
%ADD14O,2.500000X0.800000*%
%ADD15R,3.000000X2.000000*%
%ADD16R,1.700000X1.700000*%
%ADD17O,1.700000X1.700000*%
%ADD18RoundRect,0.237500X0.237500X-0.250000X0.237500X0.250000X-0.237500X0.250000X-0.237500X-0.250000X0*%
%ADD19RoundRect,0.250000X0.550000X-1.500000X0.550000X1.500000X-0.550000X1.500000X-0.550000X-1.500000X0*%
%ADD20RoundRect,0.250000X-0.325000X-0.450000X0.325000X-0.450000X0.325000X0.450000X-0.325000X0.450000X0*%
%ADD21RoundRect,0.200100X-0.949900X-0.949900X0.949900X-0.949900X0.949900X0.949900X-0.949900X0.949900X0*%
%ADD22C,2.500000*%
%ADD23RoundRect,0.237500X0.287500X0.237500X-0.287500X0.237500X-0.287500X-0.237500X0.287500X-0.237500X0*%
%ADD24R,0.650000X0.400000*%
%ADD25RoundRect,0.237500X0.237500X-0.300000X0.237500X0.300000X-0.237500X0.300000X-0.237500X-0.300000X0*%
%ADD26RoundRect,0.237500X0.250000X0.237500X-0.250000X0.237500X-0.250000X-0.237500X0.250000X-0.237500X0*%
%ADD27RoundRect,0.237500X-0.237500X0.250000X-0.237500X-0.250000X0.237500X-0.250000X0.237500X0.250000X0*%
%ADD28RoundRect,0.150000X0.587500X0.150000X-0.587500X0.150000X-0.587500X-0.150000X0.587500X-0.150000X0*%
G04 APERTURE END LIST*
D10*
%TO.C,REF\u002A\u002A*%
X133350000Y-98488800D03*
X135047056Y-102585856D03*
X135047056Y-99191744D03*
X135750000Y-100888800D03*
D11*
X133350000Y-100888800D03*
D10*
X133350000Y-103288800D03*
X131652944Y-99191744D03*
X131652944Y-102585856D03*
X130950000Y-100888800D03*
%TD*%
%TO.C,REF\u002A\u002A*%
X92659200Y-98514200D03*
X94356256Y-102611256D03*
X94356256Y-99217144D03*
X95059200Y-100914200D03*
D11*
X92659200Y-100914200D03*
D10*
X92659200Y-103314200D03*
X90962144Y-99217144D03*
X90962144Y-102611256D03*
X90259200Y-100914200D03*
%TD*%
%TO.C,REF\u002A\u002A*%
X92938600Y-47688800D03*
X94635656Y-51785856D03*
X94635656Y-48391744D03*
X95338600Y-50088800D03*
D11*
X92938600Y-50088800D03*
D10*
X92938600Y-52488800D03*
X91241544Y-48391744D03*
X91241544Y-51785856D03*
X90538600Y-50088800D03*
%TD*%
D12*
%TO.C,D2*%
X110298400Y-96200000D03*
X110298400Y-94450000D03*
%TD*%
D13*
%TO.C,U1*%
X102000000Y-89900000D03*
X103300000Y-89900000D03*
X104600000Y-89900000D03*
X105900000Y-89900000D03*
X107200000Y-89900000D03*
X108500000Y-89900000D03*
X109800000Y-89900000D03*
X114200000Y-89900000D03*
X115500000Y-89900000D03*
X116800000Y-89900000D03*
X118100000Y-89900000D03*
X119400000Y-89900000D03*
X120700000Y-89900000D03*
X122000000Y-89900000D03*
X123300000Y-89900000D03*
X124600000Y-89900000D03*
X125900000Y-89900000D03*
X127200000Y-89900000D03*
D14*
X128850000Y-83700000D03*
X128850000Y-82400000D03*
X128850000Y-81100000D03*
X128850000Y-79800000D03*
X128850000Y-78500000D03*
X128850000Y-77200000D03*
X128850000Y-75900000D03*
X128850000Y-74600000D03*
X128850000Y-73300000D03*
X128850000Y-72000000D03*
X128850000Y-70700000D03*
X128850000Y-69400000D03*
X128850000Y-68100000D03*
X128850000Y-66800000D03*
X128850000Y-65500000D03*
X128850000Y-64200000D03*
X128850000Y-62900000D03*
X128850000Y-61600000D03*
D13*
X127200000Y-58400000D03*
X125900000Y-58400000D03*
X124600000Y-58400000D03*
X123300000Y-58400000D03*
X122000000Y-58400000D03*
X120700000Y-58400000D03*
X119400000Y-58400000D03*
X118100000Y-58400000D03*
X116800000Y-58400000D03*
X115500000Y-58400000D03*
X114200000Y-58400000D03*
X109800000Y-58400000D03*
X108500000Y-58400000D03*
X107200000Y-58400000D03*
X105900000Y-58400000D03*
X104600000Y-58400000D03*
X103300000Y-58400000D03*
X102000000Y-58400000D03*
D14*
X100350000Y-61600000D03*
X100350000Y-62900000D03*
X100350000Y-64200000D03*
X100350000Y-65500000D03*
X100350000Y-66800000D03*
X100350000Y-68100000D03*
X100350000Y-69400000D03*
X100350000Y-70700000D03*
X100350000Y-72000000D03*
X100350000Y-73300000D03*
X100350000Y-74600000D03*
X100350000Y-75900000D03*
X100350000Y-77200000D03*
X100350000Y-78500000D03*
X100350000Y-79800000D03*
X100350000Y-81100000D03*
X100350000Y-82400000D03*
X100350000Y-83700000D03*
D15*
X105000000Y-65950000D03*
X109800000Y-65950000D03*
X114600000Y-65950000D03*
X119400000Y-65950000D03*
X124200000Y-65950000D03*
X105000000Y-69150000D03*
X109800000Y-69150000D03*
X114600000Y-69150000D03*
X119400000Y-69150000D03*
X124200000Y-69150000D03*
X105000000Y-72550000D03*
X109800000Y-72550000D03*
X119400000Y-72550000D03*
X124200000Y-72550000D03*
X105000000Y-75750000D03*
X109800000Y-75750000D03*
X119400000Y-75750000D03*
X124200000Y-75750000D03*
X105000000Y-79150000D03*
X109800000Y-79150000D03*
X114600000Y-79150000D03*
X119400000Y-79150000D03*
X124200000Y-79150000D03*
X105000000Y-82350000D03*
X109800000Y-82350000D03*
X114600000Y-82350000D03*
X119400000Y-82350000D03*
X124200000Y-82350000D03*
%TD*%
D16*
%TO.C,J3*%
X134950200Y-69320000D03*
D17*
X134950200Y-71860000D03*
X134950200Y-74400000D03*
X134950200Y-76940000D03*
X134950200Y-79480000D03*
X134950200Y-82020000D03*
X134950200Y-84560000D03*
X134950200Y-87100000D03*
%TD*%
D18*
%TO.C,R7*%
X103598400Y-96225000D03*
X103598400Y-94400000D03*
%TD*%
D19*
%TO.C,C1*%
X94000000Y-61700000D03*
X94000000Y-56100000D03*
%TD*%
D18*
%TO.C,R5*%
X91075000Y-79362500D03*
X91075000Y-77537500D03*
%TD*%
D20*
%TO.C,FB1*%
X93150000Y-65400000D03*
X95200000Y-65400000D03*
%TD*%
D21*
%TO.C,J2*%
X108483400Y-50596800D03*
D22*
X105943400Y-48056800D03*
X105943400Y-53136800D03*
X111023400Y-48056800D03*
X111023400Y-53136800D03*
%TD*%
D23*
%TO.C,D1*%
X95575000Y-71300000D03*
X93825000Y-71300000D03*
%TD*%
D16*
%TO.C,J4*%
X106020000Y-101975000D03*
D17*
X108560000Y-101975000D03*
X111100000Y-101975000D03*
X113640000Y-101975000D03*
X116180000Y-101975000D03*
X118720000Y-101975000D03*
X121260000Y-101975000D03*
X123800000Y-101975000D03*
%TD*%
D24*
%TO.C,Q1*%
X130550000Y-88350000D03*
X130550000Y-89000000D03*
X130550000Y-89650000D03*
X132450000Y-89650000D03*
X132450000Y-89000000D03*
X132450000Y-88350000D03*
%TD*%
%TO.C,Q4*%
X106898400Y-94400000D03*
X106898400Y-95050000D03*
X106898400Y-95700000D03*
X108798400Y-95700000D03*
X108798400Y-95050000D03*
X108798400Y-94400000D03*
%TD*%
D12*
%TO.C,D3*%
X105298400Y-96187500D03*
X105298400Y-94437500D03*
%TD*%
D25*
%TO.C,C2*%
X97100000Y-65562500D03*
X97100000Y-63837500D03*
%TD*%
D18*
%TO.C,R3*%
X96575000Y-79362500D03*
X96575000Y-77537500D03*
%TD*%
D26*
%TO.C,R1*%
X95612500Y-69700000D03*
X93787500Y-69700000D03*
%TD*%
D18*
%TO.C,R6*%
X111898400Y-96212500D03*
X111898400Y-94387500D03*
%TD*%
%TO.C,R2*%
X96637500Y-82862500D03*
X96637500Y-81037500D03*
%TD*%
D27*
%TO.C,R4*%
X91137500Y-81037500D03*
X91137500Y-82862500D03*
%TD*%
D28*
%TO.C,Q2*%
X94812500Y-82900000D03*
X94812500Y-81000000D03*
X92937500Y-81950000D03*
%TD*%
%TO.C,Q3*%
X94775000Y-79350000D03*
X94775000Y-77450000D03*
X92900000Y-78400000D03*
%TD*%
M02*
